<?xml version="1.0" encoding="UTF-8" standalone="no"?>
<!-- Created with Inkscape (http://www.inkscape.org/) -->

<svg
   xmlns:dc="http://purl.org/dc/elements/1.1/"
   xmlns:cc="http://creativecommons.org/ns#"
   xmlns:rdf="http://www.w3.org/1999/02/22-rdf-syntax-ns#"
   xmlns:svg="http://www.w3.org/2000/svg"
   xmlns="http://www.w3.org/2000/svg"
   xmlns:sodipodi="http://sodipodi.sourceforge.net/DTD/sodipodi-0.dtd"
   xmlns:inkscape="http://www.inkscape.org/namespaces/inkscape"
   id="svg3355"
   version="1.1"
   inkscape:version="0.91 r13725"
   xml:space="preserve"
   width="730.16498"
   height="279.02374"
   viewBox="0 0 730.16498 279.02374"
   sodipodi:docname="logo_cgr.svg"><metadata
     id="metadata3361"><rdf:RDF><cc:Work
         rdf:about=""><dc:format>image/svg+xml</dc:format><dc:type
           rdf:resource="http://purl.org/dc/dcmitype/StillImage" /><dc:title></dc:title></cc:Work></rdf:RDF></metadata><defs
     id="defs3359"><clipPath
       clipPathUnits="userSpaceOnUse"
       id="clipPath3369"><path
         d="m 0,223.219 584.132,0 L 584.132,0 0,0 0,223.219 Z"
         id="path3371"
         inkscape:connector-curvature="0" /></clipPath><clipPath
       clipPathUnits="userSpaceOnUse"
       id="clipPath3445"><path
         d="m 0,223.219 223.22,0 L 223.22,0 0,0 0,223.219 Z"
         id="path3447"
         inkscape:connector-curvature="0" /></clipPath></defs><sodipodi:namedview
     pagecolor="#ffffff"
     bordercolor="#666666"
     borderopacity="1"
     objecttolerance="10"
     gridtolerance="10"
     guidetolerance="10"
     inkscape:pageopacity="0"
     inkscape:pageshadow="2"
     inkscape:window-width="1920"
     inkscape:window-height="1016"
     id="namedview3357"
     showgrid="false"
     inkscape:zoom="1.7763109"
     inkscape:cx="365.08249"
     inkscape:cy="139.51187"
     inkscape:window-x="0"
     inkscape:window-y="27"
     inkscape:window-maximized="1"
     inkscape:current-layer="g3363" /><g
     id="g3363"
     inkscape:groupmode="layer"
     inkscape:label="logo"
     transform="matrix(1.25,0,0,-1.25,0,279.02375)"><g
       id="g3365"><g
         id="g3367"
         clip-path="url(#clipPath3369)"><g
           id="g3373"
           transform="translate(583.3491,130.8252)"><path
             d="m 0,0 c -0.609,0.649 -1.545,0.973 -2.764,0.973 -0.652,0 -1.306,-0.151 -1.976,-0.469 -1.473,-0.668 -2.602,-1.786 -3.383,-3.325 -0.707,-1.354 -1.066,-2.892 -1.066,-4.602 0,-2.086 0.943,-4.857 2.832,-8.335 1.894,-3.471 2.841,-6.132 2.841,-7.949 0,-1.298 -0.312,-2.564 -0.931,-3.804 -0.141,-0.312 -0.422,-0.479 -0.875,-0.512 -0.43,-0.019 -0.725,-0.103 -0.832,-0.258 -0.446,-0.461 -0.653,-0.883 -0.653,-1.214 0,-0.561 0.438,-1.037 1.319,-1.398 0.224,-0.087 0.484,-0.119 0.748,-0.119 0.67,0 1.426,0.3 2.281,0.886 1.055,0.751 1.705,1.384 1.965,1.845 0.799,1.44 1.183,2.931 1.183,4.48 0,1.887 -0.689,4.181 -2.093,6.886 -2.112,4.037 -3.235,6.222 -3.336,6.542 -0.264,0.691 -0.41,1.455 -0.41,2.282 0,2.176 0.795,4.043 2.386,5.562 l 0.518,0.25 c 0.029,0 0.258,-0.057 0.656,-0.167 0.272,-0.083 0.508,-0.067 0.758,0.042 0.84,0.42 1.266,0.922 1.266,1.473 C 0.434,-0.614 0.279,-0.3 0,0 m -15.029,-18.816 c -1.192,-1.551 -2.451,-2.33 -3.733,-2.33 -0.554,0 -1.248,0.573 -2.06,1.735 -0.586,0.841 -0.877,1.863 -0.877,3.079 0,1.782 0.508,3.086 1.539,3.921 l 0.219,0.099 c 0.113,0 0.355,-0.13 0.738,-0.387 0.392,-0.252 0.666,-0.341 0.879,-0.252 0.32,0.108 0.777,0.489 1.357,1.139 0.528,0.569 0.977,0.841 1.315,0.841 l 0.408,-0.085 c 0.937,-0.387 1.512,-1.614 1.705,-3.671 0.16,-1.261 -0.336,-2.62 -1.49,-4.089 m 5.461,3.544 c 0,1.349 -0.522,2.96 -1.551,4.847 -0.588,1.066 -1.576,1.834 -2.979,2.284 -1.785,0.562 -2.89,1.02 -3.297,1.349 -0.416,0.342 -0.851,0.511 -1.314,0.511 -0.828,0 -1.695,-0.445 -2.607,-1.315 -0.78,-0.728 -1.452,-1.598 -2.008,-2.612 -1.291,-2.391 -1.93,-4.636 -1.93,-6.707 0,-1.887 0.563,-3.428 1.701,-4.602 1.703,-1.743 3.393,-2.611 5.057,-2.611 0.391,0 0.76,0.037 1.139,0.113 3.166,0.7 5.607,2.927 7.343,6.682 0.28,0.609 0.446,1.309 0.446,2.061 m -14.151,15.191 c -0.687,0.471 -1.435,0.725 -2.236,0.725 -1.916,0 -3.748,-1.023 -5.502,-3.048 -3.008,-3.491 -4.518,-7.726 -4.518,-12.698 0,-0.922 0.053,-1.894 0.159,-2.865 0.353,-3.193 0.613,-5.007 0.748,-5.453 0.211,-0.614 0.515,-1.27 0.959,-1.964 0.431,-0.679 0.822,-1.352 1.238,-2 1.654,-2.554 3.168,-4.239 4.568,-5.016 0.797,-0.315 1.385,-0.499 1.77,-0.552 0.353,-0.094 0.679,0.053 0.988,0.41 0.295,0.375 0.465,0.781 0.465,1.23 0,0.457 -0.252,0.805 -0.707,1.048 -0.447,0.171 -0.889,0.37 -1.317,0.558 -1.066,0.59 -1.953,1.58 -2.687,2.957 -0.291,0.564 -0.777,1.744 -1.445,3.55 -0.819,2.197 -1.241,4.52 -1.241,7.001 0,5.253 1.653,9.542 4.932,12.867 0.332,0.34 1.18,0.627 2.541,0.885 1.047,0.204 1.584,0.675 1.584,1.432 0,0.481 -0.1,0.798 -0.299,0.933 m -13.447,-4.854 c -0.033,0.048 -0.033,0.254 0,0.587 0,0.282 -0.049,0.423 -0.135,0.423 l -0.254,-0.123 c -0.584,0.309 -1.129,0.463 -1.677,0.463 -0.707,0 -1.2,-0.267 -1.493,-0.818 0.065,-0.688 0.088,-1.409 0.088,-2.139 0,-1.891 -0.234,-4.716 -0.722,-8.518 -0.479,-3.808 -0.723,-6.657 -0.723,-8.576 0,-1.097 0.045,-2.138 0.166,-3.113 0.123,-0.985 0.799,-1.514 2.07,-1.568 0.895,-0.021 1.444,0.35 1.707,1.143 -0.021,0.701 -0.041,1.418 -0.041,2.159 0,1.966 0.203,4.862 0.625,8.723 0.393,3.85 0.61,6.752 0.61,8.663 0,0.86 -0.034,1.714 -0.086,2.525 l -0.135,0.169 z m -5.229,-15.062 c -0.263,0.454 -0.695,0.669 -1.265,0.669 -0.188,0 -0.453,-0.021 -0.828,-0.083 -0.36,-0.061 -0.604,-0.069 -0.768,-0.069 -0.637,-0.319 -1.676,-0.962 -3.105,-1.912 -1.321,-0.853 -2.391,-1.438 -3.217,-1.782 -0.061,2.316 0.062,5.776 0.355,10.366 0.285,4.602 0.395,8.063 0.309,10.362 -0.184,0.791 -0.824,1.182 -1.94,1.182 -0.589,0 -1.07,-0.193 -1.449,-0.544 0.119,-1.273 0.178,-2.621 0.178,-4.061 0,-2.082 -0.225,-5.481 -0.664,-10.189 -0.359,-4.42 -0.522,-7.877 -0.475,-10.351 0.028,-0.031 0.303,-0.379 0.826,-1.061 0.344,-0.497 0.739,-0.768 1.145,-0.768 l 0.525,0.141 c 1.53,0.644 3.28,1.644 5.229,3.009 3.377,2.319 5.084,3.48 5.144,3.517 0.358,0.425 0.358,0.939 0,1.574 m -20.158,-4.94 c -0.302,-0.337 -0.816,-0.732 -1.58,-1.161 -0.724,-0.434 -1.277,-0.849 -1.625,-1.24 -0.244,0.733 -0.359,1.545 -0.359,2.441 0,0.611 0.094,1.546 0.234,2.762 0.168,1.222 0.24,2.138 0.24,2.724 0,0.333 -0.005,0.651 -0.029,0.93 0.201,0.087 0.422,0.125 0.668,0.125 0.4,0 1.342,-0.352 2.842,-1.055 0.557,-0.651 0.836,-1.385 0.836,-2.235 0,-0.285 -0.033,-0.584 -0.092,-0.889 -0.242,-1.014 -0.609,-1.819 -1.135,-2.402 m 1.612,16.074 c -0.664,-0.929 -1.44,-1.591 -2.332,-1.987 -0.038,-0.018 -0.278,-0.198 -0.69,-0.483 -0.404,-0.296 -0.719,-0.445 -0.928,-0.445 0.034,0.91 0,2.163 -0.089,3.761 -0.108,1.747 -0.18,2.976 -0.18,3.709 0,0.552 0.023,1.047 0.055,1.516 l 0.388,0.088 c 0.244,0 0.539,-0.112 0.885,-0.325 0.502,-0.296 0.863,-0.469 1.105,-0.556 1.6,-0.559 2.487,-1.359 2.623,-2.4 0.133,-0.993 -0.152,-1.95 -0.837,-2.878 m 4.656,3.463 c -0.547,1.494 -2.408,3.029 -5.572,4.585 -1.416,0.684 -2.805,1.115 -4.211,1.275 -0.278,0.027 -0.846,0.113 -1.705,0.254 -0.633,0.125 -1.133,0.18 -1.51,0.18 -0.811,0 -1.561,-0.245 -2.24,-0.719 0,-0.148 -0.071,-0.335 -0.188,-0.554 -0.148,-0.228 -0.195,-0.405 -0.162,-0.501 0.451,-0.928 1.348,-1.524 2.728,-1.772 0.196,-3.605 0.127,-7.544 -0.222,-11.815 -0.381,-0.26 -0.684,-0.491 -0.904,-0.705 -0.208,-0.202 -0.333,-0.433 -0.333,-0.687 0,-0.502 0.317,-0.966 0.936,-1.356 -0.266,-1.837 -0.426,-4.158 -0.49,-6.975 -0.071,-2.324 -0.129,-4.672 -0.172,-7.034 0.379,-0.757 1.047,-1.138 2.017,-1.138 0.405,0 0.79,0.09 1.141,0.291 1.414,0.789 2.815,1.574 4.217,2.365 1.734,1.008 3.033,2.028 3.904,3.092 1.147,1.34 1.715,2.813 1.715,4.423 0,2.074 -1.221,3.875 -3.635,5.397 -0.47,0.19 -0.974,0.403 -1.472,0.613 -0.526,0.222 -0.83,0.513 -0.911,0.954 1.497,0.979 2.991,1.981 4.487,2.995 1.541,1.23 2.512,2.617 2.892,4.141 0.176,0.727 0.069,1.622 -0.31,2.691 m -17.393,2.871 c -0.791,0 -1.34,-0.342 -1.672,-1.015 -0.195,-0.429 -0.371,-1.176 -0.531,-2.275 -0.137,-1.102 -0.318,-1.837 -0.519,-2.231 -0.696,-1.413 -1.33,-3.355 -1.881,-5.836 -0.707,-3.259 -1.172,-5.255 -1.397,-5.994 -0.709,-2.178 -1.695,-3.946 -2.922,-5.27 -0.461,1.66 -0.732,2.795 -0.793,3.369 -0.074,1.162 -0.117,2.432 -0.117,3.85 0,1.327 0.069,3.471 0.221,6.461 0.109,2.78 0.16,4.891 0.129,6.325 -0.332,0.167 -0.66,0.326 -0.998,0.494 -0.336,0.152 -0.639,0.222 -0.94,0.222 -1.414,0 -2.101,-0.872 -2.101,-2.615 0,-2.029 0.021,-2.896 0.029,-2.619 -0.396,-3.235 -0.617,-5.88 -0.617,-7.936 0,-3.566 0.57,-6.687 1.676,-9.323 0.642,-1.568 1.617,-2.37 2.951,-2.401 1.502,-0.025 2.812,0.694 3.955,2.193 1.814,2.327 3.047,4.922 3.695,7.756 0.197,0.931 0.957,3.61 2.278,8.024 0.961,3.3 1.564,5.922 1.759,7.898 -0.439,0.606 -1.17,0.923 -2.205,0.923 m -0.42,7.029 c -0.482,0.427 -0.951,0.649 -1.412,0.649 -0.326,0 -0.568,-0.127 -0.756,-0.389 -2.371,-3.673 -4.099,-6.548 -5.185,-8.648 -0.317,-0.605 -0.477,-1.047 -0.477,-1.304 0,-0.355 0.203,-0.578 0.6,-0.673 1.318,-0.256 2.242,-0.077 2.74,0.56 1.145,1.257 2.258,2.561 3.348,3.892 1.111,1.332 1.717,2.886 1.84,4.633 0.015,0.416 -0.207,0.846 -0.698,1.28 m -22.336,-20.105 c 0.118,2.073 0.02,5.701 -0.296,10.885 2.041,-0.806 3.097,-1.222 3.154,-1.222 1.146,-0.652 1.642,-1.541 1.496,-2.66 -0.293,-2.31 -1.756,-4.644 -4.354,-7.003 m 7.895,6.654 c 0,1.083 -0.295,2.03 -0.904,2.884 -1.938,2.615 -4.811,4.211 -8.61,4.803 -1.381,0.201 -2.287,0.23 -2.732,0.085 -0.352,0 -0.59,-0.457 -0.746,-1.35 0.156,-0.048 0.33,-0.274 0.541,-0.629 0.195,-0.379 0.427,-0.509 0.65,-0.427 0.262,-1.832 0.395,-3.838 0.395,-6.03 0,-1.529 -0.092,-3.767 -0.264,-6.717 -0.182,-2.95 -0.266,-5.177 -0.266,-6.665 0,-2.249 0.141,-4.285 0.438,-6.119 0.043,-0.353 0.338,-0.682 0.836,-0.932 l 1.236,-0.63 c 0.934,0.96 1.408,2.382 1.408,4.304 0,0.504 -0.056,1.301 -0.132,2.377 -0.092,1.088 -0.143,1.901 -0.143,2.443 0,0.758 0.059,1.401 0.16,1.97 0.871,0.144 1.725,0.532 2.568,1.19 0.124,0.103 0.795,0.762 2.024,1.941 0.791,0.76 1.736,2.29 2.848,4.599 0.464,1.004 0.693,1.983 0.693,2.903 M -121.299,0 c -0.635,0.649 -1.566,0.973 -2.787,0.973 -0.639,0 -1.299,-0.151 -1.969,-0.469 -1.466,-0.668 -2.595,-1.786 -3.392,-3.325 -0.715,-1.354 -1.059,-2.892 -1.059,-4.602 0,-2.086 0.953,-4.857 2.846,-8.335 1.883,-3.471 2.832,-6.132 2.832,-7.949 0,-1.298 -0.311,-2.564 -0.92,-3.804 -0.148,-0.312 -0.445,-0.479 -0.885,-0.512 -0.441,-0.019 -0.722,-0.103 -0.836,-0.258 -0.433,-0.461 -0.662,-0.883 -0.662,-1.214 0,-0.561 0.449,-1.037 1.32,-1.398 0.25,-0.087 0.481,-0.119 0.756,-0.119 0.67,0 1.432,0.3 2.28,0.886 1.039,0.751 1.711,1.384 1.982,1.845 0.775,1.44 1.172,2.931 1.172,4.48 0,1.887 -0.678,4.181 -2.115,6.886 -2.092,4.037 -3.209,6.222 -3.319,6.542 -0.275,0.691 -0.398,1.455 -0.398,2.282 0,2.176 0.785,4.043 2.367,5.562 l 0.527,0.25 c 0.026,0 0.254,-0.057 0.672,-0.167 0.248,-0.083 0.506,-0.067 0.727,0.042 0.861,0.42 1.279,0.922 1.279,1.473 0,0.317 -0.148,0.631 -0.418,0.931 m -15.037,-18.816 c -1.213,-1.551 -2.445,-2.33 -3.74,-2.33 -0.551,0 -1.244,0.573 -2.074,1.735 -0.571,0.841 -0.864,1.863 -0.864,3.079 0,1.782 0.506,3.086 1.541,3.921 l 0.205,0.099 c 0.135,0 0.366,-0.13 0.747,-0.387 0.378,-0.252 0.689,-0.341 0.888,-0.252 0.328,0.108 0.768,0.489 1.356,1.139 0.541,0.569 0.97,0.841 1.314,0.841 l 0.399,-0.085 c 0.939,-0.387 1.503,-1.614 1.712,-3.671 0.151,-1.261 -0.345,-2.62 -1.484,-4.089 m 5.443,3.544 c 0,1.349 -0.515,2.96 -1.541,4.847 -0.586,1.066 -1.568,1.834 -2.982,2.284 -1.795,0.562 -2.883,1.02 -3.299,1.349 -0.41,0.342 -0.847,0.511 -1.32,0.511 -0.813,0 -1.688,-0.445 -2.598,-1.315 -0.781,-0.728 -1.459,-1.598 -2.017,-2.612 -1.293,-2.391 -1.914,-4.636 -1.914,-6.707 0,-1.887 0.562,-3.428 1.703,-4.602 1.693,-1.743 3.388,-2.611 5.05,-2.611 0.379,0 0.762,0.037 1.137,0.113 3.164,0.7 5.606,2.927 7.352,6.682 0.283,0.609 0.429,1.309 0.429,2.061 M -148.596,0 c -0.603,0.649 -1.543,0.973 -2.765,0.973 -0.645,0 -1.309,-0.151 -1.987,-0.469 -1.455,-0.668 -2.586,-1.786 -3.379,-3.325 -0.691,-1.354 -1.05,-2.892 -1.05,-4.602 0,-2.086 0.949,-4.857 2.818,-8.335 1.891,-3.471 2.844,-6.132 2.844,-7.949 0,-1.298 -0.303,-2.564 -0.922,-3.804 -0.145,-0.312 -0.436,-0.479 -0.865,-0.512 -0.446,-0.019 -0.723,-0.103 -0.834,-0.258 -0.453,-0.461 -0.67,-0.883 -0.67,-1.214 0,-0.561 0.427,-1.037 1.32,-1.398 0.234,-0.087 0.482,-0.119 0.738,-0.119 0.678,0 1.428,0.3 2.289,0.886 1.053,0.751 1.711,1.384 1.985,1.845 0.783,1.44 1.189,2.931 1.189,4.48 0,1.887 -0.711,4.181 -2.121,6.886 -2.109,4.037 -3.213,6.222 -3.342,6.542 -0.256,0.691 -0.394,1.455 -0.394,2.282 0,2.176 0.785,4.043 2.381,5.562 l 0.525,0.25 c 0.029,0 0.227,-0.057 0.65,-0.167 0.264,-0.083 0.524,-0.067 0.749,0.042 0.853,0.42 1.279,0.922 1.279,1.473 0,0.317 -0.156,0.631 -0.438,0.931 m -19.195,-12.825 c 0.047,0.723 0.047,1.67 0,2.831 -0.09,1.517 -0.129,2.453 -0.129,2.819 0,0.905 0.07,1.699 0.217,2.413 0.178,0.414 0.615,0.627 1.316,0.627 0.936,0 1.612,-0.237 2.049,-0.717 0.42,-0.482 0.67,-1.013 0.76,-1.598 0.035,-0.401 0,-0.844 -0.09,-1.364 -0.322,-1.586 -1.699,-3.267 -4.123,-5.011 m 9.092,-9.233 c -3.188,2.776 -4.803,4.179 -4.838,4.208 -0.465,0.35 -0.926,0.738 -1.4,1.101 -0.627,0.511 -0.926,0.945 -0.926,1.302 0,0.345 0.261,0.654 0.797,0.939 1.287,0.675 2.357,1.593 3.252,2.779 1.031,1.327 1.537,2.645 1.537,3.967 0,1.566 -0.553,3.042 -1.618,4.389 -1.169,1.466 -2.56,2.216 -4.13,2.276 -3.145,0.14 -4.856,-0.654 -5.143,-2.401 -0.443,-2.623 -0.67,-5.84 -0.67,-9.669 l 0,-4.6 c -0.035,-2.245 -0.094,-4.193 -0.213,-5.822 -0.023,-0.197 -0.105,-0.697 -0.232,-1.515 -0.104,-0.702 -0.17,-1.27 -0.17,-1.684 0,-1.45 0.639,-2.297 1.93,-2.587 0.209,-0.054 0.47,-0.015 0.785,0.134 0.301,0.151 0.484,0.21 0.541,0.21 0.379,1.379 0.648,3.238 0.783,5.574 0.254,3.09 0.396,5.01 0.494,5.738 1.256,-1.041 3.191,-2.9 5.748,-5.578 2.311,-2.394 4.262,-4.156 5.799,-5.315 1.394,0.331 2.113,0.826 2.113,1.482 l -0.14,0.381 c -0.846,1.378 -2.284,2.941 -4.299,4.691 m -16.209,19.529 c -0.797,0 -1.338,-0.342 -1.68,-1.015 -0.195,-0.429 -0.371,-1.176 -0.523,-2.275 -0.145,-1.102 -0.328,-1.837 -0.532,-2.231 -0.687,-1.413 -1.32,-3.355 -1.865,-5.836 -0.719,-3.259 -1.195,-5.255 -1.416,-5.994 -0.701,-2.178 -1.672,-3.946 -2.902,-5.27 -0.471,1.66 -0.736,2.795 -0.787,3.369 -0.092,1.162 -0.139,2.432 -0.139,3.85 0,1.327 0.078,3.471 0.229,6.461 0.123,2.78 0.154,4.891 0.123,6.325 -0.321,0.167 -0.639,0.326 -0.989,0.494 -0.34,0.152 -0.656,0.222 -0.935,0.222 -1.41,0 -2.108,-0.872 -2.108,-2.615 0,-2.029 0.008,-2.896 0.045,-2.619 -0.427,-3.235 -0.617,-5.88 -0.617,-7.936 0,-3.566 0.541,-6.687 1.66,-9.323 0.649,-1.568 1.623,-2.37 2.944,-2.401 1.496,-0.025 2.814,0.694 3.949,2.193 1.812,2.327 3.049,4.922 3.699,7.756 0.207,0.931 0.959,3.61 2.283,8.024 0.967,3.3 1.549,5.922 1.768,7.898 -0.455,0.606 -1.188,0.923 -2.207,0.923 m -12.395,2.448 c -0.654,0.471 -1.414,0.725 -2.226,0.725 -1.908,0 -3.735,-1.023 -5.502,-3.048 -3.016,-3.491 -4.522,-7.726 -4.522,-12.698 0,-0.922 0.053,-1.894 0.188,-2.865 0.328,-3.193 0.594,-5.007 0.73,-5.453 0.203,-0.614 0.518,-1.27 0.942,-1.964 0.441,-0.679 0.849,-1.352 1.25,-2 1.652,-2.554 3.179,-4.239 4.576,-5.016 0.797,-0.315 1.377,-0.499 1.75,-0.552 0.359,-0.094 0.681,0.053 0.996,0.41 0.307,0.375 0.457,0.781 0.457,1.23 0,0.457 -0.225,0.805 -0.701,1.048 -0.44,0.171 -0.869,0.37 -1.315,0.558 -1.047,0.59 -1.939,1.58 -2.681,2.957 -0.295,0.564 -0.778,1.744 -1.457,3.55 -0.819,2.197 -1.223,4.52 -1.223,7.001 0,5.253 1.631,9.542 4.926,12.867 0.304,0.34 1.168,0.627 2.533,0.885 1.068,0.204 1.598,0.675 1.598,1.432 0,0.481 -0.112,0.798 -0.319,0.933 m -11.502,-4.723 c 0,0.134 -0.062,0.355 -0.179,0.669 -0.12,0.317 -0.192,0.512 -0.217,0.637 -1.057,0.587 -1.963,0.886 -2.772,0.886 l -0.529,-0.04 c -1.422,-0.339 -2.853,-0.702 -4.252,-1.058 -1.65,-0.425 -3.027,-0.906 -4.129,-1.435 -0.949,-0.376 -1.879,-0.733 -2.826,-1.095 -0.988,-0.486 -1.5,-1.124 -1.531,-1.952 -0.033,-0.881 0.779,-1.46 2.426,-1.765 -0.19,-2.454 -0.293,-3.785 -0.36,-4.004 -0.058,-0.235 -0.306,-0.449 -0.724,-0.655 -0.418,-0.211 -0.655,-0.444 -0.676,-0.692 -0.074,-0.52 0.287,-1.035 1.094,-1.57 -0.272,-1.938 -0.272,-4.124 0,-6.579 0.089,-0.85 0.464,-1.605 1.158,-2.282 0.65,-0.67 1.404,-1.102 2.228,-1.312 2.61,-0.649 5.668,-0.916 9.227,-0.798 0.467,0.026 0.82,0.232 1.064,0.615 0.262,0.375 0.334,0.794 0.25,1.239 -0.258,1.353 -0.818,1.938 -1.611,1.771 -0.207,0 -0.418,-0.106 -0.68,-0.316 -0.261,-0.208 -0.508,-0.316 -0.732,-0.316 -3.406,-0.148 -5.797,0.26 -7.176,1.178 -0.227,0.488 -0.342,1.131 -0.342,1.951 0,1.209 0.268,2.853 0.838,4.933 0.811,0.31 1.92,0.473 3.291,0.502 1.633,0.028 2.764,0.111 3.389,0.268 0.346,-0.041 0.637,0.077 0.869,0.331 0.336,0.36 0.562,0.562 0.609,0.591 l 0.309,0.469 c 0,0.166 -0.195,0.539 -0.607,1.091 -0.584,0.338 -1.286,0.502 -2.104,0.502 -0.447,0 -1.129,-0.071 -2.061,-0.206 -0.947,-0.136 -1.638,-0.213 -2.068,-0.213 -0.625,0 -1.168,0.077 -1.627,0.255 0.121,2.529 0.295,4.151 0.569,4.894 1.078,0.425 2.671,0.92 4.787,1.473 2.109,0.567 3.709,1.067 4.783,1.483 0.203,0.136 0.312,0.313 0.312,0.55 m -25.66,-8.021 c 0.055,0.723 0.055,1.67 0,2.831 -0.078,1.517 -0.125,2.453 -0.125,2.819 0,0.905 0.074,1.699 0.219,2.413 0.176,0.414 0.605,0.627 1.303,0.627 0.961,0 1.625,-0.237 2.054,-0.717 0.432,-0.482 0.688,-1.013 0.778,-1.598 0.006,-0.401 0,-0.844 -0.09,-1.364 -0.33,-1.586 -1.713,-3.267 -4.139,-5.011 m 9.1,-9.233 c -3.207,2.776 -4.805,4.179 -4.838,4.208 -0.469,0.35 -0.942,0.738 -1.401,1.101 -0.623,0.511 -0.925,0.945 -0.925,1.302 0,0.345 0.271,0.654 0.787,0.939 1.297,0.675 2.371,1.593 3.26,2.779 1.025,1.327 1.537,2.645 1.537,3.967 0,1.566 -0.543,3.042 -1.635,4.389 -1.168,1.466 -2.545,2.216 -4.133,2.276 -3.131,0.14 -4.838,-0.654 -5.123,-2.401 -0.451,-2.623 -0.67,-5.84 -0.67,-9.669 l 0,-4.6 c -0.023,-2.245 -0.113,-4.193 -0.219,-5.822 -0.023,-0.197 -0.107,-0.697 -0.211,-1.515 -0.115,-0.702 -0.181,-1.27 -0.181,-1.684 0,-1.45 0.646,-2.297 1.922,-2.587 0.226,-0.054 0.466,-0.015 0.775,0.134 0.318,0.151 0.494,0.21 0.551,0.21 0.389,1.379 0.644,3.238 0.787,5.574 0.238,3.09 0.414,5.01 0.492,5.738 1.252,-1.041 3.162,-2.9 5.746,-5.578 2.311,-2.394 4.252,-4.156 5.803,-5.315 1.404,0.331 2.117,0.826 2.117,1.482 l -0.137,0.381 c -0.841,1.378 -2.287,2.941 -4.304,4.691 M -248.551,0 c -0.609,0.649 -1.545,0.973 -2.769,0.973 -0.653,0 -1.305,-0.151 -1.981,-0.469 -1.47,-0.668 -2.586,-1.786 -3.392,-3.325 -0.69,-1.354 -1.041,-2.892 -1.041,-4.602 0,-2.086 0.955,-4.857 2.83,-8.335 1.888,-3.471 2.836,-6.132 2.836,-7.949 0,-1.298 -0.303,-2.564 -0.926,-3.804 -0.141,-0.312 -0.443,-0.479 -0.875,-0.512 -0.449,-0.019 -0.723,-0.103 -0.842,-0.258 -0.434,-0.461 -0.662,-0.883 -0.662,-1.214 0,-0.561 0.445,-1.037 1.33,-1.398 0.221,-0.087 0.477,-0.119 0.742,-0.119 0.676,0 1.428,0.3 2.295,0.886 1.039,0.751 1.695,1.384 1.965,1.845 0.791,1.44 1.195,2.931 1.195,4.48 0,1.887 -0.705,4.181 -2.121,6.886 -2.101,4.037 -3.219,6.222 -3.334,6.542 -0.265,0.691 -0.39,1.455 -0.39,2.282 0,2.176 0.789,4.043 2.371,5.562 l 0.521,0.25 c 0.033,0 0.252,-0.057 0.668,-0.167 0.256,-0.083 0.494,-0.067 0.74,0.042 0.84,0.42 1.268,0.922 1.268,1.473 0,0.317 -0.141,0.631 -0.428,0.931 m -15.021,-18.816 c -1.203,-1.551 -2.453,-2.33 -3.754,-2.33 -0.543,0 -1.244,0.573 -2.051,1.735 -0.592,0.841 -0.871,1.863 -0.871,3.079 0,1.782 0.512,3.086 1.521,3.921 l 0.227,0.099 c 0.113,0 0.367,-0.13 0.742,-0.387 0.379,-0.252 0.688,-0.341 0.881,-0.252 0.318,0.108 0.772,0.489 1.369,1.139 0.522,0.569 0.967,0.841 1.309,0.841 l 0.402,-0.085 c 0.936,-0.387 1.502,-1.614 1.711,-3.671 0.141,-1.261 -0.348,-2.62 -1.486,-4.089 m 5.443,3.544 c 0,1.349 -0.517,2.96 -1.539,4.847 -0.588,1.066 -1.584,1.834 -2.988,2.284 -1.789,0.562 -2.885,1.02 -3.291,1.349 -0.422,0.342 -0.854,0.511 -1.338,0.511 -0.807,0 -1.682,-0.445 -2.574,-1.315 -0.778,-0.728 -1.473,-1.598 -2.03,-2.612 -1.279,-2.391 -1.925,-4.636 -1.925,-6.707 0,-1.887 0.57,-3.428 1.697,-4.602 1.722,-1.743 3.39,-2.611 5.072,-2.611 0.363,0 0.754,0.037 1.123,0.113 3.18,0.7 5.621,2.927 7.352,6.682 0.289,0.609 0.441,1.309 0.441,2.061 m -15.726,-4.725 c -0.276,0.454 -0.686,0.669 -1.274,0.669 -0.183,0 -0.455,-0.021 -0.816,-0.083 -0.362,-0.061 -0.621,-0.069 -0.766,-0.069 -0.643,-0.319 -1.685,-0.962 -3.129,-1.912 -1.312,-0.853 -2.385,-1.438 -3.207,-1.782 -0.043,2.316 0.067,5.776 0.36,10.366 0.289,4.602 0.402,8.063 0.298,10.362 -0.172,0.791 -0.816,1.182 -1.92,1.182 -0.591,0 -1.076,-0.193 -1.451,-0.544 0.11,-1.273 0.17,-2.621 0.17,-4.061 0,-2.082 -0.224,-5.481 -0.668,-10.189 -0.369,-4.42 -0.535,-7.877 -0.474,-10.351 0.029,-0.031 0.314,-0.379 0.847,-1.061 0.338,-0.497 0.717,-0.768 1.121,-0.768 l 0.551,0.141 c 1.51,0.644 3.254,1.644 5.211,3.009 3.381,2.319 5.078,3.48 5.147,3.517 0.343,0.425 0.343,0.939 0,1.574 m -29.717,15.193 c 0,0.134 -0.071,0.355 -0.176,0.669 -0.127,0.317 -0.189,0.512 -0.227,0.637 -1.048,0.587 -1.99,0.886 -2.769,0.886 l -0.522,-0.04 c -1.457,-0.339 -2.863,-0.702 -4.269,-1.058 -1.627,-0.425 -3.012,-0.906 -4.125,-1.435 -0.924,-0.376 -1.867,-0.733 -2.813,-1.095 -1,-0.486 -1.502,-1.124 -1.537,-1.952 -0.035,-0.881 0.772,-1.46 2.42,-1.765 -0.178,-2.454 -0.293,-3.785 -0.349,-4.004 -0.061,-0.235 -0.299,-0.449 -0.725,-0.655 -0.432,-0.211 -0.658,-0.444 -0.688,-0.692 -0.095,-0.52 0.268,-1.035 1.098,-1.57 -0.267,-1.938 -0.267,-4.124 0,-6.579 0.092,-0.85 0.477,-1.605 1.139,-2.282 0.679,-0.67 1.431,-1.102 2.246,-1.312 2.609,-0.649 5.676,-0.916 9.215,-0.798 0.482,0.026 0.842,0.232 1.082,0.615 0.248,0.375 0.338,0.794 0.248,1.239 -0.254,1.353 -0.805,1.938 -1.641,1.771 -0.172,0 -0.383,-0.106 -0.654,-0.316 -0.264,-0.208 -0.512,-0.316 -0.746,-0.316 -3.381,-0.148 -5.781,0.26 -7.153,1.178 -0.236,0.488 -0.351,1.131 -0.351,1.951 0,1.209 0.281,2.853 0.83,4.933 0.82,0.31 1.926,0.473 3.301,0.502 1.646,0.028 2.763,0.111 3.373,0.268 0.365,-0.041 0.648,0.077 0.877,0.331 0.351,0.36 0.558,0.562 0.631,0.591 l 0.295,0.469 c 0,0.166 -0.182,0.539 -0.612,1.091 -0.576,0.338 -1.299,0.502 -2.105,0.502 -0.444,0 -1.125,-0.071 -2.069,-0.206 -0.939,-0.136 -1.617,-0.213 -2.062,-0.213 -0.611,0 -1.149,0.077 -1.629,0.255 0.129,2.529 0.309,4.151 0.576,4.894 1.084,0.425 2.676,0.92 4.779,1.473 2.114,0.567 3.709,1.067 4.801,1.483 0.196,0.136 0.311,0.313 0.311,0.55 m -20.258,-8.986 c 0,-2.879 -1.658,-5.9 -4.953,-9.093 -0.112,5.269 -0.045,10.247 0.176,14.948 2.853,-1.349 4.421,-2.915 4.693,-4.669 0.06,-0.407 0.084,-0.802 0.084,-1.186 m 3.644,-0.76 c 0,1.725 -0.701,3.605 -2.115,5.599 -0.443,0.627 -1,1.216 -1.701,1.776 -2.701,2.134 -5.268,3.465 -7.742,3.969 -0.36,-0.023 -0.758,-0.066 -1.131,-0.125 -0.504,-0.052 -0.82,-0.254 -0.973,-0.594 l -0.082,-0.423 c 0,-0.303 0.184,-0.647 0.578,-1.006 0.602,-0.618 0.926,-0.953 0.952,-0.973 0.154,-1.518 0.216,-3.205 0.216,-5.023 0,-1.363 -0.046,-3.435 -0.164,-6.159 -0.119,-2.725 -0.181,-4.774 -0.181,-6.169 0,-1.337 0.062,-2.619 0.129,-3.792 0.111,-0.256 0.324,-0.435 0.593,-0.553 0.28,-0.103 0.537,-0.215 0.776,-0.294 0.228,-0.085 0.435,-0.117 0.625,-0.117 0.345,0 0.681,0.171 1.045,0.534 0.343,0.38 0.674,0.726 0.957,1.059 0.888,0.5 1.867,1.414 2.957,2.713 0.9,1.061 1.812,2.149 2.703,3.233 0.42,0.453 0.805,1.061 1.158,1.817 0.268,0.66 0.529,1.301 0.83,1.946 0.379,0.811 0.57,1.677 0.57,2.582"
             style="fill:#231f20;fill-opacity:1;fill-rule:nonzero;stroke:none"
             id="path3375"
             inkscape:connector-curvature="0" /></g><g
           id="g3377"
           transform="translate(578.6909,154.5293)"><path
             d="m 0,0 c -1.217,-1.539 -2.453,-2.316 -3.744,-2.316 -0.545,0 -1.248,0.56 -2.057,1.72 -0.592,0.854 -0.883,1.88 -0.883,3.088 0,1.772 0.504,3.073 1.538,3.924 l 0.22,0.08 c 0.11,0 0.362,-0.13 0.739,-0.379 0.384,-0.242 0.685,-0.327 0.88,-0.242 0.321,0.101 0.77,0.491 1.366,1.137 0.513,0.558 0.962,0.837 1.324,0.837 l 0.39,-0.078 C 0.697,7.366 1.283,6.144 1.486,4.1 1.621,2.823 1.133,1.457 0,0 m 5.441,3.56 c 0,1.336 -0.511,2.95 -1.537,4.842 -0.601,1.063 -1.591,1.827 -3.009,2.277 -1.768,0.564 -2.87,1.011 -3.278,1.349 -0.406,0.35 -0.846,0.512 -1.322,0.512 -0.82,0 -1.686,-0.431 -2.586,-1.311 -0.785,-0.734 -1.463,-1.593 -2.023,-2.618 -1.282,-2.392 -1.928,-4.631 -1.928,-6.705 0,-1.887 0.568,-3.419 1.713,-4.615 1.707,-1.743 3.383,-2.607 5.056,-2.607 0.369,0 0.754,0.042 1.141,0.119 3.154,0.708 5.602,2.937 7.336,6.675 0.297,0.616 0.437,1.303 0.437,2.082 m -17.703,15.258 c -0.617,0.662 -1.535,0.977 -2.767,0.977 -0.655,0 -1.311,-0.159 -1.987,-0.463 -1.463,-0.679 -2.605,-1.782 -3.39,-3.333 -0.69,-1.356 -1.045,-2.886 -1.045,-4.598 0,-2.087 0.945,-4.855 2.849,-8.338 1.877,-3.478 2.823,-6.133 2.823,-7.959 0,-1.291 -0.303,-2.563 -0.938,-3.804 -0.137,-0.304 -0.422,-0.477 -0.869,-0.499 -0.441,-0.026 -0.715,-0.107 -0.826,-0.254 -0.442,-0.475 -0.668,-0.879 -0.668,-1.229 0,-0.556 0.445,-1.022 1.318,-1.389 0.241,-0.089 0.496,-0.12 0.746,-0.12 0.676,0 1.442,0.285 2.309,0.882 1.041,0.752 1.693,1.381 1.963,1.856 0.783,1.428 1.176,2.937 1.176,4.482 0,1.874 -0.694,4.166 -2.098,6.877 -2.113,4.046 -3.229,6.227 -3.35,6.541 -0.25,0.698 -0.392,1.457 -0.392,2.282 0,2.175 0.804,4.039 2.379,5.553 l 0.515,0.262 c 0.035,0 0.256,-0.06 0.67,-0.173 0.27,-0.089 0.508,-0.072 0.744,0.051 0.846,0.399 1.266,0.911 1.266,1.472 0,0.309 -0.143,0.614 -0.428,0.924 m -11.55,-2.536 c -0.795,0 -1.352,-0.331 -1.67,-1.002 -0.213,-0.423 -0.397,-1.19 -0.526,-2.284 -0.15,-1.096 -0.33,-1.836 -0.537,-2.234 -0.701,-1.402 -1.326,-3.346 -1.9,-5.83 -0.696,-3.267 -1.157,-5.246 -1.387,-5.987 -0.713,-2.192 -1.68,-3.949 -2.9,-5.277 -0.469,1.674 -0.737,2.789 -0.795,3.368 -0.078,1.16 -0.129,2.447 -0.129,3.84 0,1.333 0.074,3.489 0.213,6.468 0.117,2.785 0.168,4.898 0.134,6.331 -0.314,0.169 -0.66,0.344 -0.984,0.487 -0.352,0.144 -0.654,0.227 -0.945,0.227 -1.405,0 -2.116,-0.862 -2.116,-2.616 0,-2.029 0.014,-2.906 0.053,-2.604 -0.42,-3.241 -0.627,-5.895 -0.627,-7.943 0,-3.578 0.557,-6.68 1.67,-9.33 0.647,-1.572 1.631,-2.375 2.949,-2.399 1.493,-0.035 2.805,0.701 3.952,2.196 1.812,2.33 3.054,4.912 3.703,7.759 0.201,0.927 0.955,3.604 2.273,8.01 0.959,3.3 1.541,5.93 1.754,7.908 -0.439,0.622 -1.174,0.912 -2.185,0.912 m -23.866,2.25 c -0.109,0.026 -0.377,0.097 -0.842,0.202 -0.353,0.084 -0.656,0.132 -0.923,0.132 -0.756,0 -1.194,-0.279 -1.266,-0.849 -0.943,-7.559 -1.633,-13.212 -2.068,-16.957 -1.09,1.9 -2.293,4.715 -3.612,8.397 -1.382,3.846 -2.533,6.631 -3.48,8.359 -0.951,0.752 -1.674,1.104 -2.182,1.05 -1.051,0 -1.595,-0.308 -1.631,-0.927 -0.066,-0.728 -0.369,-4.505 -0.918,-11.318 -0.349,-4.467 -0.535,-8.189 -0.535,-11.182 0,-1.709 0.045,-3.364 0.131,-4.938 0.047,-0.473 0.08,-0.943 0.096,-1.381 0.09,-0.57 0.312,-0.908 0.705,-1.026 0.109,-0.042 0.394,-0.175 0.84,-0.379 0.316,-0.164 0.574,-0.25 0.793,-0.25 0.238,0 0.445,0.106 0.65,0.296 0.524,0.312 0.783,0.87 0.748,1.682 -0.117,2.234 -0.187,4.414 -0.187,6.552 0,4.454 0.254,8.679 0.767,12.695 0.047,0.396 0.18,0.598 0.385,0.598 l 0.227,-0.242 c 2.755,-7.53 5.105,-13.046 6.982,-16.557 0.605,-1.189 1.383,-1.778 2.289,-1.778 0.459,0 0.871,0.169 1.242,0.517 0.367,0.326 0.545,0.726 0.51,1.171 -0.051,0.962 -0.094,1.931 -0.094,2.926 0,3 0.252,6.757 0.746,11.263 0.391,3.795 0.784,7.587 1.182,11.351 -0.082,0.286 -0.266,0.475 -0.555,0.593 m -17.851,-4.513 c 0,0.13 -0.059,0.362 -0.162,0.672 -0.118,0.3 -0.205,0.525 -0.231,0.627 -1.045,0.597 -1.973,0.885 -2.764,0.885 l -0.529,-0.04 c -1.433,-0.333 -2.853,-0.686 -4.254,-1.052 -1.652,-0.42 -3.025,-0.909 -4.133,-1.436 -0.933,-0.372 -1.88,-0.745 -2.814,-1.099 -0.996,-0.467 -1.516,-1.129 -1.541,-1.939 -0.033,-0.866 0.783,-1.468 2.418,-1.776 -0.162,-2.445 -0.297,-3.775 -0.356,-4.008 -0.046,-0.225 -0.291,-0.442 -0.716,-0.654 -0.416,-0.219 -0.657,-0.439 -0.688,-0.687 -0.088,-0.512 0.291,-1.043 1.098,-1.57 -0.254,-1.942 -0.254,-4.133 0,-6.588 0.092,-0.833 0.471,-1.599 1.158,-2.274 0.664,-0.681 1.41,-1.105 2.223,-1.313 2.607,-0.642 5.699,-0.914 9.228,-0.784 0.469,0.013 0.836,0.219 1.076,0.603 0.252,0.377 0.33,0.797 0.252,1.24 -0.261,1.356 -0.812,1.945 -1.631,1.784 -0.177,0 -0.394,-0.12 -0.656,-0.328 -0.267,-0.217 -0.502,-0.314 -0.74,-0.314 -3.389,-0.142 -5.789,0.258 -7.168,1.184 -0.246,0.477 -0.361,1.114 -0.361,1.939 0,1.208 0.285,2.854 0.834,4.942 0.841,0.313 1.927,0.471 3.306,0.498 1.643,0.028 2.758,0.115 3.389,0.25 0.348,-0.035 0.631,0.09 0.863,0.344 0.356,0.368 0.557,0.56 0.623,0.6 l 0.297,0.451 c 0,0.183 -0.189,0.544 -0.609,1.09 -0.578,0.349 -1.281,0.524 -2.098,0.524 -0.459,0 -1.137,-0.079 -2.068,-0.225 -0.947,-0.128 -1.629,-0.19 -2.08,-0.19 -0.61,0 -1.143,0.069 -1.623,0.24 0.127,2.54 0.322,4.164 0.576,4.891 1.08,0.421 2.678,0.92 4.797,1.484 2.105,0.55 3.697,1.058 4.793,1.479 0.191,0.133 0.291,0.322 0.291,0.55 m -18,2.263 c -0.797,0 -1.348,-0.331 -1.682,-1.002 -0.217,-0.423 -0.369,-1.19 -0.525,-2.284 -0.139,-1.096 -0.325,-1.836 -0.52,-2.234 -0.709,-1.402 -1.334,-3.346 -1.889,-5.83 -0.699,-3.267 -1.177,-5.246 -1.419,-5.987 -0.692,-2.192 -1.647,-3.949 -2.881,-5.277 -0.491,1.674 -0.741,2.789 -0.811,3.368 -0.086,1.16 -0.125,2.447 -0.125,3.84 0,1.333 0.068,3.489 0.231,6.468 0.113,2.785 0.162,4.898 0.129,6.331 -0.325,0.169 -0.645,0.344 -0.993,0.487 -0.336,0.144 -0.652,0.227 -0.937,0.227 -1.416,0 -2.119,-0.862 -2.119,-2.616 0,-2.029 0.007,-2.906 0.052,-2.604 -0.41,-3.241 -0.628,-5.895 -0.628,-7.943 0,-3.578 0.566,-6.68 1.679,-9.33 0.631,-1.572 1.617,-2.375 2.946,-2.399 1.494,-0.035 2.808,0.701 3.941,2.196 1.812,2.33 3.047,4.912 3.693,7.759 0.203,0.927 0.971,3.604 2.305,8.01 0.949,3.3 1.533,5.93 1.752,7.908 -0.455,0.622 -1.19,0.912 -2.199,0.912 m -21.09,-22.402 c -0.293,-0.335 -0.811,-0.721 -1.574,-1.159 -0.743,-0.44 -1.286,-0.842 -1.629,-1.246 -0.241,0.737 -0.354,1.557 -0.354,2.449 0,0.622 0.074,1.538 0.24,2.759 0.161,1.226 0.239,2.137 0.239,2.721 0,0.348 -0.022,0.648 -0.049,0.944 0.207,0.089 0.428,0.112 0.664,0.112 0.404,0 1.359,-0.355 2.855,-1.056 0.563,-0.639 0.834,-1.388 0.834,-2.228 0,-0.283 -0.027,-0.572 -0.084,-0.891 -0.236,-0.996 -0.619,-1.816 -1.142,-2.405 m 1.623,16.081 c -0.668,-0.915 -1.438,-1.592 -2.338,-1.977 -0.059,-0.037 -0.281,-0.197 -0.697,-0.493 -0.399,-0.29 -0.717,-0.443 -0.928,-0.443 0.041,0.899 0,2.15 -0.082,3.75 -0.107,1.742 -0.164,2.993 -0.164,3.726 0,0.517 0,1.043 0.033,1.516 l 0.391,0.079 c 0.244,0 0.539,-0.101 0.885,-0.329 0.503,-0.289 0.861,-0.472 1.107,-0.561 1.611,-0.559 2.482,-1.356 2.627,-2.395 0.107,-0.987 -0.152,-1.941 -0.834,-2.873 m 4.65,3.466 c -0.554,1.474 -2.418,3.032 -5.574,4.59 -1.414,0.676 -2.814,1.101 -4.215,1.265 -0.258,0.03 -0.83,0.121 -1.72,0.246 -0.608,0.117 -1.108,0.183 -1.499,0.183 -0.814,0 -1.55,-0.231 -2.216,-0.723 0,-0.134 -0.08,-0.32 -0.227,-0.543 -0.123,-0.22 -0.172,-0.398 -0.139,-0.506 0.45,-0.928 1.35,-1.517 2.729,-1.776 0.199,-3.596 0.125,-7.542 -0.227,-11.804 -0.38,-0.259 -0.677,-0.487 -0.904,-0.715 -0.201,-0.205 -0.334,-0.432 -0.334,-0.694 0,-0.511 0.311,-0.948 0.932,-1.346 -0.258,-1.828 -0.428,-4.151 -0.477,-6.959 -0.068,-2.335 -0.133,-4.686 -0.189,-7.047 0.396,-0.762 1.052,-1.152 2.033,-1.152 0.418,0 0.773,0.107 1.135,0.307 1.416,0.778 2.814,1.572 4.222,2.367 1.715,1.008 3.024,2.041 3.897,3.073 1.148,1.352 1.724,2.836 1.724,4.425 0,2.076 -1.212,3.89 -3.65,5.415 -0.482,0.186 -0.947,0.395 -1.463,0.613 -0.508,0.202 -0.826,0.512 -0.906,0.935 1.494,0.997 2.992,1.984 4.482,3.007 1.545,1.236 2.516,2.61 2.911,4.141 0.167,0.718 0.06,1.614 -0.325,2.698 m -25.98,4.717 c -0.569,0 -0.987,-0.184 -1.227,-0.588 -0.816,-1.274 -1.556,-2.865 -2.232,-4.806 -0.576,-1.667 -1.174,-3.34 -1.76,-5.025 -0.648,1.444 -1.307,2.871 -1.975,4.303 -0.792,1.689 -1.558,3.069 -2.279,4.135 -1.055,0.306 -1.619,0.462 -1.674,0.462 -0.349,0 -0.705,-0.118 -1.07,-0.401 -0.369,-0.267 -0.551,-0.552 -0.551,-0.854 l 0.133,-0.43 c 1.465,-2.479 3.225,-6.385 5.309,-11.728 -0.918,-2.266 -1.805,-4.518 -2.725,-6.755 -1,-2.644 -1.545,-4.994 -1.617,-7.052 -0.022,-0.416 0.236,-0.82 0.812,-1.201 0.577,-0.371 1.096,-0.541 1.588,-0.489 1,0 1.545,0.497 1.629,1.48 0.041,0.248 0.041,0.841 0,1.788 0,0.664 0.092,1.229 0.217,1.672 0.738,2.255 2.391,6.349 4.982,12.277 2.192,5.093 3.7,9.243 4.514,12.422 -0.551,0.521 -1.244,0.79 -2.074,0.79 M -150.951,0 c -1.207,-1.539 -2.434,-2.316 -3.735,-2.316 -0.558,0 -1.246,0.56 -2.048,1.72 -0.594,0.854 -0.903,1.88 -0.903,3.088 0,1.772 0.516,3.073 1.545,3.924 l 0.225,0.08 c 0.113,0 0.355,-0.13 0.744,-0.379 0.385,-0.242 0.68,-0.327 0.855,-0.242 0.352,0.101 0.807,0.491 1.383,1.137 0.53,0.558 0.973,0.837 1.326,0.837 l 0.381,-0.078 c 0.942,-0.405 1.506,-1.627 1.725,-3.671 0.139,-1.277 -0.365,-2.643 -1.498,-4.1 m 5.449,3.56 c 0,1.336 -0.512,2.95 -1.547,4.842 -0.578,1.063 -1.564,1.827 -2.971,2.277 -1.791,0.564 -2.892,1.011 -3.298,1.349 -0.422,0.35 -0.858,0.512 -1.311,0.512 -0.826,0 -1.703,-0.431 -2.6,-1.311 -0.791,-0.734 -1.482,-1.593 -2.031,-2.618 -1.273,-2.392 -1.92,-4.631 -1.92,-6.705 0,-1.887 0.569,-3.419 1.707,-4.615 1.713,-1.743 3.381,-2.607 5.059,-2.607 0.373,0 0.756,0.042 1.137,0.119 3.166,0.708 5.617,2.937 7.332,6.675 0.295,0.616 0.443,1.303 0.443,2.082 m -20.213,1.467 c 0,-2.873 -1.633,-5.891 -4.959,-9.086 -0.084,5.272 -0.021,10.246 0.174,14.952 2.867,-1.351 4.439,-2.909 4.705,-4.687 0.063,-0.394 0.08,-0.787 0.08,-1.179 m 3.654,-0.763 c 0,1.747 -0.699,3.614 -2.119,5.615 -0.425,0.616 -0.996,1.204 -1.701,1.774 -2.685,2.138 -5.281,3.458 -7.736,3.96 -0.373,-0.027 -0.768,-0.07 -1.131,-0.125 -0.514,-0.053 -0.826,-0.259 -0.977,-0.597 l -0.086,-0.409 c 0,-0.307 0.196,-0.649 0.557,-1.013 0.637,-0.635 0.955,-0.942 0.981,-0.977 0.148,-1.519 0.228,-3.193 0.228,-5.03 0,-1.372 -0.072,-3.436 -0.189,-6.157 -0.118,-2.726 -0.174,-4.783 -0.174,-6.153 0,-1.351 0.049,-2.619 0.135,-3.806 0.117,-0.25 0.316,-0.44 0.591,-0.545 0.274,-0.107 0.534,-0.226 0.778,-0.3 0.224,-0.081 0.425,-0.123 0.603,-0.123 0.36,0 0.703,0.185 1.057,0.558 0.346,0.356 0.68,0.711 0.967,1.039 0.877,0.514 1.855,1.408 2.947,2.709 0.914,1.064 1.828,2.159 2.725,3.26 0.4,0.446 0.785,1.043 1.13,1.808 0.266,0.639 0.555,1.284 0.834,1.932 0.399,0.82 0.58,1.678 0.58,2.58 m -24.082,-1.943 c 0.651,2.334 1.405,4.681 2.291,7.013 0.254,-1.133 0.543,-2.262 0.834,-3.382 0.299,-1.297 0.493,-2.459 0.567,-3.513 -1.988,0 -3.215,-0.037 -3.692,-0.118 m 5.536,8.477 c -0.137,1.161 -0.295,2.315 -0.477,3.464 -0.219,1.351 -0.762,2.363 -1.584,3.05 -0.328,0.244 -0.682,0.369 -1.098,0.369 -0.554,0 -0.931,-0.198 -1.086,-0.585 -0.779,-1.778 -1.634,-4.335 -2.603,-7.639 -1.143,-3.827 -1.973,-6.457 -2.504,-7.853 -0.055,-0.195 -0.326,-0.343 -0.818,-0.439 -0.479,-0.105 -0.789,-0.23 -0.924,-0.391 l -0.19,-0.426 c 0,-0.182 0.209,-0.413 0.618,-0.726 0.418,-0.315 0.599,-0.593 0.554,-0.845 -0.076,-0.868 -0.554,-2.34 -1.429,-4.382 -0.731,-1.804 -1.069,-3.234 -0.969,-4.311 0.041,-0.543 0.568,-0.955 1.533,-1.268 0.766,-0.224 1.256,-0.084 1.494,0.416 0.471,1.083 0.947,2.647 1.451,4.692 0.528,2.218 0.961,3.772 1.278,4.642 0.646,0.538 1.529,0.872 2.664,1.011 1.002,0.083 2.004,0.175 3.006,0.254 0.55,-1.427 1.029,-3.226 1.449,-5.362 0.377,-1.972 1.277,-3.073 2.722,-3.324 0.172,-0.037 0.502,0.155 1.004,0.584 0.495,0.413 0.75,0.912 0.75,1.48 0,0.336 -0.086,0.737 -0.269,1.186 -1.592,4.299 -3.11,9.764 -4.572,16.403 m -16.106,-5.771 c 0,-2.873 -1.664,-5.891 -4.974,-9.086 -0.073,5.272 -0.028,10.246 0.173,14.952 2.86,-1.351 4.44,-2.909 4.707,-4.687 0.053,-0.394 0.094,-0.787 0.094,-1.179 m 3.637,-0.763 c 0,1.747 -0.697,3.614 -2.104,5.615 -0.447,0.616 -1.015,1.204 -1.718,1.774 -2.684,2.138 -5.266,3.458 -7.737,3.96 -0.381,-0.027 -0.756,-0.07 -1.14,-0.125 -0.491,-0.053 -0.819,-0.259 -0.961,-0.597 l -0.078,-0.409 c 0,-0.307 0.168,-0.649 0.554,-1.013 0.619,-0.635 0.961,-0.942 0.961,-0.977 0.158,-1.519 0.223,-3.193 0.223,-5.03 0,-1.372 -0.047,-3.436 -0.172,-6.157 -0.117,-2.726 -0.178,-4.783 -0.178,-6.153 0,-1.351 0.041,-2.619 0.127,-3.806 0.131,-0.25 0.328,-0.44 0.594,-0.545 0.287,-0.107 0.543,-0.226 0.773,-0.3 0.243,-0.081 0.438,-0.123 0.62,-0.123 0.351,0 0.703,0.185 1.044,0.558 0.362,0.356 0.686,0.711 0.977,1.039 0.881,0.514 1.857,1.408 2.943,2.709 0.901,1.064 1.813,2.159 2.721,3.26 0.416,0.446 0.791,1.043 1.147,1.808 0.271,0.639 0.539,1.284 0.841,1.932 0.373,0.82 0.563,1.678 0.563,2.58 m -15.028,9.633 c -0.025,0.052 -0.025,0.242 0,0.585 0,0.272 -0.041,0.409 -0.128,0.409 l -0.268,-0.123 c -0.561,0.312 -1.113,0.461 -1.66,0.461 -0.715,0 -1.211,-0.263 -1.498,-0.788 0.051,-0.712 0.086,-1.445 0.086,-2.157 0,-1.887 -0.25,-4.732 -0.715,-8.524 -0.494,-3.796 -0.731,-6.659 -0.731,-8.574 0,-1.091 0.059,-2.123 0.164,-3.128 0.112,-0.972 0.813,-1.495 2.067,-1.557 0.885,-0.02 1.451,0.352 1.726,1.146 -0.048,0.699 -0.048,1.427 -0.048,2.154 0,1.97 0.209,4.876 0.609,8.73 0.414,3.854 0.629,6.744 0.629,8.658 0,0.864 -0.041,1.699 -0.094,2.528 l -0.139,0.18 z m -7.451,2.385 c -0.8,0 -1.367,-0.331 -1.695,-1.002 -0.187,-0.423 -0.377,-1.19 -0.516,-2.284 -0.152,-1.096 -0.318,-1.836 -0.519,-2.234 -0.709,-1.402 -1.344,-3.346 -1.904,-5.83 -0.711,-3.267 -1.17,-5.246 -1.381,-5.987 -0.715,-2.192 -1.68,-3.949 -2.924,-5.277 -0.469,1.674 -0.735,2.789 -0.785,3.368 -0.094,1.16 -0.127,2.447 -0.127,3.84 0,1.333 0.072,3.489 0.22,6.468 0.12,2.785 0.155,4.898 0.127,6.331 -0.322,0.169 -0.65,0.344 -0.986,0.487 -0.338,0.144 -0.66,0.227 -0.945,0.227 -1.416,0 -2.104,-0.862 -2.104,-2.616 0,-2.029 0,-2.906 0.045,-2.604 -0.422,-3.241 -0.621,-5.895 -0.621,-7.943 0,-3.578 0.543,-6.68 1.662,-9.33 0.653,-1.572 1.625,-2.375 2.949,-2.399 1.491,-0.035 2.805,0.701 3.959,2.196 1.807,2.33 3.039,4.912 3.692,7.759 0.195,0.927 0.955,3.604 2.287,8.01 0.961,3.3 1.545,5.93 1.742,7.908 -0.433,0.622 -1.164,0.912 -2.176,0.912 m -12.404,2.452 c -0.67,0.482 -1.426,0.723 -2.236,0.723 -1.903,0 -3.731,-1.012 -5.494,-3.035 -3.026,-3.503 -4.516,-7.732 -4.516,-12.697 0,-0.944 0.057,-1.906 0.156,-2.884 0.369,-3.163 0.612,-4.986 0.766,-5.445 0.195,-0.61 0.51,-1.268 0.939,-1.958 0.434,-0.687 0.838,-1.363 1.244,-2.006 1.653,-2.551 3.174,-4.227 4.565,-5.016 0.797,-0.311 1.39,-0.492 1.771,-0.546 0.35,-0.094 0.68,0.054 0.977,0.421 0.303,0.364 0.471,0.771 0.471,1.22 0,0.452 -0.231,0.813 -0.709,1.061 -0.446,0.16 -0.866,0.333 -1.315,0.548 -1.047,0.585 -1.955,1.574 -2.678,2.938 -0.293,0.579 -0.789,1.755 -1.455,3.558 -0.806,2.193 -1.22,4.521 -1.22,7.007 0,5.255 1.629,9.544 4.908,12.865 0.336,0.342 1.174,0.631 2.551,0.883 1.062,0.204 1.597,0.679 1.597,1.445 0,0.465 -0.113,0.779 -0.322,0.918 M -248.357,-1.18 c -0.254,0.445 -0.676,0.667 -1.27,0.667 -0.172,0 -0.455,-0.02 -0.816,-0.083 -0.366,-0.062 -0.618,-0.079 -0.768,-0.079 -0.644,-0.303 -1.68,-0.935 -3.117,-1.897 -1.315,-0.848 -2.381,-1.433 -3.205,-1.764 -0.071,2.293 0.066,5.747 0.361,10.347 0.279,4.597 0.373,8.047 0.293,10.36 -0.18,0.794 -0.807,1.185 -1.92,1.185 -0.601,0 -1.068,-0.183 -1.457,-0.545 0.121,-1.273 0.172,-2.63 0.172,-4.057 0,-2.097 -0.227,-5.492 -0.654,-10.187 -0.399,-4.442 -0.551,-7.881 -0.498,-10.357 0.056,-0.027 0.328,-0.389 0.855,-1.057 0.346,-0.511 0.721,-0.778 1.119,-0.778 l 0.541,0.136 c 1.53,0.66 3.262,1.672 5.225,3.033 3.367,2.291 5.08,3.478 5.139,3.507 0.353,0.427 0.353,0.945 0,1.569 m -12.469,15.199 c 0,0.13 -0.057,0.362 -0.172,0.672 -0.139,0.3 -0.182,0.525 -0.238,0.627 -1.045,0.597 -1.965,0.885 -2.754,0.885 l -0.533,-0.04 c -1.42,-0.333 -2.862,-0.686 -4.252,-1.052 -1.637,-0.42 -3.018,-0.909 -4.133,-1.436 -0.947,-0.372 -1.875,-0.745 -2.805,-1.099 -1.01,-0.467 -1.521,-1.129 -1.539,-1.939 -0.039,-0.866 0.758,-1.468 2.404,-1.776 -0.17,-2.445 -0.293,-3.775 -0.334,-4.008 -0.076,-0.225 -0.318,-0.442 -0.72,-0.654 -0.446,-0.219 -0.676,-0.439 -0.711,-0.687 -0.076,-0.512 0.291,-1.043 1.113,-1.57 -0.277,-1.942 -0.277,-4.133 0,-6.588 0.076,-0.833 0.471,-1.599 1.133,-2.274 0.68,-0.681 1.441,-1.105 2.258,-1.313 2.599,-0.642 5.672,-0.914 9.211,-0.784 0.476,0.013 0.83,0.219 1.082,0.603 0.244,0.377 0.326,0.797 0.244,1.24 -0.268,1.356 -0.815,1.945 -1.629,1.784 -0.174,0 -0.391,-0.12 -0.656,-0.328 -0.27,-0.217 -0.51,-0.314 -0.756,-0.314 -3.387,-0.142 -5.772,0.258 -7.151,1.184 -0.24,0.477 -0.345,1.114 -0.345,1.939 0,1.208 0.263,2.854 0.822,4.942 0.816,0.313 1.918,0.471 3.293,0.498 1.64,0.028 2.764,0.115 3.381,0.25 0.355,-0.035 0.642,0.09 0.89,0.344 0.348,0.368 0.553,0.56 0.608,0.6 l 0.299,0.451 c 0,0.183 -0.202,0.544 -0.61,1.09 -0.58,0.349 -1.287,0.524 -2.107,0.524 -0.43,0 -1.133,-0.079 -2.063,-0.225 -0.937,-0.128 -1.627,-0.19 -2.058,-0.19 -0.619,0 -1.16,0.069 -1.633,0.24 0.119,2.54 0.324,4.164 0.56,4.891 1.1,0.421 2.692,0.92 4.79,1.484 2.13,0.55 3.712,1.058 4.8,1.479 0.2,0.133 0.311,0.322 0.311,0.55 M -294.803,6 c 0.061,0.725 0.061,1.672 0,2.821 -0.082,1.521 -0.131,2.451 -0.131,2.832 0,0.887 0.077,1.697 0.225,2.397 0.176,0.432 0.609,0.641 1.313,0.641 0.945,0 1.617,-0.25 2.042,-0.724 0.418,-0.475 0.67,-1.013 0.768,-1.589 0.031,-0.4 0,-0.857 -0.098,-1.368 -0.306,-1.6 -1.685,-3.272 -4.119,-5.01 m 9.104,-9.247 c -3.199,2.778 -4.826,4.182 -4.844,4.221 -0.463,0.368 -0.932,0.729 -1.406,1.093 -0.61,0.51 -0.916,0.933 -0.916,1.314 0,0.344 0.271,0.641 0.787,0.924 1.291,0.674 2.375,1.605 3.25,2.784 1.037,1.322 1.539,2.648 1.539,3.967 0,1.569 -0.549,3.034 -1.633,4.395 -1.162,1.464 -2.547,2.222 -4.121,2.272 -3.143,0.139 -4.848,-0.664 -5.143,-2.405 -0.431,-2.611 -0.652,-5.853 -0.652,-9.657 l 0,-4.601 c -0.035,-2.257 -0.107,-4.188 -0.219,-5.829 -0.025,-0.191 -0.117,-0.695 -0.214,-1.524 -0.124,-0.686 -0.186,-1.251 -0.186,-1.686 0,-1.446 0.639,-2.294 1.924,-2.578 0.213,-0.054 0.48,-0.008 0.769,0.133 0.313,0.151 0.493,0.208 0.553,0.208 0.393,1.385 0.639,3.248 0.791,5.57 0.244,3.107 0.408,5.011 0.486,5.743 1.268,-1.045 3.182,-2.901 5.764,-5.582 2.303,-2.376 4.236,-4.162 5.801,-5.317 1.39,0.349 2.09,0.84 2.09,1.495 l -0.125,0.365 c -0.834,1.389 -2.28,2.955 -4.295,4.695 M -305.398,0 c -1.192,-1.539 -2.436,-2.316 -3.721,-2.316 -0.551,0 -1.238,0.56 -2.07,1.72 -0.582,0.854 -0.877,1.88 -0.877,3.088 0,1.772 0.513,3.073 1.543,3.924 l 0.211,0.08 c 0.126,0 0.375,-0.13 0.748,-0.379 0.378,-0.242 0.669,-0.327 0.878,-0.242 0.315,0.101 0.774,0.491 1.379,1.137 0.516,0.558 0.959,0.837 1.317,0.837 l 0.383,-0.078 c 0.939,-0.405 1.5,-1.627 1.707,-3.671 0.16,-1.277 -0.35,-2.643 -1.498,-4.1 m 5.459,3.56 c 0,1.336 -0.51,2.95 -1.532,4.842 -0.605,1.063 -1.591,1.827 -2.99,2.277 -1.789,0.564 -2.877,1.011 -3.297,1.349 -0.412,0.35 -0.849,0.512 -1.314,0.512 -0.824,0 -1.676,-0.431 -2.588,-1.311 -0.811,-0.734 -1.477,-1.593 -2.033,-2.618 -1.287,-2.392 -1.928,-4.631 -1.928,-6.705 0,-1.887 0.574,-3.419 1.703,-4.615 1.703,-1.743 3.395,-2.607 5.064,-2.607 0.385,0 0.756,0.042 1.143,0.119 3.158,0.708 5.611,2.937 7.336,6.675 0.283,0.616 0.436,1.303 0.436,2.082 m -24.51,-0.348 c 0.117,2.07 0.013,5.708 -0.315,10.878 2.057,-0.809 3.11,-1.21 3.176,-1.21 1.125,-0.656 1.635,-1.532 1.486,-2.674 -0.3,-2.303 -1.746,-4.641 -4.347,-6.994 m 7.912,6.667 c 0,1.06 -0.313,2.021 -0.94,2.871 -1.916,2.62 -4.783,4.219 -8.597,4.806 -1.381,0.215 -2.278,0.237 -2.723,0.079 -0.346,0 -0.619,-0.446 -0.746,-1.353 0.127,-0.042 0.314,-0.261 0.514,-0.627 0.218,-0.356 0.433,-0.509 0.677,-0.426 0.25,-1.827 0.383,-3.828 0.383,-6.031 0,-1.51 -0.092,-3.754 -0.26,-6.706 -0.181,-2.961 -0.267,-5.171 -0.267,-6.666 0,-2.254 0.152,-4.291 0.435,-6.121 0.059,-0.366 0.338,-0.675 0.838,-0.943 l 1.227,-0.622 c 0.93,0.962 1.418,2.394 1.418,4.316 0,0.506 -0.043,1.293 -0.133,2.371 -0.103,1.093 -0.129,1.902 -0.129,2.431 0,0.758 0.053,1.419 0.172,1.977 0.84,0.14 1.688,0.541 2.563,1.202 0.101,0.099 0.777,0.743 2.003,1.925 0.795,0.763 1.741,2.293 2.856,4.605 0.463,1.017 0.709,1.983 0.709,2.912"
             style="fill:#231f20;fill-opacity:1;fill-rule:nonzero;stroke:none"
             id="path3379"
             inkscape:connector-curvature="0" /></g><g
           id="g3381"
           transform="translate(319.1187,60.2734)"><path
             d="M 0,0 13.465,-13.473 25.477,-1.461 24.018,0 25.477,1.447 13.465,13.462 0,0 Z"
             style="fill:#ef2e32;fill-opacity:1;fill-rule:nonzero;stroke:none"
             id="path3383"
             inkscape:connector-curvature="0" /></g><g
           id="g3385"
           transform="translate(344.5952,61.7207)"><path
             d="M 0,0 1.455,-1.447 0,-2.908 12.002,-14.92 24.018,-2.908 22.562,-1.447 24.018,0 12.002,12.015 0,0 Z"
             style="fill:#37ab9c;fill-opacity:1;fill-rule:nonzero;stroke:none"
             id="path3387"
             inkscape:connector-curvature="0" /></g><g
           id="g3389"
           transform="translate(343.1362,60.2734)"><path
             d="M 0,0 1.459,-1.461 2.914,0 1.459,1.447 0,0 Z"
             style="fill:#573c3e;fill-opacity:1;fill-rule:nonzero;stroke:none"
             id="path3391"
             inkscape:connector-curvature="0" /></g><g
           id="g3393"
           transform="translate(368.6128,61.7207)"><path
             d="M 0,0 1.447,-1.447 0,-2.908 12.002,-14.92 24.004,-2.921 22.541,-1.447 24.004,0.013 12.002,12.015 0,0 Z"
             style="fill:#782f9a;fill-opacity:1;fill-rule:nonzero;stroke:none"
             id="path3395"
             inkscape:connector-curvature="0" /></g><g
           id="g3397"
           transform="translate(367.1577,60.2734)"><path
             d="M 0,0 1.455,-1.461 2.91,0 1.455,1.447 0,0 Z"
             style="fill:#3d3c6e;fill-opacity:1;fill-rule:nonzero;stroke:none"
             id="path3399"
             inkscape:connector-curvature="0" /></g><g
           id="g3401"
           transform="translate(488.6851,61.7334)"><path
             d="M 0,0 1.471,-1.46 0,-2.921 12.023,-14.939 25.477,-1.46 12.023,12.002 0,0 Z"
             style="fill:#176fc1;fill-opacity:1;fill-rule:nonzero;stroke:none"
             id="path3403"
             inkscape:connector-curvature="0" /></g><g
           id="g3405"
           transform="translate(416.6519,61.7207)"><path
             d="M 0,0 1.443,-1.447 0,-2.908 11.994,-14.92 24.002,-2.908 22.543,-1.447 24.002,0 11.994,12.008 0,0 Z"
             style="fill:#ec008c;fill-opacity:1;fill-rule:nonzero;stroke:none"
             id="path3407"
             inkscape:connector-curvature="0" /></g><g
           id="g3409"
           transform="translate(440.6538,61.7207)"><path
             d="M 0,0 1.461,-1.447 0,-2.908 12.008,-14.92 24.014,-2.908 22.561,-1.447 24.014,0 12.008,12.008 0,0 Z"
             style="fill:#66c430;fill-opacity:1;fill-rule:nonzero;stroke:none"
             id="path3411"
             inkscape:connector-curvature="0" /></g><g
           id="g3413"
           transform="translate(439.1948,60.2734)"><path
             d="M 0,0 1.459,-1.461 2.92,0 1.459,1.447 0,0 Z"
             style="fill:#7f2c31;fill-opacity:1;fill-rule:nonzero;stroke:none"
             id="path3415"
             inkscape:connector-curvature="0" /></g><g
           id="g3417"
           transform="translate(464.6675,61.7207)"><path
             d="M 0,0 1.453,-1.447 0,-2.908 12.002,-14.92 24.018,-2.908 22.562,-1.447 24.018,0.013 12.002,12.008 0,0 Z"
             style="fill:#ad1827;fill-opacity:1;fill-rule:nonzero;stroke:none"
             id="path3419"
             inkscape:connector-curvature="0" /></g><g
           id="g3421"
           transform="translate(487.23,60.2734)"><path
             d="M 0,0 1.455,-1.461 2.918,0 1.455,1.46 0,0 Z"
             style="fill:#2b2b35;fill-opacity:1;fill-rule:nonzero;stroke:none"
             id="path3423"
             inkscape:connector-curvature="0" /></g><g
           id="g3425"
           transform="translate(463.2144,60.2734)"><path
             d="M 0,0 1.453,-1.461 2.906,0 1.453,1.447 0,0 Z"
             style="fill:#5f2428;fill-opacity:1;fill-rule:nonzero;stroke:none"
             id="path3427"
             inkscape:connector-curvature="0" /></g><g
           id="g3429"
           transform="translate(392.6167,61.7334)"><path
             d="M 0,0 1.469,-1.46 0,-2.934 12.02,-14.939 24.035,-2.921 22.572,-1.46 24.035,-0.013 12.02,11.995 0,0 Z"
             style="fill:#a6d71c;fill-opacity:1;fill-rule:nonzero;stroke:none"
             id="path3431"
             inkscape:connector-curvature="0" /></g><g
           id="g3433"
           transform="translate(391.1538,60.2734)"><path
             d="M 0,0 1.463,-1.474 2.932,0 1.463,1.46 0,0 Z"
             style="fill:#623d34;fill-opacity:1;fill-rule:nonzero;stroke:none"
             id="path3435"
             inkscape:connector-curvature="0" /></g><g
           id="g3437"
           transform="translate(415.189,60.2734)"><path
             d="M 0,0 1.463,-1.461 2.906,0 1.463,1.447 0,0 Z"
             style="fill:#ad252b;fill-opacity:1;fill-rule:nonzero;stroke:none"
             id="path3439"
             inkscape:connector-curvature="0" /></g><g
           id="g3441"><g
             id="g3443" /><g
             id="g3449"><g
               clip-path="url(#clipPath3445)"
               id="g3451"><g
                 transform="translate(222.8999,111.6084)"
                 id="g3453"><path
                   d="m 0,0 c 0,-61.453 -49.805,-111.289 -111.285,-111.289 -61.475,0 -111.295,49.836 -111.295,111.289 0,61.453 49.82,111.291 111.295,111.291 C -49.805,111.291 0,61.453 0,0"
                   style="fill:#ffffff;fill-opacity:1;fill-rule:nonzero;stroke:none"
                   id="path3455"
                   inkscape:connector-curvature="0" /></g><g
                 transform="translate(222.8999,111.6084)"
                 id="g3457"><path
                   d="m 0,0 c 0,-61.453 -49.805,-111.289 -111.285,-111.289 -61.475,0 -111.295,49.836 -111.295,111.289 0,61.453 49.82,111.291 111.295,111.291 C -49.805,111.291 0,61.453 0,0 Z"
                   style="fill:none;stroke:#4f4c4d;stroke-width:0.639;stroke-linecap:butt;stroke-linejoin:miter;stroke-miterlimit:4;stroke-dasharray:none;stroke-opacity:1"
                   id="path3459"
                   inkscape:connector-curvature="0" /></g><g
                 transform="translate(196.144,111.3916)"
                 id="g3461"><path
                   d="m 0,0 c 0,-46.586 -37.797,-84.37 -84.389,-84.37 -46.615,0 -84.388,37.784 -84.388,84.37 0,46.617 37.773,84.4 84.388,84.4 C -37.797,84.4 0,46.617 0,0 Z"
                   style="fill:none;stroke:#4f4c4d;stroke-width:0.639;stroke-linecap:butt;stroke-linejoin:miter;stroke-miterlimit:4;stroke-dasharray:none;stroke-opacity:1"
                   id="path3463"
                   inkscape:connector-curvature="0" /></g><g
                 transform="translate(80.1421,39.1035)"
                 id="g3465"><path
                   d="M 0,0 C 0.264,0.695 0.887,1.443 1.865,2.222 2.736,2.909 3.27,3.402 3.541,3.69 3.92,4.158 4.09,4.651 4.09,5.191 4.09,5.646 4.01,6.009 3.775,6.299 3.561,6.582 3.25,6.749 2.844,6.749 2.273,6.749 1.891,6.513 1.686,6.04 1.568,5.77 1.502,5.35 1.484,4.756 l -1.822,0 c 0.029,0.901 0.192,1.624 0.44,2.176 0.478,1.045 1.382,1.563 2.634,1.563 1,0 1.819,-0.297 2.397,-0.931 C 5.725,6.95 6.018,6.149 6.018,5.135 6.018,4.352 5.816,3.646 5.414,3.059 5.123,2.636 4.672,2.21 4.053,1.695 L 3.303,1.129 C 2.844,0.739 2.516,0.481 2.34,0.318 2.178,0.158 2.023,-0.033 1.914,-0.241 l 4.133,0 0,-1.822 -6.492,0 C -0.432,-1.322 -0.275,-0.646 0,0"
                   style="fill:#4f4c4d;fill-opacity:1;fill-rule:nonzero;stroke:none"
                   id="path3467"
                   inkscape:connector-curvature="0" /></g><g
                 transform="translate(91.7456,44.9092)"
                 id="g3469"><path
                   d="m 0,0 c 0,0.168 -0.066,0.35 -0.178,0.574 -0.201,0.321 -0.488,0.477 -0.894,0.477 -0.617,0 -1.055,-0.368 -1.301,-1.141 -0.137,-0.408 -0.244,-1.035 -0.301,-1.855 0.26,0.318 0.512,0.535 0.809,0.654 0.306,0.166 0.654,0.237 1.066,0.237 0.822,0 1.51,-0.321 2.049,-0.962 0.543,-0.63 0.805,-1.428 0.805,-2.429 0,-0.971 -0.256,-1.846 -0.787,-2.591 -0.543,-0.741 -1.342,-1.131 -2.448,-1.131 -1.199,0 -2.08,0.564 -2.633,1.673 -0.457,0.859 -0.677,1.998 -0.677,3.348 0,0.797 0.021,1.469 0.123,1.973 0.097,0.888 0.301,1.637 0.607,2.224 0.287,0.514 0.621,0.925 1.071,1.228 0.435,0.313 0.949,0.465 1.544,0.465 0.897,0 1.584,-0.244 2.1,-0.739 C 1.469,1.496 1.793,0.818 1.865,0 L 0,0 Z m -2.205,-5.942 c 0.268,-0.361 0.625,-0.532 1.033,-0.532 0.44,0 0.752,0.171 0.981,0.513 0.24,0.352 0.355,0.799 0.355,1.353 0,0.599 -0.141,1.09 -0.4,1.393 -0.256,0.344 -0.6,0.518 -0.983,0.518 -0.314,0 -0.617,-0.122 -0.832,-0.335 -0.363,-0.31 -0.566,-0.816 -0.566,-1.509 0,-0.582 0.146,-1.05 0.412,-1.401"
                   style="fill:#4f4c4d;fill-opacity:1;fill-rule:nonzero;stroke:none"
                   id="path3471"
                   inkscape:connector-curvature="0" /></g><path
                 d="m 94.707,40.199 3.633,0 0,1.95 -3.633,0 0,-1.95 z"
                 style="fill:#4f4c4d;fill-opacity:1;fill-rule:nonzero;stroke:none"
                 id="path3473"
                 inkscape:connector-curvature="0" /><path
                 d="m 99.845,37.04 1.988,0 0,10.678 -1.988,0 0,-10.678 z"
                 style="fill:#4f4c4d;fill-opacity:1;fill-rule:nonzero;stroke:none"
                 id="path3475"
                 inkscape:connector-curvature="0" /><path
                 d="m 103.687,37.04 1.986,0 0,10.678 -1.986,0 0,-10.678 z"
                 style="fill:#4f4c4d;fill-opacity:1;fill-rule:nonzero;stroke:none"
                 id="path3477"
                 inkscape:connector-curvature="0" /><path
                 d="m 107.533,37.04 2.002,0 0,10.678 -2.002,0 0,-10.678 z"
                 style="fill:#4f4c4d;fill-opacity:1;fill-rule:nonzero;stroke:none"
                 id="path3479"
                 inkscape:connector-curvature="0" /><path
                 d="m 110.828,40.199 3.615,0 0,1.95 -3.615,0 0,-1.95 z"
                 style="fill:#4f4c4d;fill-opacity:1;fill-rule:nonzero;stroke:none"
                 id="path3481"
                 inkscape:connector-curvature="0" /><g
                 transform="translate(116.0132,44.3115)"
                 id="g3483"><path
                   d="m 0,0 0,1.396 c 0.592,0.042 1.002,0.074 1.232,0.145 0.375,0.094 0.682,0.254 0.913,0.52 0.166,0.209 0.279,0.45 0.367,0.758 0.043,0.192 0.072,0.325 0.072,0.427 l 1.559,0 0,-10.517 -1.911,0 L 2.232,0 0,0 Z"
                   style="fill:#4f4c4d;fill-opacity:1;fill-rule:nonzero;stroke:none"
                   id="path3485"
                   inkscape:connector-curvature="0" /></g><g
                 transform="translate(123.9194,46.5498)"
                 id="g3487"><path
                   d="m 0,0 c 0.586,0.706 1.332,1.049 2.279,1.049 1.426,0 2.432,-0.714 2.959,-2.108 0.303,-0.82 0.455,-1.873 0.455,-3.166 C 5.693,-5.488 5.541,-6.54 5.238,-7.4 4.67,-9.008 3.682,-9.81 2.176,-9.81 c -0.711,0 -1.367,0.221 -1.906,0.692 -0.559,0.471 -0.891,1.153 -0.989,2.026 l 1.86,0 c 0.046,-0.308 0.166,-0.552 0.357,-0.762 0.18,-0.177 0.436,-0.281 0.754,-0.281 0.617,0 1.057,0.376 1.297,1.13 0.148,0.421 0.232,1.019 0.232,1.812 -0.148,-0.233 -0.308,-0.42 -0.51,-0.558 -0.347,-0.211 -0.775,-0.335 -1.279,-0.335 -0.748,0 -1.406,0.304 -1.992,0.861 -0.58,0.6 -0.861,1.412 -0.861,2.501 0,1.126 0.281,2.027 0.861,2.724 m 3.1,-4.147 c 0.437,0.285 0.656,0.805 0.656,1.548 0,0.573 -0.123,1.049 -0.391,1.391 -0.23,0.344 -0.584,0.521 -0.998,0.521 -0.312,0 -0.59,-0.09 -0.83,-0.302 -0.35,-0.302 -0.523,-0.812 -0.523,-1.551 0,-0.616 0.107,-1.092 0.326,-1.41 0.238,-0.294 0.594,-0.45 1.051,-0.45 0.261,0 0.507,0.082 0.709,0.253"
                   style="fill:#4f4c4d;fill-opacity:1;fill-rule:nonzero;stroke:none"
                   id="path3489"
                   inkscape:connector-curvature="0" /></g><g
                 transform="translate(131.0815,39.1035)"
                 id="g3491"><path
                   d="m 0,0 c 0.238,0.695 0.881,1.443 1.873,2.222 0.854,0.687 1.408,1.18 1.633,1.468 0.422,0.468 0.576,0.961 0.576,1.501 0,0.455 -0.09,0.818 -0.32,1.108 C 3.549,6.582 3.213,6.749 2.832,6.749 2.271,6.749 1.885,6.513 1.682,6.04 1.553,5.77 1.494,5.35 1.465,4.756 l -1.809,0 c 0.035,0.901 0.184,1.624 0.451,2.176 0.489,1.045 1.358,1.563 2.62,1.563 1.011,0 1.808,-0.297 2.398,-0.931 C 5.727,6.95 6.018,6.149 6.018,5.135 6.018,4.352 5.807,3.646 5.396,3.059 5.107,2.636 4.65,2.21 4.049,1.695 L 3.281,1.129 C 2.832,0.739 2.508,0.481 2.344,0.318 2.15,0.158 2.021,-0.033 1.902,-0.241 l 4.116,0 0,-1.822 -6.471,0 C -0.439,-1.322 -0.295,-0.646 0,0"
                   style="fill:#4f4c4d;fill-opacity:1;fill-rule:nonzero;stroke:none"
                   id="path3493"
                   inkscape:connector-curvature="0" /></g><g
                 transform="translate(144.7983,45.7813)"
                 id="g3495"><path
                   d="M 0,0 C -0.252,-0.29 -0.65,-0.844 -1.152,-1.609 -1.646,-2.409 -2.055,-3.2 -2.406,-4.042 -2.674,-4.693 -2.902,-5.48 -3.121,-6.415 -3.344,-7.366 -3.445,-8.16 -3.445,-8.741 l -1.924,0 c 0.058,1.881 0.611,3.842 1.668,5.878 0.697,1.254 1.258,2.128 1.705,2.638 l -4.693,0 L -6.672,1.62 0,1.62 0,0 Z"
                   style="fill:#4f4c4d;fill-opacity:1;fill-rule:nonzero;stroke:none"
                   id="path3497"
                   inkscape:connector-curvature="0" /></g><g
                 transform="translate(153.6929,75.8662)"
                 id="g3499"><path
                   d="m 0,0 14.943,0.177 0,-3.04 -12.209,0 m 10.504,-7.983 -0.029,7.944 -10.645,0 m 1.237,-1.747 6.459,0 0,-4.492"
                   style="fill:none;stroke:#4f4c4d;stroke-width:0.41499999;stroke-linecap:butt;stroke-linejoin:miter;stroke-miterlimit:4;stroke-dasharray:none;stroke-opacity:1"
                   id="path3501"
                   inkscape:connector-curvature="0" /></g><g
                 transform="translate(80.2397,68.6221)"
                 id="g3503"><path
                   d="m 0,0 c 0,0 0.348,-3.254 -3.23,-4.314 0,0 -3.852,-0.367 -5.184,2.754"
                   style="fill:none;stroke:#4f4c4d;stroke-width:0.41499999;stroke-linecap:butt;stroke-linejoin:miter;stroke-miterlimit:4;stroke-dasharray:none;stroke-opacity:1"
                   id="path3505"
                   inkscape:connector-curvature="0" /></g><g
                 transform="translate(104.5405,172.0596)"
                 id="g3507"><path
                   d="m 0,0 c 0,0 -0.367,-3.275 -0.551,-3.544 -0.178,-0.243 0.531,-2.169 0.887,-2.767 0.33,-0.628 1.476,-2.425 0.539,-2.721 -0.811,-0.285 -0.939,0.264 -1.076,-0.348 -0.061,-0.318 0.619,-1.506 -0.559,-1.506 0,0 0.512,-0.458 0.073,-0.712 -0.426,-0.257 -0.473,-0.73 -0.29,-0.999 0.176,-0.268 0.176,-1.655 -1.371,-1.833 -1.804,-0.21 -2.916,0.202 -2.916,-0.861 -0.015,-1.015 0.785,-4.019 0.785,-4.019 0,0 2.54,-5.178 0.54,-6.168 -1.456,-0.743 -2.758,-0.36 -4.254,0.859 -1.465,1.216 -3.952,3.485 -5.217,4.129 0,0 -1.463,0.691 -2.098,0.268 0,0 -0.515,1.391 -2.156,1.391 l 0.152,0.903 c 0,0 2.199,0.471 2.59,0.993 0.387,0.521 0.387,1.109 0.322,1.302 l -0.06,0.208 c 0,0 2.426,1.943 2.426,6.014 0,0 -0.702,0.77 -0.489,1.776 0.121,0.604 5.209,1.487 5.129,3.908 0,0 2.297,0.924 2.426,2.007 l 0.318,0.595 c 0,0 1.971,-0.445 2.373,0.728 C -2.289,0.208 -0.457,-0.623 0,0 Z m -2.721,-17.928 c -0.355,0.408 -0.607,1.035 -0.607,1.035 0,0 1.828,-0.678 5.287,-4.345 3.111,-3.25 3.699,-3.25 4.377,-3.806 0.853,-0.698 1.918,-1.327 4.016,-3.371 m 15.568,3.698 c 0,0 0.353,0.4 -0.236,0.822 -0.557,0.444 -0.979,-0.242 -1.209,-0.422 -0.19,-0.171 0.748,1.046 0.748,1.046 m -28.649,6.229 c 0.098,-0.349 -0.207,-0.721 -0.672,-0.848 -0.445,-0.129 -0.902,0.044 -1.002,0.379 -0.076,0.335 0.217,0.72 0.68,0.835 0.471,0.129 0.916,-0.051 0.994,-0.366 z m 0.299,-0.09 c 0,0 -0.613,1.08 -1.82,0.25 l -0.317,1.591 c 0,0 2.334,0.401 6.022,-2.32 3.435,-2.517 3.056,-2.611 4.512,-3.67 1.417,-1.03 4.078,-2.378 4.652,-2.614 0.568,-0.204 1.48,-0.983 1.48,-0.983 m -2.634,-8.28 5.642,17.691 3.01,-1.091 c 0,0 2.973,2.915 6.492,2.037 3.365,-0.839 4.311,-3.659 4.311,-3.659 0,0 2.246,1.269 3.32,1.242 l 0.346,0.027 0.091,-1.045 c 0,0 0.137,-0.704 0.741,-0.577 l 0.334,0 0,-0.858 c 0,0 0.187,-1.051 1.017,-0.304 l 0.192,0.023 c 0,0 0,-0.846 0.496,-0.904 0.523,-0.031 0.926,0.271 1.013,0.485 l 0.086,0.215 c 0,0 0.342,-1.311 1.221,-0.429 0.998,1.007 0.801,0.735 0.801,0.735 0,0 1.07,-1.316 0.824,-3.388 l 2.656,-1.074 -13.086,-40.944 -7.564,2.066 c 0,0 -0.77,3.914 -6.453,7.789 -5.629,3.865 -8.697,8.762 -9.264,10.89 m -20.754,24.376 c 0.252,-0.729 -0.369,-1.549 -1.365,-1.858 -0.984,-0.304 -1.982,0.024 -2.227,0.754 m -0.669,15.267 c 0,0 0.46,1.302 1.052,1.701 0,0 0.102,3.714 2.674,4.767 0,0 0.826,2.518 2.818,2.547 0,0 1.469,1.374 2.151,0.841 0,0 1.785,2.168 2.951,1.112 0,0 1.568,2.167 2.67,0.656 0,0 1.723,1.886 2.562,0.724 0,0 2.289,1.562 2.497,0.059 0,0 2.72,0.516 2.146,-1.617 C 1,3.231 0.783,4.164 0.064,2.873 c 0,0 -1.302,-0.392 -1.765,0.392 0,0 -1.039,-0.994 -1.84,-0.346 0,0 -0.645,-1.289 -2.289,-0.568 0,0 -1.041,-1.774 -2.281,-0.935 0,0 -0.85,-1.344 -1.645,-0.564 0,0 -0.381,-1.189 -1.887,-0.946 l 0.049,-0.847 c 0,0 -2.345,-0.363 -2.345,-0.629 0,-0.262 -0.327,-0.852 0.072,-0.989 0.39,-0.117 1.236,-0.064 1.422,0 0.211,0.061 -0.123,-0.38 -0.123,-0.38 l -0.719,-0.726 c 0,0 -1.586,-0.655 -2.59,-1.353 -0.98,-0.744 -1.457,-1.007 -2.389,-0.933 -0.908,0.069 -1.025,-0.845 -1.025,-0.845 l -0.73,1.104 z M 4.281,-35.571 c 0,0 3.639,3.281 -1.144,7.647 0,0 -2.68,2.257 -3.461,4.653 -0.674,2 -2.123,5.152 -2.803,6.139 0,0 -0.613,-1.164 -1.648,-0.91 0,0 1.582,-4.67 1.648,-5.713 0.137,-1.862 -2.738,-2.742 -4.195,-1.614 -5.498,4.346 -5.401,4.56 -6.617,5.147 -1.422,0.7 -1.473,0.131 -1.569,0 0,0 -0.385,-1.287 -1.826,-1.67 l 0.137,-0.406 c 0,0 5.761,-1.361 6.332,-6.715 l -0.028,-0.268 M 6.832,-60.176 c 0,0 -0.145,0.249 -0.52,0.426 -0.417,0.19 -5.529,0.525 -4.998,5.658 0,0 0.389,4.085 -1.314,7.09 0,0 0.674,-0.219 0.072,2.522 0,0 -5.24,2.264 -12.617,6.57 0,0 -2.26,-5.361 -6.721,-3.748 -4.421,1.605 -4.043,8.325 -3.964,8.458 0.097,0.134 -0.122,2.403 -0.655,3.298 -0.513,0.908 -0.728,5.72 4.711,7.352 l 1.84,0.09 -0.178,0.627 c 0,0 -1.086,-0.356 -1.662,0.522 -0.556,0.869 -0.267,0.793 -0.267,0.793 m -2.809,-81.614 c 0,0 1.904,-1.07 2.633,-0.951 0.715,0.129 1.306,-0.384 0.773,-1.558 -0.519,-1.173 -1.177,-3.781 -0.125,-4.687 1.037,-0.943 5.102,-3.227 7.573,-0.343 2.503,2.88 1.056,4.701 0.99,5.03 -0.074,0.335 -0.459,1.628 0.513,1.514 0,0 1.381,-0.558 3.227,-0.686 0,0 0.199,-0.586 -0.383,-1.214 -0.707,-0.754 -1.062,-2.743 -1.326,-3.334 -0.273,-0.577 -1.803,-2.356 -1.043,-2.886 1.043,-0.71 2.18,-2.026 8.328,-1.782 0,0 2.223,0.833 5.797,-0.425 0,0 0.914,-0.194 3.596,0.425 3.052,0.703 3.769,-0.07 6.185,-0.07 2.395,0 2.672,1.46 8.897,0.496 0,0 1.82,-0.697 4.078,-0.178 2.658,0.605 2.549,-0.169 4.262,-0.294 1.691,-0.119 2.347,0.37 2.806,0.587 0.463,0.176 2.446,-0.173 4.395,-0.706 1.951,-0.531 3.986,0.544 4.717,0.84 0.74,0.215 2.996,0.397 3.767,0.203 0.791,-0.203 3.834,0.621 4.871,3.829 0,0 4.256,1.498 4.873,3.219 0,0 0,0.981 -1.244,1.251 0,0 0.592,0.46 -2.553,2.42 0,0 -0.576,1.564 -2.599,2.89 0,0 0.265,1.028 -1.969,2.525 0,0 -1.764,1.914 -1.715,2.216 0,0 1.242,0.993 -0.314,3.736 l -1.625,2.417 c 0,0 0.508,0.054 0.508,1.12 0,1.041 1.365,0.367 0.931,2.815 0,0 0.451,2.586 -0.209,5.058 0,0 0.795,0.27 1.574,0.439 0.934,0.199 2.03,0.477 0.262,5.01 -1.771,4.484 -3.34,13.599 -3.34,14.375 l -0.892,5.065 c 0,0 -0.033,2.955 -3.051,4.26 0,0 -1.227,-2.005 -1.02,-3.168 0,0 -0.207,-1.518 0.063,-2.157 0,0 1.057,-4.394 -2.029,-7.338 m -2.405,12.762 c 0,0 -1.861,-0.017 -2.254,-0.269 l -2.65,-8.307 c 0,0 2.336,2.1 3.252,2.564 0,0 0,3.145 1.652,6.012 z m 4.235,0.046 c 0,0 -1.434,0.204 -2.682,0.07 0,0 -1.889,-1.613 -2.168,-5.488 0,0 2.559,1.043 4.068,1.043 0,0 -0.416,1.488 0.465,3.538 0,0 0.035,0.261 0.317,0.837 z m -6.346,36.404 c -0.109,-0.154 -1.215,-1.662 -1.395,-3.818 0,0 -0.296,-1.702 0.7,-1.843 0,0 0.39,-0.432 0.816,1.931 0,0 0.315,1.427 1.143,2.331 0,0 0.748,1.061 0,1.707 0,0 -0.741,0.227 -1.264,-0.308 z m 3.326,-1.172 c 0,0 -0.054,1.442 -1.404,0.924 0,0 -1.752,-1.872 -2.156,-5.328 0,0 -0.248,-1.772 0.89,-1.162 0,0 0.258,-0.354 1.065,2.519 0,0 0.756,1.821 1.502,2.655 l 0.103,0.392 z m 2.072,-0.998 c 0,0 -0.109,1.445 -1.822,1.043 0,0 -1.519,-1.442 -2.394,-4.905 0,0 -0.793,-1.404 0.423,-1.529 0,0 0.561,-0.058 0.963,0.719 0,0 0.522,2.39 2.58,4.273 l 0.25,0.399 z m 1.719,-2.667 c 0,0 0.436,1.801 -1.685,2.439 0,0 -2.379,-1.821 -2.723,-4.477 0,0 0.027,-1.173 1.078,-0.217 0,0 0.662,0.793 0.875,1.143 0,0 0.703,1.645 1.645,1.497 l 0.81,-0.385 z m -13.144,9.815 -0.524,2.517 c 0,0 -0.158,0.706 -0.777,0.59 0,0 -0.338,-0.394 -0.125,-1.276 0.205,-0.869 0.31,-1.691 0.31,-1.691 l -1.988,0.606 c 0,0 -0.935,0.216 -1.07,-0.227 0,0 -0.264,-0.525 0.92,-0.827 1.179,-0.304 2.73,-0.745 2.73,-0.745 l 0.524,1.053 z m -1.426,1.387 -1.488,1.226 c 0,0 -0.563,0.494 -0.895,0.1 -0.365,-0.397 0,-0.704 0.332,-0.978 0.373,-0.248 1.428,-1.173 1.428,-1.173 l 0.705,-0.166 -0.082,0.991 z m 7.31,-6.434 c 0,0 -1.384,1.309 -3.166,1.653 -1.8,0.354 -2.248,1.782 -1.56,2.701 0.338,0.458 -1.344,1.564 -1.445,-0.831 -0.104,-2.124 2.886,-2.998 2.886,-2.998 0,0 2.496,-0.981 2.657,-1.583 0.029,-0.168 0.628,1.058 0.628,1.058 z m -8.05,-1.749 c 0,0 -1.215,6.79 -2.668,6.455 0,0 0.529,-1.541 0.265,-1.92 l 1.27,-4.238 1.133,-0.297 z m -2.5,5.528 -0.977,2.357 c 0,0 -0.449,0.646 -0.801,0.435 -0.343,-0.216 -0.093,-0.876 0.145,-1.384 0.207,-0.525 0.389,-1.231 0.389,-1.231 l -2.157,0.127 c 0,0 -1.078,0.104 -1.17,-0.437 -0.08,-0.513 0.428,-0.513 0.914,-0.641 0.483,-0.142 2.756,-0.142 2.756,-0.142 l 1.129,-0.635 -0.131,0.822 -0.097,0.729 z m -1.778,1.408 -1.05,0.731 c 0,0 -0.768,0.091 -0.952,-0.267 -0.168,-0.323 0.309,-0.686 0.473,-0.73 0.166,-0.049 1.061,-0.734 1.061,-0.734 l 0.82,-0.058 -0.352,1.058 z m 0.801,-2.503 0.414,-3.875 c 0,0 0.791,0.133 0.957,0 0.178,-0.139 -0.297,3.419 -0.297,3.419 l -1.074,0.456 z m 10.143,-6.091 -7.496,5.716 0.384,-1.46 6.344,-4.813 0.768,0.079 0,0.478 z m -3.397,7.49 3.1,-2.774 c 0,0 -1.545,0.596 -1.963,0.596 -0.525,0 -1.322,0.779 -1.137,2.178 z m 11.115,-8.803 c 0,0 2.834,-0.872 3.977,-6.571 1.137,-5.707 0.385,-6.077 1.605,-10.715 0,0 0.895,-2.31 0.784,-3.001 -0.164,-1.057 -0.944,-2.896 -5.844,-2.54 0,0 -2.363,0 -3.623,1.103 l 0.527,1.775 1.615,-0.398 2.942,13.682 0.689,-0.598 -2.492,-13.084 c 0,0 1.25,-0.604 3.959,-0.303 0,0 2.295,0.101 0.832,1.654 0,0 -0.935,2.782 -1.137,6.286 0,0 -0.207,5.3 -1.261,7.906 -1.041,2.626 -2.282,3.399 -3.262,4.291 l -0.168,0.331 0.508,0.408 0.349,-0.226 z m 3.627,-4.651 0.061,-0.063 4.18,-3.694 -0.555,-0.56 -3.438,3.015 -0.248,1.302 z m 3.405,-4.784 -2.893,2.337 0.264,-1.31 2.103,-1.731 0.526,0.704 z m 0.771,0.81 -1.133,-1.309 c 0,0 -0.517,-1.083 0.53,-0.835 l 1.353,1.261 c 0,0 0.483,0.54 0.041,0.919 -0.437,0.401 -0.791,-0.036 -0.791,-0.036 z m 2.66,-2.036 -2.185,0.779 0.484,0.626 1.803,-0.626 c 0,0 0.502,-0.265 0.471,-0.531 -0.051,-0.248 -0.573,-0.248 -0.573,-0.248 z m -2.414,0.469 1.377,-1.693 c 0,0 0.096,-0.481 -0.138,-0.61 -0.206,-0.153 -0.526,0.033 -0.735,0.268 -0.221,0.213 -1.053,1.602 -1.053,1.602 l 0.549,0.433 z m -5.468,5.035 -3.86,3.811 0.422,0.912 2.736,-2.862 0.702,-1.861 z m 0.597,-2.366 -4.08,3.656 c 0,0 -0.203,1.195 -0.377,1.546 l 4.295,-3.986 0.162,-1.216 z m -4.752,-9.241 1.326,-0.246 -0.216,-0.774 -1.377,0.362 0.267,0.658 z m 2.401,-0.443 c 0,0 3.67,-0.66 3.843,-0.997 0.176,-0.346 0.444,-0.993 0.444,-0.993 0,0 -2.541,0.909 -4.145,1.078 l -0.265,0.095 0.123,0.817 z m -2.045,-5.397 c 0,0 0.392,-3.009 -0.557,-4.75 0,0 -0.715,-1.713 -1.758,-3.57 -0.791,-1.406 -2.129,-2.482 -2.174,-7.892 -0.048,-4.385 0.922,-3.996 0.039,-5.088 -0.884,-1.087 -4.566,-2.618 -5.152,-2.185 l -0.402,-0.872 c 0,0 3.316,-0.04 6.562,2.742 3.442,2.944 4.633,5.572 4.951,6.409 0,0 -0.244,4.45 1.11,6.629 1.433,2.31 1.256,6.443 1.205,6.647 l 0.066,1.574 -0.957,0.042 c 0,0 0.33,-3.821 -0.404,-5.732 0,0 -0.426,-1.803 -1.156,-2.965 -0.723,-1.123 -1.012,-3.02 -0.811,-3.805 0,0 0.088,-1.867 -0.484,-3.173 -0.676,-1.593 -2.502,-3.61 -3.309,-3.694 0,0 -1.492,5.437 1.084,9.66 0,0 2.377,4.218 2.606,5.06 0.279,0.828 0.759,2.606 0.548,4.74 l -1.007,0.223 z m 1.486,-14.065 c 0,0 1.596,-5.707 -3.133,-8.835 -4.326,-2.873 -5.844,-2.396 -8.195,-1.54 0,0 4.508,0.392 7.527,3.999 0,0 2.707,2.562 3.406,4.539 0.348,0.998 0.395,1.837 0.395,1.837 z m 7.4,-36.307 c 0,0 2.946,-0.87 4.76,-2.315 1.529,-1.193 2.528,-1.168 2.528,-1.168 0,0 2.982,0.198 2.56,-1.054 -0.252,-0.71 -1.486,-0.993 -3.072,-0.47 -1.557,0.51 0.006,-0.293 -5.28,-0.177 m -28.06,33.095 c 0,0 0.476,-3.474 -0.633,-7.451 -1.096,-3.992 -1.767,-5.551 -1.908,-6.913 -0.123,-1.381 -1.438,-6.278 -6.402,-10.473 0,0 -3.918,-2.209 -6.725,-2.682 -4.26,-1.814 -4.207,-1.789 -5.191,-2.18 m -0.34,92.383 c 0,0 1.388,0.311 1.07,1.757 0,0 -0.125,1.289 -1.896,1.362 -1.247,0.059 -1.829,-0.511 -2.227,-0.073 0,0 -0.973,-1.429 -2.473,-0.497 0,0 -0.468,-1.712 -2.097,-1.006 0,0 0.043,-1.107 -1.645,-0.564 0,0 0.149,-1.063 -1.68,-0.935 l -0.158,-0.858 c -1.668,-0.31 -1.521,-0.227 -2.345,-0.629 l -0.227,-1.078 m 0.727,-1.427 c -1.256,0.143 -3.051,-1.617 -3.051,-1.617 0,0 -0.742,-0.221 -1.498,-0.286 -0.879,-0.087 -1.375,-0.597 -1.303,-0.818 0.111,-0.379 -0.326,0.858 -0.672,0.858 -0.058,0 -0.125,-0.058 -0.191,-0.146 -0.703,-1.183 0.398,-1.614 -0.703,-2.813 -0.485,-0.514 -0.485,-0.992 -0.485,-0.992 0,0 -0.578,-1.032 -0.174,-1.681 0.387,-0.65 0.12,-1.387 -0.07,-1.635 -0.191,-0.277 0.154,-1.497 0.856,-2.168 0.107,-0.133 1,-1.692 3.855,-0.578 1.324,0.526 1.893,0 2.215,0.526 m 35.834,-15.17 c 0.431,0.177 2.041,1.314 2.465,2.365 0,0 2.111,3.386 2.281,3.513 m -4.623,3.831 c -0.529,-0.395 -1.133,-0.248 -1.133,-0.248 l -2.703,1.462 c 0,0 -0.998,0.102 -1.131,-0.586 -0.129,-0.701 0.348,-0.876 0.348,-0.876 l 1.697,-1.091 0.053,-0.235 c 0,0 -1.182,-0.596 -1.498,-2.474 -0.305,-1.863 0.037,-3.087 -1.008,-3.829 m 7.195,5.312 c -0.242,-0.304 0.836,0.947 0.836,0.947 0,0 0.379,0.618 0.096,0.975 -0.305,0.342 -1.268,-0.061 -1.801,-0.677 0,0 1.332,1.072 0.627,1.599 -0.635,0.448 -1.355,-0.315 -1.578,-0.444 -0.207,-0.136 -2.008,-0.691 -2.17,-1.26 l -0.576,-0.086 c 0,0 -1.262,-0.624 -1.49,-2.57 -0.202,-1.962 -0.313,-3.192 -0.86,-3.577 -0.576,-0.39 -1.67,-1.85 -6.115,-4.096 -4.428,-2.261 -6.854,-3.633 -6.854,-3.633 0,0 -1.076,-1.168 -3.48,0.627 -2.395,1.771 -6.801,4.459 -9.846,5.791 l -0.799,0.574 c 0,0 0.586,2.91 -3.482,5.79 m 39.598,0.22 c 0,0 0.091,1.119 -1.27,0.767 l 0.231,0.487 M 4.994,-44.231 c 0,0 -1.004,-1.082 -3.494,-0.519 -1.824,0.413 -1.375,0.448 -1.375,0.448 0,0 0.6,-1.853 0,-2.576 0,0 1.301,-3.059 1.375,-5.347 0,0 -0.664,-1.511 3.801,-3.97 4.437,-2.5 2.033,-0.918 5.164,-2.186 2.281,-0.908 3.668,-2.037 4.566,-2.799 0,0 -3.066,0.668 -3.404,0.537 0,0 -2.145,0.633 -2.418,0.323 0,0 -1.227,0.57 -2.211,0.248 -0.994,-0.346 -3.33,-4.843 -5.572,-6.807 -2.203,-1.946 -3.381,-2.91 -7.908,-3.581 -4.514,-0.651 -9.344,-0.855 -14.248,3.002 0,0 -2.815,2.799 -1.827,6.091 0,0 -0.23,2.975 1.428,5.468 1.725,2.617 1.166,3.566 1.244,3.797 0.155,0.335 0.196,3.998 0.778,4.661 0,0 -1.555,1.045 -1.305,2.075 0,0 -0.984,0.995 -0.93,1.443 0,0 -4.295,1.181 -4.597,7.808 0,0 -1.125,3.723 -0.352,6.632 0.715,2.758 0.879,7.443 6.85,8.965 0,0 0.334,1.321 1.777,1.687 l 0.41,0.985 c 0,0 -7.533,-2.087 -11.055,-8.104 0,0 -2.535,-2.619 -4.72,-13.18 0,0 -1.024,-2.963 -0.391,-6.107 0.77,-3.823 1.096,-6.806 1.096,-6.806 0,0 0.656,-3.811 0.533,-5.732 0,0 0.07,-6.59 1.092,-11.557 m 17.904,31.078 c 0,0 -0.32,0.678 0.83,0.042 1.123,-0.657 10.235,-5.847 13.465,-6.538 0,0 1.66,-1.08 5.062,1.522 3.399,2.616 6.442,4.795 12.854,11.282 0,0 1.104,1.223 2.189,1.528 m -43.953,-30.529 c 0,0 -0.927,-1.324 -0.31,-2.855 m 10.355,-26.326 c 2.379,-1.239 2.871,-0.816 5.369,-2.28 1.952,-1.162 5.102,-0.845 7.586,0.325 m -13.031,1.932 c 0,0 -2.281,1.531 -3.326,4.264 0,0 -1.75,3.725 -3.315,4.845 0,0 -0.943,0.644 -1.134,1.31 0,0 -0.746,-0.079 -1.487,1.562"
                   style="fill:none;stroke:#4f4c4d;stroke-width:0.41499999;stroke-linecap:butt;stroke-linejoin:miter;stroke-miterlimit:4;stroke-dasharray:none;stroke-opacity:1"
                   id="path3509"
                   inkscape:connector-curvature="0" /></g><g
                 transform="translate(161.2437,68.0039)"
                 id="g3511"><path
                   d="m 0,0 c 0,0 2.588,-1.203 5.627,-3.04 0,0 1.801,-0.639 2.281,-0.674 0.475,-0.055 3.565,-0.829 2.387,-1.826 0,0 -0.883,-0.835 -2.631,0.506 0,0 2.127,-1.181 1.469,-1.701 0,0 -0.252,-1.046 -2.645,0.828 0,0 2.469,-1.622 1.313,-1.965 0,0 -0.647,-0.557 -2.463,1.315 0,0 1.988,-1.741 1.359,-2.169 -0.297,-0.806 -3.148,1.809 -2.556,1.305 0,0 2.002,-1.771 0.83,-1.815 0,0 -0.186,-0.296 -1.78,0.45 -0.5,0.268 -1.146,0.328 -1.146,0.328 0,0 -0.969,0 -2.016,1.037 -0.521,0.491 -1.965,0.504 -1.965,0.504 0,0 -3.548,-0.013 -3.58,0.8"
                   style="fill:none;stroke:#4f4c4d;stroke-width:0.41499999;stroke-linecap:butt;stroke-linejoin:miter;stroke-miterlimit:4;stroke-dasharray:none;stroke-opacity:1"
                   id="path3513"
                   inkscape:connector-curvature="0" /></g><g
                 transform="translate(84.7046,120.2842)"
                 id="g3515"><path
                   d="m 0,0 c 0,0 0,-1.104 -3.195,-4.078 -3.16,-3.04 -4.737,-6.135 -4.389,-9.185 0.355,-3.046 0.527,-3.787 1.348,-4.305 m -4.094,36.335 c 0,0 -0.578,-2.088 -0.578,-4.446 0,-2.362 -0.246,-4.316 -0.42,-4.826 -0.178,-0.535 -0.445,-5.543 0.379,-7.406 m 7.638,-14.257 c 0,0 -0.738,-3.358 2.088,-5.146 0,0 0.647,-0.59 1.344,-1.742 0.584,-0.905 1.889,-1.126 2.154,-1.209 0.254,-0.098 1.137,-0.663 1.391,-2.006 0,0 1.994,-1.872 6.752,-2.489 6.023,-0.794 9.027,2.713 9.027,2.713 0,0 2.694,3.195 3.26,3.951 1.182,1.567 1.088,2.918 3.627,6.156 1.512,1.918 1.049,2.171 2.523,3.264 m 2.354,-0.305 c 0,0 0.143,-0.611 -1.416,-3.187 -1.576,-2.571 -3.117,-4.664 -4.662,-8.097 -1.582,-3.448 -5.055,-8.647 -11.26,-9.301 0,0 -4.719,-0.204 -6.58,0.454 0,0 -2.301,0.772 -3.68,1.091 0,0 -4.101,0.251 -4.923,1.116 m 29.791,0.914 c 0,0 -0.76,-1.608 -2.147,-1.608 m 11.471,54.106 c 0,0 0.408,1.878 1.26,3.037 M 21.539,6.855 c 0,0 -0.287,-7.212 9.67,-11.139 m 3.299,-5.1 c 0,0 4.086,-1.039 4.207,-6.925 m -6.209,7.328 c 0,0 1.64,-1.442 0.588,-7.457 -1.033,-6.024 -0.912,-7.583 -3.336,-10.981 -1.696,-2.376 -4.852,-4.698 -4.852,-4.698 0,0 -3.461,-2.43 -3.908,-3.271 -0.463,-0.853 -2.746,-2.352 -5.244,-1.771 -3.172,0.749 -3.387,-0.07 -8.891,2.032 -2.732,1.032 -3.334,2.553 -3.334,2.553 m -3.265,3.716 c 0,0 0.125,-3.716 0.859,-6.269 0,0 0.775,-2.813 0.775,-4.712 0,-1.903 -0.138,-3.842 0.856,-6.718 0.976,-2.875 1.508,-5.308 0,-7.075 -1.5,-1.771 -1.184,-2.606 -0.924,-3 m -2.547,5.486 c 0,0 3.912,1.231 3.008,-1.374 -0.777,-2.254 -1.746,-1.081 -1.928,-2.918 m 6.828,17.183 c 0,0 0.2,-2.64 -0.127,-4.056 -0.31,-1.445 -0.082,-4.921 0.061,-5.378 0.125,-0.44 -0.445,-1.62 -1.229,-2.292 -0.792,-0.64 -1.189,-3.13 -0.066,-4.038 0.949,-0.778 1.627,-0.853 1.627,-0.853 0,0 1.928,-0.815 -0.344,-2.301 m 2.356,1.124 c 0,0 0.148,1.685 -1.811,2.099 -1.82,0.349 -1.576,2.749 -0.795,3.069 0.795,0.324 1.647,0.348 3.01,-0.356 m 10.346,10.619 c 0,0 0.101,-0.622 0.701,-2.794 0.449,-1.58 0.58,-2.705 0.525,-3.222 -0.033,-0.534 -0.076,-1.134 1.489,-2.913 1.556,-1.79 -0.352,-3.8 -0.786,-4.199 -0.437,-0.381 -0.736,-0.618 -0.392,-1.028 m -8.443,2.679 c 1.355,-0.018 3.138,0.011 5.835,1.284 0,0 2.733,1.217 3.145,-0.526 0,0 0,-1.024 -1.268,-1.966 -1.15,-0.855 -0.621,-2.786 1.68,-2.567 2.338,0.2 1.395,0.114 3.268,0.789 1.882,0.636 3.654,-0.266 6.515,-0.843 1.522,-0.3 4.176,0.054 4.176,0.054 0,0 0.813,0.873 2.731,0.417 1.357,-0.352 2.511,-0.616 3.804,-0.949 1.598,-0.401 3.203,0 3.44,0.105 0.267,0.073 1.937,0.471 4.627,-0.182 2.937,-0.715 6.285,-1.529 8.888,-1.104 1.78,0.306 4.893,-0.177 6.756,-0.032 2.104,0.174 6.692,1.656 7.016,1.81 m -53.332,5.248 c 0,0 -0.389,-3.293 -0.129,-3.726 m 55.078,2.269 c 0,0 -2.16,-2.35 -5.016,-2.983 m -29.504,8.499 c 0,0 -7.529,5.271 -10.638,9.894 m 4.615,4.44 c 0,0 5.229,-5.06 10.166,-7.154 m -8.332,10.035 c 0,0 3.975,-2.942 9.154,-3.725 m -8.009,7.423 c 0,0 1.73,-1.043 5.707,-1.436 m 6.24,13.488 c 0,0 6.404,-0.327 8.238,-7.998 0,0 0.037,-0.391 1.922,-5.031 m -1.963,7.506 c 0,0 0.693,4.022 2.91,7.493 m 2.313,-2.085 c 0,0 -0.069,-2.774 -0.309,-5.195 -0.289,-2.607 -0.289,-7.594 0.199,-9.968 0.522,-2.271 1.119,-2.08 2.162,-2.533 1.059,-0.443 0.965,-0.958 0.965,-0.958 m -0.851,1.915 c 0,0 -2.508,1.529 -0.033,3.309 l 1.042,0.371 m -6.492,0.443 c 0,0 2.131,-5.028 5.268,-8.259"
                   style="fill:none;stroke:#4f4c4d;stroke-width:0.41499999;stroke-linecap:round;stroke-linejoin:miter;stroke-miterlimit:4;stroke-dasharray:none;stroke-opacity:1"
                   id="path3517"
                   inkscape:connector-curvature="0" /></g><g
                 transform="translate(112.7671,81.8877)"
                 id="g3519"><path
                   d="m 0,0 c 0,0 0.484,-1.633 7.832,-8.836 m -12.068,7.337 c 0,0 1.904,-5.79 4.463,-8.453"
                   style="fill:none;stroke:#4f4c4d;stroke-width:0.41499999;stroke-linecap:butt;stroke-linejoin:miter;stroke-miterlimit:4;stroke-dasharray:none;stroke-opacity:1"
                   id="path3521"
                   inkscape:connector-curvature="0" /></g><g
                 transform="translate(50.6968,101.1729)"
                 id="g3523"><path
                   d="m 0,0 c -0.959,-0.887 -1.877,-1.709 -2.896,-2.748 0.949,-1.039 3.72,-3.391 3.566,-8.602 -0.094,-3.893 -5.473,-11.968 -2.551,-16.82 4.084,-6.804 13.342,-2.255 16.756,-6.804 3.375,4.549 13.246,0.154 16.756,6.853 2.652,5.146 -2.026,11.289 -2.795,16.771 -0.469,3.357 2.574,7.815 3.666,8.602 -0.879,0.87 -1.918,2.027 -2.756,2.844 C 25.238,-3.065 20.713,1.405 14.824,1.405 8.873,1.405 4.562,-3.016 0,0 Z"
                   style="fill:none;stroke:#4f4c4d;stroke-width:0.41499999;stroke-linecap:square;stroke-linejoin:miter;stroke-miterlimit:4;stroke-dasharray:none;stroke-opacity:1"
                   id="path3525"
                   inkscape:connector-curvature="0" /></g><g
                 transform="translate(50.0776,84.751)"
                 id="g3527"><path
                   d="M 0,0 8.943,0"
                   style="fill:none;stroke:#4f4c4d;stroke-width:0.41499999;stroke-linecap:butt;stroke-linejoin:miter;stroke-miterlimit:4;stroke-dasharray:none;stroke-opacity:1"
                   id="path3529"
                   inkscape:connector-curvature="0" /></g><g
                 transform="translate(72.1089,84.751)"
                 id="g3531"><path
                   d="M 0,0 8.938,0"
                   style="fill:none;stroke:#4f4c4d;stroke-width:0.41499999;stroke-linecap:butt;stroke-linejoin:miter;stroke-miterlimit:4;stroke-dasharray:none;stroke-opacity:1"
                   id="path3533"
                   inkscape:connector-curvature="0" /></g><g
                 transform="translate(65.4897,104.2705)"
                 id="g3535"><path
                   d="m 0,0 c 0,0 -4.178,-0.187 -6.83,-1.224 -2.643,-1.035 -5.887,-1.932 -8.371,0.486 l -4.904,-5.17 c 0,0 4.613,-4.857 4.25,-8.729 0,0 -0.18,-2.524 -1.616,-5.564 m 0,0 c -1.504,-3.217 -2.363,-7.44 -1.209,-11.112 0.85,-2.724 3.649,-5.487 10.68,-5.703 0,0 6.635,-0.317 8,-3.486 M 0,0 c 0,0 4.189,-0.187 6.822,-1.224 2.645,-1.035 5.555,-1.932 8.033,0.486 l 5.473,-5.041 c 0,0 -4.445,-3.761 -4.39,-8.521 0,0 0.136,-2.538 1.535,-5.901 m 0,0 c 1.4,-3.273 2.121,-7.364 1.232,-11.112 -0.783,-3.244 -5.701,-5.89 -10.695,-5.703 0,0 -6.69,-0.523 -8.01,-3.486"
                   style="fill:none;stroke:#4f4c4d;stroke-width:0.41499999;stroke-linecap:butt;stroke-linejoin:miter;stroke-miterlimit:4;stroke-dasharray:none;stroke-opacity:1"
                   id="path3537"
                   inkscape:connector-curvature="0" /></g><g
                 transform="translate(65.4819,97.1934)"
                 id="g3539"><path
                   d="m 0,0 2.984,-8.924 9.391,0.21 -7.885,-5.232 3.168,-8.701 -7.623,5.599 -7.646,-5.599 3.197,8.701 -7.906,5.232 9.601,-0.21 L 0,0 Z"
                   style="fill:none;stroke:#4f4c4d;stroke-width:0.41499999;stroke-linecap:butt;stroke-linejoin:miter;stroke-miterlimit:4;stroke-dasharray:none;stroke-opacity:1"
                   id="path3541"
                   inkscape:connector-curvature="0" /></g><g
                 transform="translate(63.9233,136.9814)"
                 id="g3543"><path
                   d="M 0,0 1.654,-2.498 C -0.029,-2.4 0,-5.19 2.367,-4.814 c 3.11,0.488 0.781,3.758 0.781,3.758 L 0,2.986 -3.193,-1.056 c 0,0 -2.305,-3.27 0.808,-3.758 C 0,-5.19 0,-2.4 -1.664,-2.498 L 0,0 Z m 2.107,-6.107 -4.492,0 0,1.275 4.492,0 0,-1.275 z M 0,-6.18 l 2.229,0 0.841,-0.387 C 3.902,-7.096 2.787,-7.762 2.787,-7.762 L 0,-7.704 -2.787,-7.762 c 0,0 -1.129,0.666 -0.315,1.195 l 0.852,0.387 2.25,0 z m 0,-1.611 2.822,0 c 0,0 1.391,-0.233 1.492,-1.443 0.09,-1.106 -0.791,-1.547 -1.328,-1.647 L 0,-10.934 l -2.998,0.053 c -0.531,0.1 -1.402,0.541 -1.314,1.647 0.099,1.21 1.496,1.443 1.496,1.443 l 2.816,0 z m 1.859,-4.82 -1.859,0 -1.855,0 c 0,0 -1.407,0.039 -1.764,0.811 -0.395,0.896 0.299,0.85 0.299,0.85 L 0,-10.934 3.293,-10.95 M 0,-12.611 l 1.984,0 c 0,0 1.127,-0.147 1.215,-1.267 0.156,-1.376 -1.396,-1.328 -1.633,-1.328 l -1.566,0 -1.463,0 c -0.228,0 -1.771,-0.048 -1.639,1.328 0.125,1.12 1.247,1.267 1.247,1.267 l 1.855,0 z m 0,-2.595 2.434,0 c 0,0 0.859,-0.116 0.925,-0.918 0.077,-0.78 -0.523,-0.931 -0.627,-0.973 l -2.732,0 -2.57,0 c -0.096,0.042 -0.672,0.193 -0.623,0.973 0.091,0.802 0.943,0.918 0.943,0.918 l 2.25,0 z m 0,-1.891 2.732,0 c 0,0 1.09,-0.062 1.131,-0.926 0.039,-0.731 -0.718,-0.92 -1.008,-0.972 l -2.855,0 -2.666,0 c -0.287,0.052 -1.063,0.241 -1.02,0.972 0.051,0.864 1.116,0.926 1.116,0.926 l 2.57,0 z m 0,-1.898 2.451,-0.019 c 0,0 1.098,0.019 1.098,-0.758 -0.02,-0.533 -0.322,-0.722 -0.942,-0.706 l -2.607,0 -2.42,0 c -0.633,-0.016 -0.928,0.173 -0.935,0.706 -0.016,0.777 1.072,0.758 1.072,0.758 L 0,-18.995 Z m 0,-1.483 2.422,0 c 0,0 0.933,-0.05 0.943,-0.681 C 3.43,-21.654 2.996,-22 2.367,-22 L 0,-22 l -2.143,0 c -0.627,0 -1.05,0.346 -1.017,0.841 0.058,0.631 0.971,0.681 0.971,0.681 l 2.189,0 z M 0,-22 l -2.385,0 c 0,0 -1.185,-0.114 -1.316,-1.207 -0.129,-1.077 -0.342,-10.147 -0.342,-10.147 l 0,-0.095 c 0,0 2.043,0.455 4.043,0.672 0,0 1.787,0.202 4.719,-0.192 l -0.891,9.84 c 0,0 -0.144,1.057 -1.152,1.11 C 1.654,-21.947 0,-22 0,-22 Z m 7.27,15.769 -4.704,0 m 4.596,-1.446 -4.014,0 c 0,0 1.008,-0.587 1.207,-1.642 l 2.864,0 m 0.25,-1.4 -3.867,0 c 0,0 0.427,-0.785 -0.166,-1.451 0,0 -0.735,-0.346 -1.069,-0.346 l 5.51,0 m -4.732,4.911 0.003,-0.072 4.014,0"
                   style="fill:none;stroke:#4f4c4d;stroke-width:0.41499999;stroke-linecap:butt;stroke-linejoin:miter;stroke-miterlimit:4;stroke-dasharray:none;stroke-opacity:1"
                   id="path3545"
                   inkscape:connector-curvature="0" /></g><g
                 transform="translate(89.189,151.2695)"
                 id="g3547"><path
                   d="m 0,0 c 0,0 2.365,-0.739 3.652,-2.164 m -4.429,1.304 c 0,0 3.109,-0.995 4.232,-2.524 m 6.191,4.177 c 0,0 0.391,2.478 0.504,4.737 M 11.83,2.8 c 0,0 0.66,-2.617 1.615,-4.589 M 1.137,-6.341 c 0,0 2.457,-2.106 3.941,-2.529 m -9.713,-5.064 c 0,0 4.574,-1.343 8.494,-3.742 M 13.875,9.942 c 0,0 0.717,-0.191 0.902,-0.125 m -0.754,2.167 c 0,0 0.397,-0.643 0.872,-0.547 0.48,0.073 0.656,0.2 0.793,0.163 m -1.575,4.77 -2.025,-0.675 1.314,-0.737 c 0,0 0.391,0.683 0.135,1.17 m -2.818,0.215 c 0,0 1.801,1.142 3.789,0.822 M 5.518,11.51 c 0,0 0.267,-0.951 -0.618,-0.922 -0.875,0.061 -0.875,0.486 -0.945,0.611 -0.096,0.142 -0.5,0.257 -0.674,0.238 m 0.174,1.805 c 0,0 0.5,-1.166 0.951,-1.124 0.403,0.052 0.451,0.44 0.403,0.652 -0.043,0.213 -0.268,0.965 -0.268,0.965 m 4.158,8.229 c 0,0 2.133,0 3.258,-0.778 1.139,-0.786 1.854,-0.543 1.854,-0.543 M 3.537,19.705 c 0,0 1.518,0.037 2.557,-0.136 1.047,-0.182 4.209,-0.254 4.299,0 M 2.018,16.726 c 0,0 1.388,0.132 3.06,-0.032 C 6.945,16.516 8.99,17.65 8.99,17.65 M -4.811,12.983 c 0,0 1.668,1.096 3.803,0.39 2.145,-0.688 3.824,-0.131 3.824,-0.131 m -9.105,-3.31 c 0,0 2.846,-2.849 5.678,0.141 M -6.289,7.546 c 0,0 3.33,-4.044 7.141,0.966 m -4.848,7.669 c 0,0 0.701,0.418 2.025,0.335 0.801,-0.046 1.797,1.309 1.797,1.309 0,0 1.088,0.705 1.496,0.394 m -3.109,1.055 c 0,0 -0.44,-1.487 -0.34,-1.701 m 1.055,0.777 c 0,0 0.718,0.479 0.508,2.103 -0.213,1.591 -0.213,1.124 -0.213,1.124 m 2.23,-2.19 c 0,0 -0.539,0.408 -0.316,0.733 0.209,0.379 0.537,1.157 0.441,1.902 -0.094,0.727 0.32,1.866 0.541,1.897 m 0.412,-4.177 c 0,0 -0.467,0.478 -0.236,0.658 0.195,0.165 0.805,0.736 1.217,1.129 0.312,0.31 0.347,0.972 0.347,0.972 0,0 -0.15,1.685 0.43,2.383 m -0.752,-3.698 0.467,0.685 c 1.211,0.519 1.664,-0.268 1.664,-0.268 m 1.68,0.622 c 0,0 -0.645,0.87 -1.594,0.524 0,0 1.297,1.229 1.387,3.248 m 2.673,0.648 c 0,0 -0.046,-1.158 -0.892,-2.368 C 8.098,23.062 8.809,23.613 8.809,23.613 L 6.945,23.012 m 1.977,0.841 c 0,0 1.109,-0.24 1.951,0.375 0.828,0.62 1.432,2.828 1.352,3.185 M 8.369,23.478 c 0,0 0.969,-0.207 1.137,-0.466 m 0.932,1.043 c 0,0 0.998,0.222 1.529,-0.423 m -0.713,0.777 c 0,0 2.283,1.078 2.67,-0.31 m -0.174,0.522 c 0,0 1.801,0.042 1.842,-1.048 m -2.106,1.311 c 0,0 1.373,1.444 1.409,2.435 m -23.87,-43.775 c 0,0 1.496,-5.709 7.164,-4.736 m -7.468,1.13 c -1.35,1.209 7.908,-7.573 13.488,1.997 m -10.1,-5.143 c 0,0 3.887,-2.576 9.098,-0.439 0,0 3.068,1.52 3.395,4.185 m -10.264,-7.281 c 0,0 5.68,-1.699 6.803,2.717 0,0 -1.243,-3.609 2.953,-2.967 0,0 1.568,-0.133 1.883,2.47 0.308,2.621 0.568,4.055 0.568,4.055 0,0 -1.262,-6.288 1.004,-6.402 1.971,-0.082 2.367,0.642 2.408,1.88 0.043,1.184 -0.172,3.038 -0.172,3.038 m -0.041,-4.136 c 0,0 1.047,-1.384 2.18,0.088 l -0.213,2.871 m 0.141,-2.176 c 0,0 0.185,-1.469 1.539,-1.074 m -17.899,-0.747 c 0,0 0.059,-1.316 -0.129,-2.058 m 1.606,1.949 c 0,0 0.359,-1.241 -0.198,-2.879 -0.527,-1.672 -0.652,-1.723 -0.689,-1.77 m 3.055,5.11 c 0,0 0.441,-1.973 -0.346,-5.315 m 3.615,4.963 c 0,0 -0.648,-2.699 -0.648,-4.758 m 2.568,4.758 c 0,0 -0.205,-1.953 -0.156,-2.436 m 2.516,2.996 c 0,0 -0.348,-0.953 0.347,-2.703 m 2.272,2.495 c 0,0 -0.266,-1.014 0.396,-2.551 m 2.049,2.946 c 0,0 -0.348,-1.177 0.125,-2.761 M -6.826,-40.144 c 0,0 -0.481,-1.888 1.545,-4.702 m 6.072,-0.914 c 0,0 1.057,-1.466 3.1,-2.24 m -15.1,43.521 c 0,0 -0.955,-2.184 -1.33,-4.577 -0.328,-2.388 -1.389,-4.132 -1.041,-6.173 0.351,-2.057 1.041,-2.178 1.041,-2.178 m -0.58,-7.116 c 0,0 -0.494,-3.563 -0.334,-3.878 m 5.707,6.236 c 0,0 0.564,-3.392 -0.529,-5.965 -1.094,-2.565 -2.664,-4.793 -3.454,-5.705"
                   style="fill:none;stroke:#4f4c4d;stroke-width:0.41499999;stroke-linecap:round;stroke-linejoin:miter;stroke-miterlimit:4;stroke-dasharray:none;stroke-opacity:1"
                   id="path3549"
                   inkscape:connector-curvature="0" /></g><g
                 transform="translate(142.3726,70.7373)"
                 id="g3551"><path
                   d="M 0,0 C 0,0 5.361,-2.338 13.209,2.959"
                   style="fill:none;stroke:#4f4c4d;stroke-width:0.41499999;stroke-linecap:butt;stroke-linejoin:miter;stroke-miterlimit:4;stroke-dasharray:none;stroke-opacity:1"
                   id="path3553"
                   inkscape:connector-curvature="0" /></g><g
                 transform="translate(142.2925,84.9404)"
                 id="g3555"><path
                   d="M 0,0 C 0,0 4.436,-2.455 7.437,-0.463"
                   style="fill:none;stroke:#4f4c4d;stroke-width:0.41499999;stroke-linecap:butt;stroke-linejoin:miter;stroke-miterlimit:4;stroke-dasharray:none;stroke-opacity:1"
                   id="path3557"
                   inkscape:connector-curvature="0" /></g><g
                 transform="translate(131.0581,76.8721)"
                 id="g3559"><path
                   d="M 0,0 C 0,0 12.848,-4.019 20.674,1.297"
                   style="fill:none;stroke:#4f4c4d;stroke-width:0.41499999;stroke-linecap:butt;stroke-linejoin:miter;stroke-miterlimit:4;stroke-dasharray:none;stroke-opacity:1"
                   id="path3561"
                   inkscape:connector-curvature="0" /></g><g
                 transform="translate(54.9272,67.2275)"
                 id="g3563"><path
                   d="M 0,0 -0.145,-3.825"
                   style="fill:none;stroke:#4f4c4d;stroke-width:0.41499999;stroke-linecap:butt;stroke-linejoin:miter;stroke-miterlimit:4;stroke-dasharray:none;stroke-opacity:1"
                   id="path3565"
                   inkscape:connector-curvature="0" /></g><g
                 transform="translate(169.687,64.3604)"
                 id="g3567"><path
                   d="m 0,0 3.699,0 0,-7.901 -122.619,0 0,7.002 34.508,0"
                   style="fill:none;stroke:#4f4c4d;stroke-width:0.41499999;stroke-linecap:butt;stroke-linejoin:miter;stroke-miterlimit:4;stroke-dasharray:none;stroke-opacity:1"
                   id="path3569"
                   inkscape:connector-curvature="0" /></g><g
                 transform="translate(82.4272,20.9063)"
                 id="g3571"><path
                   d="m 0,0 c 0.898,3.372 -0.701,6.069 -3.463,7.142 -3.887,1.513 -7.43,-0.806 -9.047,-4.954 -1.568,-4.01 -0.543,-8.146 3.344,-9.638 3.096,-1.204 6.109,0.166 7.734,3.529 l -2.664,1.051 c -0.922,-1.753 -2.371,-2.678 -4.06,-2.015 -2.489,0.964 -2.498,3.679 -1.61,5.988 0.971,2.445 2.836,4.413 5.291,3.462 C -3.1,4.034 -2.32,2.502 -2.684,1.067 L 0,0 Z m 9.252,-12.483 2.957,-0.408 0.855,6.394 5.399,-0.707 -0.863,-6.411 2.935,-0.399 1.996,14.847 -2.937,0.387 -0.776,-5.701 -5.396,0.733 0.76,5.69 -2.934,0.394 -1.996,-14.819 z m 20.273,-1.678 2.95,0.027 -0.135,14.967 -2.951,-0.062 0.136,-14.932 z m 11.993,0.703 9.408,1.475 -0.428,2.732 -6.478,-1.011 -1.895,12.041 -2.918,-0.436 2.311,-14.801 z m 19.701,4.381 9.599,3.517 -0.941,2.599 -6.816,-2.505 -1.266,3.436 6.146,2.251 L 67.049,2.634 60.928,0.378 59.82,3.396 66.496,5.849 65.52,8.442 56.092,4.978 61.219,-9.077 Z"
                   style="fill:#4f4c4d;fill-opacity:1;fill-rule:nonzero;stroke:none"
                   id="path3573"
                   inkscape:connector-curvature="0" /></g><g
                 transform="translate(26.6499,58.4268)"
                 id="g3575"><path
                   d="m 0,0 c -2.619,-2.291 -2.773,-5.421 -1.061,-7.853 2.379,-3.418 6.616,-3.443 10.264,-0.897 3.529,2.499 4.953,6.492 2.559,9.898 C 9.867,3.85 6.592,4.389 3.35,2.477 L 4.996,0.145 C 6.738,1.078 8.465,1.06 9.512,-0.432 11.027,-2.604 9.535,-4.869 7.498,-6.313 5.359,-7.817 2.713,-8.436 1.201,-6.268 c -0.865,1.229 -0.65,2.909 0.445,3.92 L 0,0 Z m 0.551,3.743 c 3.847,1.939 5.857,5.661 3.984,9.401 -1.842,3.718 -6.023,4.389 -9.887,2.463 C -9.338,13.646 -11.344,9.897 -9.49,6.162 -7.65,2.428 -3.457,1.783 0.551,3.743 m -1.33,2.661 c -2.358,-1.168 -5.057,-1.386 -6.223,0.993 -1.205,2.384 0.619,4.41 2.969,5.572 2.219,1.087 4.929,1.322 6.121,-1.068 C 3.262,9.511 1.457,7.493 -0.779,6.404 m 1.371,14.488 -0.836,2.629 -9.539,-3.065 -0.022,0.04 7.828,8.398 -0.9,2.821 -14.244,-4.591 0.848,-2.62 9.558,3.06 0.014,-0.028 -7.852,-8.423 0.885,-2.79 14.26,4.569 z m -4.414,16.405 -0.49,2.911 -12.008,-1.984 -0.688,3.98 -2.713,-0.433 1.778,-10.908 2.742,0.454 -0.656,3.979 12.035,2.001 z m -1.244,8.502 -0.047,2.954 -5.866,-0.11 -0.042,2.964 c -0.03,1.502 0.654,2.047 2.228,2.293 1.17,0.173 2.631,0.163 3.566,0.536 l -0.068,2.966 c -0.81,-0.544 -2.59,-0.574 -3.516,-0.632 -1.523,-0.142 -3.078,-0.576 -3.47,-2.043 l -0.045,0 c -0.69,1.486 -2.045,2.101 -3.795,2.059 -2.264,-0.034 -4.078,-1.599 -4.072,-4.006 l 0.156,-7.269 14.971,0.288 z m -12.446,2.719 -0.082,3.258 c -0.017,1.333 0.586,2.042 2.041,2.072 1.496,0.016 2.153,-0.681 2.184,-2.005 l 0.053,-3.248 -4.196,-0.077 z m 12.258,9.508 0.377,2.947 -3.18,1.487 0.631,4.993 3.422,0.604 0.4,3.046 -15.494,-3.136 -0.381,-3.004 14.225,-6.937 z m -10.369,7.947 0,0.018 5.652,1.012 -0.424,-3.469 -5.228,2.439 z m 12.404,6.298 2.518,9.191 -2.664,0.724 -1.74,-6.326 -11.758,3.22 -0.782,-2.851 14.426,-3.958 z m -4.052,13.257 c 3.964,-1.717 8.099,-0.837 9.773,2.971 1.678,3.823 -0.525,7.441 -4.479,9.183 -4.07,1.767 -8.226,0.91 -9.896,-2.911 -1.674,-3.832 0.529,-7.449 4.602,-9.243 m 1.191,2.734 c -2.422,1.037 -4.315,2.973 -3.236,5.401 1.056,2.45 3.748,2.358 6.156,1.288 2.287,-0.99 4.193,-2.908 3.137,-5.35 -1.069,-2.435 -3.793,-2.339 -6.057,-1.339 m 11.978,8.239 1.563,2.513 -4.959,3.08 1.56,2.523 c 0.79,1.275 1.67,1.363 3.125,0.718 1.081,-0.512 2.301,-1.305 3.28,-1.513 l 1.582,2.519 c -0.992,0 -2.479,0.943 -3.313,1.387 -1.328,0.718 -2.884,1.195 -4.021,0.192 l -0.018,0.026 c 0.205,1.612 -0.564,2.849 -2.076,3.79 -1.904,1.209 -4.293,0.891 -5.578,-1.152 l -3.85,-6.162 12.705,-7.921 z m -8.964,9.082 1.72,2.755 c 0.703,1.114 1.608,1.385 2.832,0.614 1.297,-0.793 1.446,-1.734 0.746,-2.843 l -1.718,-2.766 -3.58,2.24 z m 16.408,2.043 1.785,2.342 -11.83,9.149 -1.811,-2.355 11.856,-9.136 z m 2.33,3.158 2.058,2.179 -1.687,3.079 3.461,3.654 3.135,-1.559 2.099,2.219 -14.345,6.631 -2.077,-2.209 7.356,-13.994 z M 12,123.329 l 0.049,0.024 5.142,-2.553 -2.384,-2.527 -2.807,5.056 z m 25.785,6.446 1.545,1.092 -4.654,6.638 -4.629,-3.263 1.406,-1.995 2.449,1.697 c 1.043,-1.797 0.801,-3.371 -0.798,-4.485 -2.161,-1.532 -4.422,-0.033 -5.86,2.008 -1.502,2.15 -2.131,4.774 0.041,6.296 1.162,0.818 2.559,0.743 3.787,-0.414 l 2.328,1.613 c -2.22,2.613 -5.443,2.657 -7.705,1.083 -3.402,-2.399 -3.418,-6.63 -0.865,-10.29 2.475,-3.505 6.461,-4.947 9.873,-2.559 1.067,0.747 1.856,1.996 1.856,3.815 l 1.226,-1.236 z m 3.844,2.108 9.156,4.526 -1.232,2.487 -6.506,-3.228 -1.623,3.286 5.842,2.904 -1.149,2.287 -5.847,-2.911 -1.43,2.879 6.4,3.171 -1.242,2.47 -9.035,-4.471 6.666,-13.4 z m 11.146,5.166 2.631,0.846 -3.064,9.531 0.031,0.021 8.393,-7.81 2.826,0.883 -4.569,14.25 -2.648,-0.839 3.092,-9.568 -0.051,-0.008 -8.418,7.837 -2.807,-0.895 4.584,-14.248 z m 13.473,3.889 10.084,1.649 -0.461,2.725 -7.162,-1.186 -0.594,3.616 6.448,1.075 -0.422,2.536 -6.438,-1.079 -0.533,3.171 7.037,1.144 -0.469,2.748 -9.927,-1.653 2.437,-14.746 z m 12.127,1.672 2.975,0.06 -0.114,5.843 2.967,0.056 c 1.488,0.035 2.061,-0.639 2.276,-2.215 0.179,-1.198 0.179,-2.636 0.558,-3.58 l 2.942,0.069 c -0.532,0.812 -0.557,2.585 -0.616,3.521 -0.133,1.51 -0.588,3.077 -2.029,3.471 l 0,0.033 c 1.449,0.715 2.082,2.03 2.047,3.8 -0.037,2.262 -1.6,4.094 -4.014,4.061 l -7.262,-0.163 0.27,-14.956 z m 2.748,12.483 3.242,0.041 c 1.315,0.014 2.041,-0.583 2.069,-2.036 0.031,-1.512 -0.694,-2.143 -1.981,-2.17 l -3.252,-0.06 -0.078,4.225 z m 9.492,-12.464 2.969,-0.358 1.467,3.177 4.984,-0.621 0.6,-3.454 3.064,-0.381 -3.142,15.479 -3.018,0.383 -6.924,-14.225 z m 7.918,10.373 0.043,0 1,-5.65 -3.451,0.428 2.408,5.222 z m 6.285,-12.547 9.198,-2.521 0.713,2.671 -6.315,1.724 3.215,11.758 -2.84,0.798 -3.971,-14.43 z m 15.219,-4.918 5.195,-2.576 c 3.682,-1.838 6.897,0.173 8.817,4.062 2.222,4.45 0.953,7.789 -2.166,9.341 l -5.221,2.59 -6.625,-13.417 z m 8.051,9.619 1.904,-0.936 c 2.617,-1.321 2.617,-3.456 1.262,-6.163 -1.461,-2.98 -3.461,-3.309 -4.994,-2.543 l -2.362,1.185 4.19,8.457 z m 4.328,-16.176 8.387,-5.848 1.592,2.29 -5.995,4.133 2.121,3.021 5.356,-3.744 1.449,2.102 -5.353,3.737 1.839,2.632 5.827,-4.059 1.582,2.264 -8.282,5.755 -8.523,-12.283 z m 13.486,-10.404 6.598,-6.888 2.01,1.91 -4.551,4.756 8.812,8.431 -2.031,2.126 -10.838,-10.335 z m 6.604,-6.915 1.853,-2.368 3.266,1.219 3.107,-3.977 -1.996,-2.848 1.873,-2.422 8.719,13.17 -1.877,2.392 -14.945,-5.166 z m 12.955,1.747 0.01,-0.035 -3.285,-4.708 -2.145,2.74 5.42,2.003 z m -2.08,-17.538 1.316,-2.655 5.237,2.611 1.316,-2.674 c 0.674,-1.336 0.287,-2.128 -1.021,-3.01 -1.01,-0.663 -2.313,-1.268 -2.981,-2.028 l 1.299,-2.64 c 0.502,0.847 2.086,1.616 2.908,2.085 1.322,0.751 2.537,1.804 2.272,3.307 l 0.025,0.02 c 1.258,-1.037 2.74,-1.013 4.33,-0.242 2.018,1.002 3.004,3.209 1.932,5.377 l -3.221,6.491 -13.412,-6.642 z m 12.43,2.873 1.455,-2.917 c 0.58,-1.182 0.338,-2.105 -0.965,-2.769 -1.36,-0.662 -2.252,-0.286 -2.819,0.899 l -1.449,2.901 3.778,1.886 z M 168.98,83.4 l 3.139,-9.743 2.625,0.846 -2.228,6.928 3.488,1.115 1.996,-6.224 2.451,0.787 -2.015,6.207 3.066,0.99 2.156,-6.774 2.641,0.839 -3.072,9.595 L 168.98,83.4 Z m 3.387,-11.792 0.487,-2.933 5.285,0.87 0.517,-3.066 c 0.549,-3.32 3.082,-4.207 5.498,-3.826 2.393,0.405 4.52,2.089 3.965,5.404 l -0.986,5.982 -14.766,-2.431 z m 12.723,-0.907 0.377,-2.265 c 0.217,-1.36 0.074,-2.626 -1.787,-2.957 -1.889,-0.298 -2.399,0.849 -2.647,2.195 l -0.381,2.286 4.438,0.741 z m 4.195,-22.756 -0.053,2.959 -9.298,-0.165 c -2.243,-0.046 -3.276,0.604 -3.317,2.732 -0.047,2.386 1.57,2.793 3.219,2.817 l 9.301,0.194 -0.071,2.958 -9.326,-0.17 c -4.051,-0.085 -5.949,-2.239 -5.888,-5.847 0.08,-3.614 2.074,-5.732 6.117,-5.651 l 9.316,0.173 z m -9.125,-6.619 -0.42,-3.198 c -0.14,-1.267 -0.836,-2.054 -2.379,-1.849 -1.515,0.192 -1.82,1.26 -1.677,2.417 l 0.39,3.136 4.086,-0.506 z m -6.254,3.764 -0.814,-6.484 c -0.315,-2.396 0.715,-4.868 3.736,-5.234 1.846,-0.245 3.332,0.41 4.051,1.959 0.492,-1.22 1.433,-2.003 2.879,-2.192 2.767,-0.354 3.892,1.27 4.228,3.81 l 0.784,6.284 -14.864,1.857 z m 11.942,-4.479 -0.336,-2.75 c -0.125,-1.045 -0.547,-1.995 -1.967,-1.805 -1.233,0.154 -1.67,0.981 -1.551,2.013 l 0.373,2.98 3.481,-0.438 z m -14.108,-8.65 -2.511,-9.193 2.664,-0.704 1.755,6.307 11.739,-3.217 0.793,2.861 -14.44,3.946 z m -3.228,-10.447 -1.061,-2.778 13.986,-5.319 1.061,2.777 -13.986,5.32 z m 1.693,-20.02 c 3.248,-1.193 6.08,0.182 7.399,2.842 1.869,3.726 -0.159,7.471 -4.151,9.429 -3.857,1.915 -8.047,1.256 -9.894,-2.478 -1.455,-2.959 -0.35,-6.091 2.845,-8.018 l 1.283,2.565 c -1.666,1.072 -2.453,2.59 -1.658,4.234 1.203,2.378 3.881,2.158 6.121,1.048 2.33,-1.168 4.151,-3.19 2.981,-5.555 -0.651,-1.334 -2.246,-1.963 -3.658,-1.487 l -1.268,-2.58 z m -9.441,3.498 -1.83,-2.375 1.996,-2.857 -3.063,-3.996 -3.281,1.237 -1.859,-2.461 14.919,-5.137 1.848,2.403 -8.73,13.186 z m 4.906,-12.093 -0.01,-0.023 -5.385,1.999 2.131,2.751 3.264,-4.727 z"
                   style="fill:#4f4c4d;fill-opacity:1;fill-rule:nonzero;stroke:none"
                   id="path3577"
                   inkscape:connector-curvature="0" /></g></g></g></g></g></g></g></svg>