<?xml version="1.0" encoding="utf-8"?>
<!-- Generator: Adobe Illustrator 22.0.0, SVG Export Plug-In . SVG Version: 6.00 Build 0)  -->
<svg version="1.1" id="Capa_1" xmlns="http://www.w3.org/2000/svg" xmlns:xlink="http://www.w3.org/1999/xlink" x="0px" y="0px"
	 viewBox="0 0 186.9 56.4" style="enable-background:new 0 0 186.9 56.4;" xml:space="preserve">
<style type="text/css">
	.st0{fill:#4E4E4E;}
	.st1{fill:#585858;}
	.st2{fill:#A63932;}
	.st3{fill:#6F9992;}
	.st4{fill:#653B80;}
	.st5{fill:#3E69A6;}
	.st6{fill:#A20077;}
	.st7{fill:#92AE48;}
	.st8{fill:#7B2127;}
	.st9{fill:#BDC741;}
</style>
<g>
	<g>
		<path class="st0" d="M67.2,12.5c1.9,0,3.6,0.7,5,1.9c0.2,0.2,0.2,0.4,0,0.6L71,16.3c-0.2,0.2-0.4,0.2-0.5,0
			c-0.9-0.8-2-1.2-3.1-1.2c-2.6,0-4.6,2.2-4.6,4.8c0,2.6,2,4.7,4.6,4.7c1.2,0,2-0.4,2.5-0.5v-1.8h-1.6c-0.2,0-0.4-0.2-0.4-0.4v-1.6
			c0-0.2,0.2-0.4,0.4-0.4h4c0.2,0,0.4,0.2,0.4,0.4v5.3c0,0.2-0.1,0.3-0.2,0.3c0,0-2.1,1.3-5.1,1.3c-4.1,0-7.4-3.3-7.4-7.4
			C59.8,15.8,63.1,12.5,67.2,12.5z"/>
		<path class="st0" d="M75.5,13.1c0-0.2,0.2-0.4,0.4-0.4h8.4c0.2,0,0.4,0.2,0.4,0.4v1.7c0,0.2-0.2,0.4-0.4,0.4h-6.1v3.4h5.1
			c0.2,0,0.4,0.2,0.4,0.4v1.7c0,0.2-0.2,0.4-0.4,0.4h-5.1v3.6h6.1c0.2,0,0.4,0.2,0.4,0.4v1.7c0,0.2-0.2,0.4-0.4,0.4h-8.4
			c-0.2,0-0.4-0.2-0.4-0.4V13.1z"/>
		<path class="st0" d="M94,12.5c4.1,0,7.4,3.3,7.4,7.4c0,4.1-3.3,7.4-7.4,7.4s-7.4-3.3-7.4-7.4C86.6,15.8,89.9,12.5,94,12.5z
			 M94,24.7c2.6,0,4.7-2.1,4.7-4.7c0-2.6-2.1-4.8-4.7-4.8s-4.7,2.2-4.7,4.8C89.3,22.5,91.4,24.7,94,24.7z"/>
		<path class="st0" d="M103.3,22.8v-1.4c0-0.2,0.2-0.4,0.4-0.4h4.6c0.2,0,0.4,0.2,0.4,0.4v1.4c0,0.2-0.2,0.4-0.4,0.4h-4.6
			C103.5,23.2,103.3,23,103.3,22.8z"/>
		<path class="st0" d="M111.5,13.1c0-0.2,0.2-0.4,0.4-0.4h4.8c2.5,0,4.6,2.1,4.6,4.6c0,2.6-2.1,4.6-4.6,4.6h-2.6v4.8
			c0,0.2-0.2,0.4-0.4,0.4h-1.9c-0.2,0-0.4-0.2-0.4-0.4V13.1z M116.5,19.4c1.2,0,2.1-0.9,2.1-2.1c0-1.1-1-2-2.1-2h-2.4v4.1H116.5z"/>
		<path class="st0" d="M130,12.5c4.1,0,7.4,3.3,7.4,7.4c0,4.1-3.3,7.4-7.4,7.4s-7.4-3.3-7.4-7.4C122.6,15.8,125.9,12.5,130,12.5z
			 M130,24.7c2.6,0,4.7-2.1,4.7-4.7c0-2.6-2.1-4.8-4.7-4.8c-2.6,0-4.7,2.2-4.7,4.8C125.3,22.5,127.4,24.7,130,24.7z"/>
		<path class="st0" d="M140.1,13.1c0-0.2,0.2-0.4,0.4-0.4h5.9c2.5,0,4.5,2,4.5,4.4c0,1.9-1.3,3.4-3,4.2l2.8,5.2
			c0.1,0.3,0,0.6-0.4,0.6h-2.2c-0.2,0-0.3-0.1-0.3-0.2l-2.7-5.5h-2.3v5.3c0,0.2-0.2,0.4-0.4,0.4h-1.9c-0.2,0-0.4-0.2-0.4-0.4V13.1z
			 M146.2,19.3c1.1,0,2-0.9,2-2.1c0-1.1-0.9-2-2-2h-3.4v4.1H146.2z"/>
		<path class="st0" d="M155.8,15.2h-3.2c-0.2,0-0.4-0.2-0.4-0.4v-1.7c0-0.2,0.2-0.4,0.4-0.4h9c0.2,0,0.4,0.2,0.4,0.4v1.7
			c0,0.2-0.2,0.4-0.4,0.4h-3.2v11.6c0,0.2-0.2,0.4-0.4,0.4h-1.9c-0.2,0-0.4-0.2-0.4-0.4V15.2z"/>
		<path class="st0" d="M161.5,26.6l6.4-13.9c0.1-0.1,0.2-0.2,0.3-0.2h0.2c0.2,0,0.3,0.1,0.4,0.2l6.3,13.9c0.1,0.3,0,0.5-0.4,0.5H173
			c-0.3,0-0.5-0.1-0.6-0.4l-1-2.2h-6.2l-1,2.2c-0.1,0.2-0.3,0.4-0.6,0.4h-1.8C161.6,27.1,161.4,26.9,161.5,26.6z M170.4,22.2
			l-2.1-4.5h-0.1l-2,4.5H170.4z"/>
		<path class="st0" d="M177,13.1c0-0.2,0.2-0.4,0.4-0.4h1.9c0.2,0,0.4,0.2,0.4,0.4v11.6h5.3c0.2,0,0.4,0.2,0.4,0.4v1.7
			c0,0.2-0.2,0.4-0.4,0.4h-7.5c-0.2,0-0.4-0.2-0.4-0.4V13.1z"/>
	</g>
	<g>
		<path class="st0" d="M59.6,41.7c0.1-0.1,0.1-0.1,0.2-0.2c0.1-0.1,0.2-0.2,0.4-0.1c0.1,0.1,0.9,0.8,1.8,0.8c0.9,0,1.5-0.6,1.5-1.2
			c0-0.7-0.7-1.2-1.9-1.7c-1.2-0.5-1.9-1-1.9-2.2c0-0.7,0.6-1.9,2.3-1.9c1.1,0,1.9,0.6,1.9,0.6c0.1,0,0.2,0.2,0.1,0.4
			c0,0.1-0.1,0.1-0.1,0.2c-0.1,0.2-0.2,0.2-0.4,0.1c-0.1,0-0.8-0.5-1.4-0.5c-1.2,0-1.5,0.7-1.5,1.2c0,0.7,0.6,1.2,1.5,1.5
			c1.5,0.6,2.4,1.2,2.4,2.4c0,1.1-1.1,2-2.3,2c-1.3,0-2.2-0.7-2.3-0.9C59.6,42,59.5,41.9,59.6,41.7z"/>
		<path class="st0" d="M65.9,35.4c0-0.1,0.1-0.2,0.2-0.2h4.3c0.1,0,0.2,0.1,0.2,0.2v0.3c0,0.1-0.1,0.2-0.2,0.2h-3.7v2.7h3.1
			c0.1,0,0.2,0.1,0.2,0.2v0.3c0,0.1-0.1,0.2-0.2,0.2h-3.1v2.8h3.7c0.1,0,0.2,0.1,0.2,0.2v0.3c0,0.1-0.1,0.2-0.2,0.2h-4.3
			c-0.1,0-0.2-0.1-0.2-0.2V35.4z"/>
		<path class="st0" d="M75.6,35.1c1.1,0,1.9,0.4,2.6,1c0.1,0.1,0.1,0.2,0,0.3L78,36.7c-0.1,0.1-0.2,0.1-0.3,0
			c-0.6-0.5-1.3-0.8-2.1-0.8c-1.7,0-3,1.4-3,3.1c0,1.7,1.3,3.1,3,3.1c0.9,0,1.5-0.4,2.1-0.8c0.1-0.1,0.2-0.1,0.3,0l0.3,0.3
			c0.1,0.1,0.1,0.2,0,0.3c-0.7,0.7-1.7,1.1-2.6,1.1c-2.2,0-3.9-1.7-3.9-3.9S73.5,35.1,75.6,35.1z"/>
		<path class="st0" d="M81,35.9h-1.9c-0.1,0-0.2-0.1-0.2-0.2v-0.3c0-0.1,0.1-0.2,0.2-0.2h4.6c0.1,0,0.2,0.1,0.2,0.2v0.3
			c0,0.1-0.1,0.2-0.2,0.2h-1.9v6.7c0,0.1-0.1,0.2-0.2,0.2h-0.4c-0.1,0-0.2-0.1-0.2-0.2V35.9z"/>
		<path class="st0" d="M88.4,35.1c2.2,0,3.9,1.7,3.9,3.9s-1.7,3.9-3.9,3.9s-3.9-1.7-3.9-3.9S86.2,35.1,88.4,35.1z M88.4,42.2
			c1.7,0,3.2-1.4,3.2-3.1c0-1.7-1.4-3.2-3.2-3.2c-1.7,0-3.1,1.4-3.1,3.2C85.2,40.8,86.6,42.2,88.4,42.2z"/>
		<path class="st0" d="M93.9,35.4c0-0.1,0.1-0.2,0.2-0.2h2.8c1.3,0,2.4,1,2.4,2.3c0,1-0.7,1.8-1.6,2.2l1.5,2.8
			c0.1,0.1,0,0.3-0.2,0.3h-0.6c-0.1,0-0.2-0.1-0.2-0.1l-1.4-2.9h-2.1v2.8c0,0.1-0.1,0.2-0.2,0.2h-0.4c-0.1,0-0.2-0.1-0.2-0.2V35.4z
			 M96.9,39.1c0.8,0,1.6-0.7,1.6-1.6c0-0.8-0.7-1.5-1.6-1.5h-2.1v3.1H96.9z"/>
		<path class="st0" d="M104.4,35.3c0-0.1,0.1-0.2,0.2-0.2h0.2c0.1,0,0.2,0.1,0.2,0.1l2.2,6c0,0,0,0,0.1,0l2.1-6
			c0-0.1,0.1-0.1,0.2-0.1h0.2c0.1,0,0.2,0.1,0.2,0.2l1.4,7.3c0,0.2,0,0.3-0.2,0.3h-0.4c-0.1,0-0.2-0.1-0.2-0.2l-1-5.6c0,0,0,0,0,0
			l-2,5.7c0,0.1-0.1,0.1-0.2,0.1H107c-0.1,0-0.2-0.1-0.2-0.1l-2-5.7c0,0,0,0,0,0l-0.9,5.6c0,0.1-0.1,0.2-0.2,0.2h-0.4
			c-0.2,0-0.2-0.1-0.2-0.3L104.4,35.3z"/>
		<path class="st0" d="M112.8,35.4c0-0.1,0.1-0.2,0.2-0.2h0.4c0.1,0,0.2,0.1,0.2,0.2v4.5c0,1.2,0.8,2.2,2,2.2c1.3,0,2.1-0.9,2.1-2.2
			v-4.6c0-0.1,0.1-0.2,0.2-0.2h0.4c0.1,0,0.2,0.1,0.2,0.2V40c0,1.7-1.2,2.9-2.9,2.9c-1.7,0-2.9-1.3-2.9-2.9V35.4z"/>
		<path class="st0" d="M120.7,35.3c0-0.1,0.1-0.2,0.2-0.2h0.3l4.9,6.1c0,0,0,0,0,0v-5.8c0-0.1,0.1-0.2,0.2-0.2h0.4
			c0.1,0,0.2,0.1,0.2,0.2v7.3c0,0.1-0.1,0.2-0.2,0.2h-0.2l-5-6.2h0v5.9c0,0.1-0.1,0.2-0.2,0.2h-0.4c-0.1,0-0.2-0.1-0.2-0.2V35.3z"/>
		<path class="st0" d="M129.1,35.4c0-0.1,0.1-0.2,0.2-0.2h0.4c0.1,0,0.2,0.1,0.2,0.2v7.2c0,0.1-0.1,0.2-0.2,0.2h-0.4
			c-0.1,0-0.2-0.1-0.2-0.2V35.4z"/>
		<path class="st0" d="M135.5,35.1c1.1,0,1.9,0.4,2.6,1c0.1,0.1,0.1,0.2,0,0.3l-0.3,0.3c-0.1,0.1-0.2,0.1-0.3,0
			c-0.6-0.5-1.3-0.8-2.1-0.8c-1.7,0-3,1.4-3,3.1c0,1.7,1.3,3.1,3,3.1c0.9,0,1.5-0.4,2.1-0.8c0.1-0.1,0.2-0.1,0.3,0l0.3,0.3
			c0.1,0.1,0.1,0.2,0,0.3c-0.7,0.7-1.7,1.1-2.6,1.1c-2.2,0-3.9-1.7-3.9-3.9S133.3,35.1,135.5,35.1z"/>
		<path class="st0" d="M139.8,35.4c0-0.1,0.1-0.2,0.2-0.2h0.4c0.1,0,0.2,0.1,0.2,0.2v7.2c0,0.1-0.1,0.2-0.2,0.2H140
			c-0.1,0-0.2-0.1-0.2-0.2V35.4z"/>
		<path class="st0" d="M142.9,35.4c0-0.1,0.1-0.2,0.2-0.2h2.4c1.3,0,2.4,1.1,2.4,2.4c0,1.3-1.1,2.4-2.4,2.4h-1.8v2.6
			c0,0.1-0.1,0.2-0.2,0.2h-0.4c-0.1,0-0.2-0.1-0.2-0.2V35.4z M145.4,39.3c0.9,0,1.7-0.7,1.7-1.7c0-0.9-0.8-1.6-1.7-1.6h-1.7v3.2
			H145.4z"/>
		<path class="st0" d="M148,42.5l3.3-7.3c0-0.1,0.1-0.1,0.2-0.1h0.1c0.1,0,0.2,0.1,0.2,0.1l3.3,7.3c0.1,0.1,0,0.3-0.2,0.3h-0.4
			c-0.1,0-0.2-0.1-0.2-0.1l-0.8-1.8h-3.9l-0.8,1.8c0,0.1-0.1,0.1-0.2,0.1h-0.4C148,42.8,147.9,42.7,148,42.5z M153.1,40.2
			c-0.5-1.2-1.1-2.4-1.6-3.6h-0.1l-1.6,3.6H153.1z"/>
		<path class="st0" d="M156.2,35.4c0-0.1,0.1-0.2,0.2-0.2h0.4c0.1,0,0.2,0.1,0.2,0.2v6.7h3.1c0.1,0,0.2,0.1,0.2,0.2v0.3
			c0,0.1-0.1,0.2-0.2,0.2h-3.8c-0.1,0-0.2-0.1-0.2-0.2V35.4z"/>
	</g>
	<g>
		<g>
			<g>
				<g>
					<path class="st1" d="M23.5,0.7c-12.1,0-22,9.9-22,22c0,12.1,9.9,22,22,22c12.1,0,22-9.9,22-22C45.5,10.6,35.6,0.7,23.5,0.7z
						 M23.5,44.4c-12,0-21.7-9.7-21.7-21.7C1.8,10.7,11.5,1,23.5,1c12,0,21.7,9.7,21.7,21.7C45.2,34.6,35.5,44.4,23.5,44.4z"/>
					<path class="st1" d="M23.5,6C14.3,6,6.8,13.5,6.8,22.7c0,9.2,7.5,16.7,16.7,16.7c9.2,0,16.7-7.5,16.7-16.7
						C40.2,13.5,32.7,6,23.5,6z M23.5,39.1c-9.1,0-16.4-7.4-16.4-16.4c0-9.1,7.4-16.4,16.4-16.4c9.1,0,16.4,7.4,16.4,16.4
						C39.9,31.8,32.6,39.1,23.5,39.1z"/>
				</g>
				<g>
					<path class="st1" d="M17.3,36.9c0.1-0.1,0.2-0.3,0.4-0.4c0.2-0.1,0.3-0.2,0.3-0.3c0.1-0.1,0.1-0.2,0.1-0.3c0-0.1,0-0.2-0.1-0.2
						c0-0.1-0.1-0.1-0.2-0.1c-0.1,0-0.2,0-0.2,0.1c0,0.1,0,0.1,0,0.3h-0.4c0-0.2,0-0.3,0.1-0.4c0.1-0.2,0.3-0.3,0.5-0.3
						c0.2,0,0.4,0.1,0.5,0.2c0.1,0.1,0.2,0.3,0.2,0.5c0,0.2,0,0.3-0.1,0.4c-0.1,0.1-0.1,0.2-0.3,0.3L18,36.7
						c-0.1,0.1-0.2,0.1-0.2,0.2c0,0-0.1,0.1-0.1,0.1h0.8v0.4h-1.3C17.2,37.2,17.3,37,17.3,36.9"/>
				</g>
				<g>
					<path class="st1" d="M19.2,36.9c0.1,0.1,0.1,0.1,0.2,0.1c0.1,0,0.1,0,0.2-0.1c0-0.1,0.1-0.2,0.1-0.3c0-0.1,0-0.2-0.1-0.3
						c-0.1-0.1-0.1-0.1-0.2-0.1c-0.1,0-0.1,0-0.2,0.1c-0.1,0.1-0.1,0.2-0.1,0.3C19.1,36.8,19.1,36.9,19.2,36.9 M19.6,35.8
						c0,0,0-0.1,0-0.1c0-0.1-0.1-0.1-0.2-0.1c-0.1,0-0.2,0.1-0.3,0.2c0,0.1,0,0.2-0.1,0.4c0-0.1,0.1-0.1,0.2-0.1c0.1,0,0.1,0,0.2,0
						c0.2,0,0.3,0.1,0.4,0.2c0.1,0.1,0.2,0.3,0.2,0.5c0,0.2-0.1,0.4-0.2,0.5c-0.1,0.1-0.3,0.2-0.5,0.2c-0.2,0-0.4-0.1-0.5-0.3
						c-0.1-0.2-0.1-0.4-0.1-0.7c0-0.2,0-0.3,0-0.4c0-0.2,0.1-0.3,0.1-0.4c0.1-0.1,0.1-0.2,0.2-0.2c0.1-0.1,0.2-0.1,0.3-0.1
						c0.2,0,0.3,0,0.4,0.1c0.1,0.1,0.2,0.2,0.2,0.4H19.6z"/>
				</g>
				<g>
					<rect x="20.2" y="36.3" class="st1" width="0.7" height="0.4"/>
				</g>
				<g>
					<rect x="21.2" y="35.2" class="st1" width="0.4" height="2.1"/>
				</g>
				<g>
					<rect x="21.9" y="35.2" class="st1" width="0.4" height="2.1"/>
				</g>
				<g>
					<rect x="22.7" y="35.2" class="st1" width="0.4" height="2.1"/>
				</g>
				<g>
					<rect x="23.3" y="36.3" class="st1" width="0.7" height="0.4"/>
				</g>
				<g>
					<path class="st1" d="M24.4,35.9v-0.3c0.1,0,0.2,0,0.2,0c0.1,0,0.1,0,0.2-0.1c0,0,0.1-0.1,0.1-0.1c0,0,0-0.1,0-0.1h0.3v2.1h-0.4
						v-1.4H24.4z"/>
				</g>
				<g>
					<path class="st1" d="M26.5,36.3c0.1-0.1,0.1-0.2,0.1-0.3c0-0.1,0-0.2-0.1-0.3c0-0.1-0.1-0.1-0.2-0.1c-0.1,0-0.1,0-0.2,0.1
						c-0.1,0.1-0.1,0.2-0.1,0.3c0,0.1,0,0.2,0.1,0.3c0,0.1,0.1,0.1,0.2,0.1C26.4,36.3,26.5,36.3,26.5,36.3 M25.9,35.5
						c0.1-0.1,0.3-0.2,0.4-0.2c0.3,0,0.5,0.1,0.6,0.4C27,35.8,27,36,27,36.3c0,0.2,0,0.5-0.1,0.6c-0.1,0.3-0.3,0.5-0.6,0.5
						c-0.1,0-0.3,0-0.4-0.1c-0.1-0.1-0.2-0.2-0.2-0.4h0.4c0,0.1,0,0.1,0.1,0.1c0,0,0.1,0.1,0.1,0.1c0.1,0,0.2-0.1,0.3-0.2
						c0-0.1,0-0.2,0-0.4c0,0-0.1,0.1-0.1,0.1c-0.1,0-0.2,0.1-0.3,0.1c-0.1,0-0.3-0.1-0.4-0.2c-0.1-0.1-0.2-0.3-0.2-0.5
						C25.7,35.8,25.8,35.6,25.9,35.5"/>
				</g>
				<g>
					<path class="st1" d="M27.3,36.9c0-0.1,0.2-0.3,0.4-0.4c0.2-0.1,0.3-0.2,0.3-0.3c0.1-0.1,0.1-0.2,0.1-0.3c0-0.1,0-0.2-0.1-0.2
						c0-0.1-0.1-0.1-0.2-0.1c-0.1,0-0.2,0-0.2,0.1c0,0.1,0,0.1,0,0.3h-0.4c0-0.2,0-0.3,0.1-0.4c0.1-0.2,0.3-0.3,0.5-0.3
						c0.2,0,0.4,0.1,0.5,0.2c0.1,0.1,0.2,0.3,0.2,0.5c0,0.2,0,0.3-0.1,0.4c-0.1,0.1-0.1,0.2-0.3,0.3L28,36.7
						c-0.1,0.1-0.2,0.1-0.2,0.2c0,0-0.1,0.1-0.1,0.1h0.8v0.4h-1.3C27.2,37.2,27.3,37,27.3,36.9"/>
				</g>
				<g>
					<path class="st1" d="M30,35.6c-0.1,0.1-0.1,0.2-0.2,0.3c-0.1,0.2-0.2,0.3-0.2,0.5c-0.1,0.1-0.1,0.3-0.1,0.5
						c0,0.2-0.1,0.3-0.1,0.5H29c0-0.4,0.1-0.8,0.3-1.2c0.1-0.2,0.2-0.4,0.3-0.5h-0.9l0-0.4H30V35.6z"/>
				</g>
				<g>
					<path class="st1" d="M34.3,31.8l0-1.5h-2v-0.2l2.3,0v-0.4l-2.8,0l0-0.2l3,0v0.8h-0.3l0,1.5L34.3,31.8z M33.9,31.5h-0.2v-0.8
						h-1.2v-0.2h1.4V31.5z"/>
				</g>
				<g>
					<path class="st1" d="M16.6,32.1c-0.2,0-0.8-0.1-1-0.6l0.2-0.1c0.2,0.5,0.9,0.5,0.9,0.5c0.6-0.2,0.5-0.7,0.5-0.7l0.2,0
						C17.4,31.1,17.5,31.8,16.6,32.1C16.7,32.1,16.7,32.1,16.6,32.1z"/>
				</g>
				<g>
					<path class="st1" d="M23.1,33.2c-0.1,0-0.1,0-0.1,0c-0.7-0.2-1.1-0.1-1.1-0.1l0,0c-1.1,0-1.4-0.2-1.6-0.3l-0.1,0
						c-0.2-0.1,0-0.4,0.1-0.6c0,0,0.1-0.1,0.1-0.1c0,0,0-0.1,0-0.2c0.1-0.2,0.1-0.4,0.2-0.5c0,0,0-0.1,0.1-0.1
						c-0.3,0-0.5-0.1-0.6-0.1c0,0,0,0,0,0.2l0,0c0.1,0.1,0.2,0.5-0.2,1.1c-0.2,0.2-0.4,0.3-0.6,0.3c-0.4,0-0.8-0.2-1-0.4
						c-0.3-0.2-0.1-0.8,0-1c0-0.1,0-0.1,0-0.2c0,0,0,0-0.1,0c-0.2,0-0.5-0.1-0.6-0.2l0.1-0.2c0.2,0.1,0.4,0.2,0.5,0.2
						c0.1,0,0.2,0,0.3,0.1c0,0,0.1,0.2,0,0.4c-0.1,0.3-0.2,0.7,0,0.8c0.1,0.1,0.5,0.3,0.9,0.3c0.2,0,0.4-0.1,0.5-0.2
						c0.4-0.4,0.2-0.7,0.2-0.8c0,0,0,0,0-0.1c0-0.1-0.1-0.3,0-0.4c0,0,0.1-0.1,0.2-0.1l0,0c0,0,0.3,0.1,0.6,0.1l0.1,0l0,0.1
						c0,0.1,0,0.2-0.1,0.3c-0.1,0.1-0.1,0.3-0.2,0.4c0,0.1,0,0.1-0.1,0.2c0,0,0,0.1-0.1,0.1c0,0.1-0.2,0.3-0.2,0.3l0.1,0
						c0.2,0.1,0.5,0.3,1.5,0.3c0.1,0,0.5-0.1,1.2,0.1l0,0c0,0,0.2,0,0.7-0.1c0.4-0.1,0.6-0.1,0.8,0c0.1,0,0.2,0,0.4,0
						c0.1,0,0.2,0,0.4-0.1c0.3-0.1,0.6-0.2,1.4,0c0,0,0.4,0.1,0.8,0c0.4-0.1,0.5,0,0.6,0c0.1,0,0.1,0,0.2,0.1c0.3,0,0.4,0,0.5-0.1
						l0,0c0.2-0.1,0.8,0.1,0.9,0.1c0.3,0.1,0.6-0.1,0.8-0.1c0,0,0,0,0.1,0c0.2-0.1,0.6-0.1,0.8,0c0.1,0,0.7-0.1,0.8-0.7l0,0l0,0
						c0.3-0.1,0.8-0.3,0.9-0.6c0,0,0-0.1-0.2-0.1l-0.2,0l0.1-0.1c0,0-0.1-0.2-0.5-0.4l0,0l0,0c0,0-0.1-0.3-0.5-0.5l-0.1,0l0-0.1l0,0
						c0,0,0-0.2-0.3-0.4c-0.4-0.4-0.4-0.5-0.4-0.5l0,0l0,0l0,0c0,0,0.2-0.2-0.1-0.6l-0.4-0.6l0.2,0c0,0,0,0,0-0.1
						c0-0.1,0.1-0.2,0.1-0.2c0.1,0,0.1-0.1,0.1-0.3l0,0l0,0c0,0,0.1-0.5,0-1l0-0.1l0.1,0c0,0,0.2-0.1,0.3-0.1c0.1,0,0.1,0,0.1-0.1
						c0-0.1,0-0.3-0.2-0.8c-0.4-0.9-0.7-2.7-0.7-2.9l-0.2-1c0,0,0-0.5-0.5-0.7c0,0,0,0.1-0.1,0.1C30.1,21,30,21.3,30,21.5
						c0,0,0,0.1,0,0.1c0,0.1,0.1,0.5-0.1,0.9c-0.1,0.3-0.3,0.6-0.6,0.8c-0.8,0.5-1.2,0.5-1.6,0.3l0,0l-1.4-0.4c0,0.3,0,0.8-0.1,1.3
						c-0.1,0.3-0.2,0.6-0.2,0.7c-0.1,0.3-0.1,0.4-0.2,0.6c0,0-0.1,1.1-1.3,2.1c0,0-0.8,0.5-1.4,0.5c-0.8,0.3-0.8,0.3-1,0.4l0,0l0,0
						c-0.4,0.2-1,0.2-1.4,0c-0.3-0.2-0.4-0.2-0.6-0.2c-0.1,0-0.3-0.1-0.5-0.2l0.1-0.2c0.2,0.1,0.3,0.1,0.5,0.2
						c0.2,0,0.3,0.1,0.6,0.3c0.3,0.2,0.9,0.2,1.4-0.1l0,0c0.1,0,0.3-0.1,0.9-0.4c0.5-0.1,1.3-0.5,1.3-0.5c0.9-0.8,1.2-1.7,1.2-2
						c0-0.2,0.1-0.3,0.2-0.6c0.1-0.2,0.1-0.4,0.2-0.7c0.2-0.7,0.1-1.3,0.1-1.4c0-0.1-0.2-0.8-1.2-1.5c-1-0.7-1.6-1.6-1.8-2.1
						c-0.1,0-0.2,0.1-0.3,0.1c-0.2,0-0.3,0-0.4,0c0,0,0,0,0,0c0,0-0.1,0-0.1,0c0,0.1,0,0.2,0,0.3c0,0,0,0.1,0,0.1
						c0.1,0.2,0.2,0.6,0.3,1l0,0l0,0c0,0.1,0.1,0.3,0.7,0.7c0.5,0.3,0.5,0.3,0.6,0.3c0.1,0,0.1,0,0.4,0.1c0.5,0.2,0.8,0.4,0.9,0.6
						L25,22.9c-0.3-0.1-0.6-0.1-0.6-0.1l0,0l0,0c-0.2,0-0.3-0.1-0.4-0.1l0,0l-0.1,0c-0.1,0-0.2-0.1-0.4,0c-0.1,0-0.3,0.3-0.4,0.5
						c-0.2,0.3-0.4,0.6-0.7,0.8c-0.5,0.4-0.7,0.6-1.6,0.7C20,24.9,19,24.9,18,24.1c0,0-0.3-0.3-0.4-0.8c-0.1-0.2,0-0.4,0-0.5
						c0-0.1,0-0.7,0.3-1.1c0.3-0.4,0.2-0.6,0.2-0.6c0,0,0-0.1,0-0.1c0,0,0-0.1,0-0.2c0-0.3,0-0.5,0.1-0.7c-0.1-0.1-0.2-0.2-0.2-0.4
						c-0.1-0.1-0.1-0.2-0.2-0.2c-0.2-0.1-0.9-0.4-0.9-1.6c0,0-0.2-0.7-0.1-1.3c0-0.1,0-0.1,0.1-0.2c0.1-0.6,0.3-1.3,1.3-1.6
						c0-0.1,0.1-0.1,0.1-0.2c-0.5,0.2-1.3,0.6-1.7,1.4c0,0-0.5,0.6-0.9,2.6c0,0-0.2,0.6-0.1,1.2c0.1,0.7,0.2,1.3,0.2,1.3
						c0,0,0.1,0.8,0.1,1.1c0,0,0,1.3,0.2,2.2l-0.2,0c-0.2-1-0.2-2.3-0.2-2.3c0-0.4-0.1-1.1-0.1-1.1c0,0-0.1-0.6-0.2-1.3
						c-0.1-0.6,0.1-1.2,0.1-1.2c0.4-2.1,0.9-2.6,0.9-2.6c0.6-1,1.7-1.5,2.1-1.6l0,0l0.1,0c0,0,0,0,0.1,0l0.2-0.1l0,0
						c0.1,0,0.2-0.1,0.2-0.1c0,0,0-0.1,0-0.1c-0.1,0-0.2,0-0.3,0c-0.4,0.1-0.7,0.1-0.9-0.1c-0.1-0.1-0.3-0.4-0.2-0.5
						c0,0,0.1-0.1,0-0.2c-0.1-0.1,0-0.3,0-0.4c0,0,0-0.1,0.1-0.2c0.1-0.1,0.1-0.1,0.1-0.2c0-0.1,0-0.2,0.1-0.3c0,0,0,0,0,0l0,0l0,0
						c0,0,0.1-0.2,0.2-0.3c0-0.2,0.1-0.7,0.5-1c0.1-0.1,0.2-0.5,0.6-0.5c0.1-0.1,0.3-0.2,0.4-0.2c0.1-0.1,0.3-0.2,0.4-0.3
						c0.1,0,0.1,0,0.2,0c0.1-0.1,0.2-0.2,0.4-0.2h0c0,0,0.1,0,0.2,0.1c0.1-0.1,0.2-0.2,0.4-0.2c0.1,0,0.1,0,0.1,0
						c0.1-0.1,0.3-0.2,0.4-0.1c0,0,0.1,0,0.1,0.1c0.1,0,0.3,0,0.4,0.1c0.1,0.1,0.1,0.2,0.1,0.3c-0.1,0.2-0.1,0.3-0.2,0.3
						c0,0-0.1,0-0.1,0.1c0.1,0.1,0.1,0.2,0.1,0.2c0,0.2,0,0.3-0.1,0.4c-0.1,0.5-0.1,0.6-0.1,0.7c0,0.1,0.1,0.4,0.2,0.5l0,0
						c0.1,0.2,0.2,0.4,0.1,0.5c0,0.1-0.1,0.1-0.1,0.1c-0.1,0-0.1,0-0.1,0c0,0,0,0,0,0c0,0.1,0,0.2,0,0.3c0,0,0,0,0,0c0,0,0,0,0,0
						c0,0.1,0,0.1-0.1,0.1c0,0,0,0,0,0.1c0,0.1,0.1,0.2,0,0.3c-0.1,0.1-0.2,0.2-0.3,0.2c-0.1,0-0.2,0-0.2,0c0.2,0.1,0.5,0.2,0.9,0.4
						c0.4,0.3,0.5,0.4,0.7,0.5c0.1,0.1,0.1,0.1,0.2,0.2c0.3,0.2,0.8,0.5,0.9,0.5c0.1,0,0.1,0.1,0.2,0.1l0.6-1.8l0.6,0.2
						c0.1-0.1,0.4-0.3,0.8-0.4l-0.1-0.6c-0.1,0-0.4,0-0.5,0l0,0c-0.1,0-0.2-0.1-0.2-0.2c0-0.1,0.1-0.2,0.3-0.2c0,0-0.1-0.1-0.1-0.1
						c0,0,0-0.1,0-0.1c0.1-0.1,0.2-0.1,0.3-0.1l0,0l0,0c0-0.1,0-0.1,0.1-0.1c0.1-0.1,0.2,0,0.3,0.1l0.1,0.2c0,0,0,0,0,0
						c0,0,0-0.1,0-0.1c0-0.1,0.1-0.1,0.2-0.1c0,0,0,0,0,0c-0.1,0-0.1-0.1-0.1-0.2c0,0,0-0.1,0.1-0.1c0,0,0.1-0.1,0.1-0.1
						c0.1,0,0.2,0.1,0.2,0.1l0.1,0.1c0-0.1,0.1-0.2,0.1-0.2l0,0l0,0c0.2,0,0.2,0.1,0.3,0.2l0.1,0.4c0.1,0,0.2,0,0.2,0.1
						c0,0,0,0.1,0,0.1l0.6,0.5l0,0c0.1,0.1,0.2,0.1,0.3,0.2c0.1-0.1,0.2-0.1,0.3,0l0,0c0,0,0,0.1,0.1,0.1c0.1,0,0.2,0,0.2,0
						c0.1,0,0.1,0.1,0.1,0.1c0.1,0,0.2,0,0.3,0.1c0.1,0.1,0.1,0.2,0.1,0.2c0.3,0.1,0.4,0.4,0.3,0.6l0,0c0.1,0.1,0.3,0.4,0.5,0.8l0,0
						l0.8,0.7c0,0,0,0,0,0c0,0,0.1,0,0.1,0.1c0,0,0.1,0.1,0.1,0.1c0,0,0,0,0,0l0.3,0.1c0.1,0,0.2,0.1,0.2,0.2c0,0.1-0.1,0.1-0.2,0.1
						l0,0l-0.2-0.1l0.2,0.2c0,0.1,0,0.2-0.1,0.2c-0.1,0-0.2,0-0.3-0.1c0,0-0.1-0.2-0.2-0.3c-0.1,0-0.2,0-0.2,0c0,0,0-0.1,0-0.1
						l-0.2-0.2c0,0.2,0,0.4,0,0.5c0,0.3,0,0.5,0.2,1c0,0.1,0.2,0.5,0.2,0.6c-0.1,0.3-0.3,0.5-0.7,0.6l0,0.2c0,0,0,0.9-0.3,1.4
						c0,0,0,0,0,0c0.6,0.3,0.6,0.9,0.6,0.9l0.2,1c0,0.1,0.3,1.9,0.7,2.8c0.2,0.5,0.2,0.8,0.1,0.9c-0.1,0.1-0.2,0.1-0.3,0.2
						c-0.1,0-0.2,0-0.2,0.1c0.1,0.4,0,0.8,0,0.9c0.1,0.3,0,0.4-0.1,0.5c0,0,0,0,0,0.1c0,0.1,0,0.2-0.1,0.2l0.3,0.4c0,0,0,0.1,0,0.1
						l0,0c0,0,0.6,0.2,1,0.5c0.3,0.2,0.4,0.2,0.4,0.2c0.1,0,0.4,0,0.6,0.1c0,0.1,0.1,0.1,0,0.2c-0.1,0.2-0.4,0.3-0.7,0.2
						c-0.1,0-0.1,0-0.2,0c-0.1,0-0.2,0.1-0.6,0.1c0.2,0.2,0.2,0.3,0.2,0.4c0.3,0.2,0.4,0.5,0.5,0.5c0.4,0.2,0.5,0.4,0.5,0.5
						c0.2,0.1,0.2,0.2,0.2,0.3l0,0c-0.1,0.3-0.8,0.6-1,0.7c-0.2,0.6-0.8,0.8-1.1,0.8c-0.1,0-0.6,0-0.7,0l-0.1,0
						c-0.2,0.1-0.6,0.2-0.9,0.1C29.3,33,29,33,28.9,33l0,0c-0.1,0-0.2,0.1-0.6,0.1c-0.1,0-0.2,0-0.3-0.1c-0.1,0-0.2-0.1-0.5,0
						c-0.5,0.1-0.8,0-0.9,0c-0.8-0.1-1.1,0-1.3,0c-0.1,0-0.2,0.1-0.4,0.1c-0.2,0-0.3,0-0.4,0c-0.2,0-0.4-0.1-0.8,0
						C23.4,33.2,23.2,33.2,23.1,33.2z M32.6,29.5c0,0,0.1,0,0.2,0c0.3,0.1,0.5,0,0.5,0c0-0.1-0.2-0.1-0.4-0.1c0,0-0.2,0-0.6-0.2
						c-0.2-0.2-0.6-0.3-0.8-0.4c0.1,0.3,0,0.4,0,0.5c0,0.1,0.1,0.2,0.2,0.3C32.3,29.6,32.4,29.5,32.6,29.5
						C32.5,29.5,32.5,29.5,32.6,29.5z M17.8,23.3c0.1,0.4,0.4,0.7,0.4,0.7c0.9,0.7,1.9,0.7,2.7,0.6c0.9-0.1,1.1-0.3,1.5-0.7
						c0.2-0.2,0.4-0.5,0.6-0.8c0.1-0.2,0.2-0.4,0.3-0.4c0,0,0,0,0,0c-0.7-0.2-1.1-0.6-1-1.2c0,0,0.1-0.8-0.2-1.3l-0.1-0.2l0.2,0.1
						l0,0c0,0,0-0.1,0-0.3c-0.2-0.1-1.1-0.5-2.4-1.2c-0.2,0.4-0.7,0.9-1.4,0.7c-0.3-0.1-0.6-0.4-0.7-0.8c-0.1-0.4-0.1-0.8-0.1-0.9
						l0,0c0-0.1,0-0.4-0.1-0.6c-0.1-0.1-0.1-0.4,0-0.8c0.1-0.3,0.4-0.6,1-0.8l0,0c0,0-0.1-0.1-0.1-0.1c0,0,0-0.1-0.1-0.1
						c-0.9,0.3-1,0.9-1.1,1.4c0,0.1,0,0.2-0.1,0.2c-0.1,0.5,0.1,1.2,0.1,1.2c0.1,1.2,0.8,1.5,0.8,1.5l0.1,0l0,0.1
						c0,0,0.1,0.1,0.2,0.2l0,0l0,0.1c0,0.1,0.1,0.3,0.2,0.3l0.1,0.1l-0.1,0.1c-0.1,0.1-0.1,0.5-0.1,0.6c0,0.1,0,0.2,0,0.2
						c0,0.1,0,0.3-0.3,0.8c-0.3,0.4-0.3,0.8-0.3,1l0,0c0,0,0,0,0,0l0,0C17.7,23,17.7,23.2,17.8,23.3L17.8,23.3L17.8,23.3z
						 M28.1,23.6c0.3,0.1,0.6,0,1.2-0.4c0.1-0.1,0.2-0.1,0.2-0.2l0,0c0.3-0.3,0.4-0.6,0.4-0.9c-0.1,0.2-0.4,0.6-0.9,1
						c-0.3,0.2-0.5,0.4-0.7,0.4C28.2,23.5,28.2,23.5,28.1,23.6z M26.3,23.1l1.3,0.4l1.8-5.7l0,0l0.1-0.2l0.6-2l-0.5-0.2l0-0.1
						c0-0.2,0-0.4-0.1-0.5c0,0,0,0-0.1,0.1C29.4,15,29.3,15,29.2,15c0,0-0.1,0-0.1-0.1c-0.1,0-0.1,0.1-0.2,0.1
						c-0.1,0-0.1-0.1-0.2-0.1c-0.1,0-0.1,0-0.1,0c-0.1,0-0.1-0.2-0.1-0.2l0-0.1c0,0,0,0,0,0c0,0,0,0-0.1,0c-0.1-0.1-0.1-0.1-0.1-0.2
						l0-0.1l-0.1,0c-0.2,0-0.4,0.1-0.5,0.2l-0.1,0.1l0-0.1c0,0-0.2-0.5-0.8-0.7c-0.6-0.2-1.2,0.4-1.2,0.4l0,0L25,14l-1,3.2
						c0,0,0,0,0.1,0c0.7-0.3,0.9-0.6,1.1-0.7c0,0,0,0,0,0l0,0l0,0c0,0,0,0,0,0c0.1-0.1,0.1-0.2,0.1-0.4c0-0.1,0-0.2,0-0.3
						c0-0.3,0.2-0.4,0.2-0.5L25.3,15c0,0-0.1-0.1-0.1-0.3c0-0.2,0.2-0.2,0.3-0.2l0,0l0.5,0.3c0,0,0.1,0,0.1,0l0,0c0,0,0,0,0,0
						c0.1,0,0.2-0.2,0.4-0.1c0,0,0.1,0.1,0.1,0.1c0,0,0,0,0,0c0.1,0,0.1,0,0.1,0.1c0,0,0,0.1,0,0.1c0,0,0.1,0,0.1,0.1
						c0.1,0.1,0.1,0.2,0.1,0.2l0,0c0,0,0.1,0,0.1,0c0.1,0.1,0.1,0.1,0.1,0.2c0,0.1,0,0.1,0,0.1l-0.1-0.1l0.1,0.1
						c0,0-0.2,0.4-0.4,0.7c-0.1,0.2-0.3,0.4-0.5,0.5l0,0c0,0,0,0,0,0c0,0,0,0,0,0v0C26.2,17,26,17.1,26,17.2
						c-1.2,1.2-1.8,1.6-2.4,2.1l-0.2,0.1c-0.1,0.1-0.2,0.1-0.3,0.2c0.2,0.5,0.8,1.3,1.8,2C25.9,22.2,26.2,22.9,26.3,23.1z
						 M28.2,22.3l-0.3,1c0.2,0,0.7-0.2,0.8-0.4c0.1-0.1,0.1-0.1,0-0.2c0-0.1-0.1-0.3-0.1-0.8c0,0,0,0,0,0
						C28.5,22,28.3,22.2,28.2,22.3L28.2,22.3z M28.9,22.7c0,0.1,0,0.2,0,0.3c0.1-0.1,0.2-0.1,0.2-0.2c0,0,0,0,0.1-0.1
						C29.1,22.7,29.1,22.7,28.9,22.7L28.9,22.7L28.9,22.7z M17.8,22.8L17.8,22.8L17.8,22.8z M24.4,22.6c0,0,0.1,0,0.3,0
						c-0.1-0.1-0.3-0.2-0.6-0.3c-0.2-0.1-0.3-0.1-0.3-0.1c-0.1,0-0.1,0-0.7-0.3c-0.3-0.2-0.5-0.3-0.6-0.5c-0.1,0.7,0.4,0.9,0.8,1
						c0,0,0.1,0,0.1,0c0,0,0.1,0,0.1,0.1c0.2,0,0.4,0,0.4,0C24,22.5,24.1,22.5,24.4,22.6C24.4,22.6,24.4,22.6,24.4,22.6z M29,21.6
						c0,0.4,0,0.7,0,0.8c0.1-0.1,0.4-0.4,0.5-0.6c0.1-0.1,0.1-0.3,0.1-0.4C29.4,21.5,29.1,21.6,29,21.6z M28.7,20.6l-0.4,1.3
						c0.1-0.1,0.3-0.2,0.3-0.3c0-0.1,0-0.3,0.1-0.5c0-0.2,0.1-0.3,0.2-0.5c0,0,0,0,0-0.1C28.8,20.6,28.8,20.6,28.7,20.6z M29.2,21
						c0,0.1-0.1,0.2-0.1,0.4c0.1-0.1,0.4-0.1,0.6-0.1c0,0,0-0.1,0-0.1c0-0.2,0-0.4,0.1-0.6c-0.1,0-0.2,0-0.3,0c0,0-0.1,0.1-0.1,0.1
						c0,0,0,0,0,0C29.3,20.8,29.2,20.9,29.2,21z M29.8,21.2C29.8,21.2,29.8,21.2,29.8,21.2C29.8,21.2,29.8,21.2,29.8,21.2
						C29.8,21.2,29.8,21.1,29.8,21.2C29.8,21.1,29.8,21.2,29.8,21.2z M29.1,20.8c0,0.1-0.1,0.1-0.1,0.2c0,0,0,0,0,0
						c0.1-0.1,0.1-0.3,0.2-0.3c0,0,0-0.1,0.1-0.1c0,0,0,0.1,0,0.1C29.2,20.6,29.1,20.7,29.1,20.8z M29.9,20.7c0,0,0,0.1,0,0.1
						C29.9,20.8,29.9,20.8,29.9,20.7C29.9,20.7,29.9,20.7,29.9,20.7z M29.3,18.7l-0.6,1.7c0.1,0,0.2,0,0.3,0c0,0,0-0.1,0.1-0.1
						c0.2-0.4,0.3-0.7,0.3-0.7c0.1-0.3,0.1-0.7,0.1-0.8C29.5,18.8,29.4,18.8,29.3,18.7z M29.6,20.4c0.1,0,0.2,0,0.3,0
						c0.1-0.2,0.2-0.5,0.2-0.5c0.1-0.3,0.1-0.8,0.1-1c0,0-0.1,0-0.1,0c0,0,0,0,0,0c0,0.4-0.1,0.7-0.1,0.9
						C29.8,19.8,29.6,20.1,29.6,20.4C29.5,20.4,29.6,20.4,29.6,20.4z M30.2,19.9C30.2,19.9,30.2,20,30.2,19.9c0,0,0,0.1-0.1,0.3
						C30.2,20.1,30.2,20,30.2,19.9z M29.7,19.6C29.7,19.7,29.6,19.7,29.7,19.6c0,0.1-0.1,0.3-0.2,0.5C29.5,19.9,29.6,19.7,29.7,19.6
						C29.7,19.7,29.7,19.7,29.7,19.6z M22.4,19.5c0.1,0,0.2,0,0.3,0c0.1,0,0.3-0.1,0.6-0.3l0.2-0.1c0.6-0.4,1.2-0.9,2.3-2.1
						c0,0,0.2-0.2,0.4-0.3c0.1-0.1,0.3-0.2,0.4-0.4c0.3-0.5,0.4-0.7,0.5-0.7c0,0,0,0,0,0c0,0-0.1,0-0.1,0c0,0,0,0,0,0l-0.1,0.1
						l-0.1-0.1c-0.1-0.1,0-0.1,0.1-0.3c0,0,0,0,0,0c0,0,0,0-0.1,0c-0.1,0.1-0.1,0.1-0.1,0.2l-0.1-0.1l0.1,0.1c0,0,0,0,0,0l0,0l0,0
						c-0.1,0.1-0.1,0.1-0.1,0l-0.1-0.1l0.1-0.1l0,0c0,0,0.1-0.1,0.2-0.2l0,0c0,0,0,0,0,0c0,0-0.1,0-0.1,0.1c0,0-0.1,0.1-0.1,0.1
						l-0.1-0.1c0,0,0,0,0.1-0.1c0,0,0.1-0.1,0.1-0.1c0,0-0.1,0-0.2,0.1c0,0,0,0,0,0c0,0,0,0-0.1,0c-0.2,0.1-0.3,0.1-0.3,0.2l0,0.1
						l-0.2,0c0,0-0.2,0.1-0.2,0.4l0,0.1c0,0.4-0.1,0.6-0.2,0.7c0,0,0,0,0,0c0,0,0,0,0,0c0,0,0,0,0,0c-0.1,0.1-0.4,0.4-1.1,0.7
						c-0.8,0.4-1.3,0.7-1.3,0.7c-0.1,0.1-0.3,0.2-0.8-0.1c-0.4-0.3-1.3-0.9-1.9-1.1l-0.2-0.2l0-0.1c-0.1-0.8-0.8-1.1-1.1-1.2l-0.5,0
						c-0.5,0.2-0.7,0.5-0.8,0.7c-0.1,0.3-0.1,0.6,0,0.6c0.1,0.1,0.2,0.6,0.1,0.7l0,0c0,0-0.1,1.3,0.7,1.5c0.6,0.2,1-0.3,1.1-0.6
						c0,0,0-0.1,0-0.1c0,0,0,0,0,0l0-0.1l0.1,0.1c0,0,0,0,0,0c0,0,0.1,0,0.1,0c0.3,0.2,1.6,0.9,2.3,1.2l0.1,0l0,0
						C22.3,19.5,22.3,19.5,22.4,19.5C22.4,19.5,22.4,19.5,22.4,19.5L22.4,19.5z M29.4,18.5c0.2,0.2,0.6,0.2,0.6,0.2
						c0.6,0,1-0.1,1-0.4c-0.1,0.1-0.3,0.2-0.3,0.2c-0.5,0.1-0.8-0.1-0.8-0.1l-0.1,0l0.2-1.2L30,17.6l0,0l0,0.1l-0.2,0.7l-0.3-0.1
						L29.4,18.5z M30,18.2c0.1,0,0.3,0.1,0.7,0c0.1,0,0.2,0,0.2-0.1c0,0,0,0,0-0.1c-0.1,0-0.5-0.2-0.8-0.2L30,18.2z M29.5,18.1
						l0.1,0l0.1-0.3l-0.1,0L29.5,18.1z M31,18C31,18,31,18,31,18c0-0.1,0-0.2-0.1-0.3c0-0.2-0.1-0.3-0.1-0.5
						C30.8,17.6,30.9,17.8,31,18C30.9,17.9,31,18,31,18z M20.1,16.5l0.1,0.1c0.6,0.3,1.5,0.8,1.9,1.1c0.4,0.3,0.5,0.1,0.6,0.1l0,0
						c0,0,0.1,0,0.2-0.1l0,0c0,0,0.2-0.2,0.2-0.5c0-0.3-0.2-0.5-0.5-0.8c0,0-0.5-0.5-0.7-1c-0.1-0.3-0.3-0.8-0.4-1l0,0c0,0,0,0,0,0
						c0,0-0.1,0.1-0.2,0.1c0,0.1,0.1,0.2,0.1,0.3c0.1,0.2,0.1,0.4,0.2,0.6c0,0,0,0.1,0,0.1c0,0.1,0,0.1,0,0.2c0,0.1-0.1,0.2-0.2,0.2
						C21.3,16,21.1,16,21,16c-0.2,0-0.3,0-0.4-0.1c-0.4-0.3-0.7-0.6-0.9-0.7c-0.2-0.2-0.3-0.2-0.3-0.3c-0.1,0-0.2-0.1-0.3-0.1
						c0,0.1-0.1,0.2-0.3,0.3c0.1,0,0.3,0.1,0.4,0.2l0,0C20,15.8,20.1,16.3,20.1,16.5z M30.2,17.6c0.3,0,0.4,0.1,0.5,0.1
						c-0.1-0.2-0.1-0.6-0.1-0.9c0,0,0-0.4-0.1-0.8L30.2,17.6z M21.7,14.4c0.1,0.3,0.3,0.7,0.4,0.9c0.1,0.4,0.6,0.9,0.7,0.9
						c0.3,0.3,0.5,0.6,0.5,1c0,0.1,0,0.3-0.1,0.4c0.1-0.1,0.3-0.2,0.5-0.3l0.3-0.9c-0.3-0.3-0.4-0.4-0.6-0.5c-0.1,0-0.1-0.1-0.1-0.1
						c0,0-0.1,0-0.1-0.1c-0.1-0.1-0.3-0.2-0.8-0.7C22.1,14.7,21.9,14.6,21.7,14.4z M29.7,17.5L29.7,17.5l0.2-0.6L29.7,17.5z
						 M31.3,16.3L31.3,16.3l0.2-0.2c0,0,0,0,0,0l0,0l0,0L31.3,16.3z M21.5,14.1c0.1,0.1,0.5,0.3,1,0.9c0.5,0.5,0.6,0.6,0.7,0.7
						c0,0,0.1,0,0.1,0.1c0,0,0.1,0.1,0.1,0.1c0.1,0.1,0.3,0.2,0.5,0.4l0.2-0.5c-0.1-0.1-0.2-0.1-0.2-0.1c-0.1,0-0.6-0.3-0.9-0.5
						c-0.1-0.1-0.2-0.1-0.2-0.2c-0.1-0.1-0.2-0.2-0.6-0.5c-0.5-0.4-0.8-0.4-1-0.4l0,0.1c0,0,0.1,0,0.1,0l0,0l0,0c0,0,0.1,0,0.1,0
						C21.4,14,21.4,14,21.5,14.1L21.5,14.1L21.5,14.1z M19.5,14.7C19.5,14.7,19.5,14.7,19.5,14.7c0.2,0.1,0.6,0.4,0.8,0.6
						c0.1,0.1,0.2,0.1,0.2,0.2c0.2,0.1,0.3,0.2,0.5,0.2c0.1,0,0.1,0,0.2-0.1c0,0,0.1-0.1,0.1-0.1c0-0.1,0-0.1,0-0.2
						c0-0.1-0.1-0.3-0.2-0.5c0-0.1-0.1-0.1-0.1-0.2c0,0,0-0.1-0.1-0.3c0,0,0-0.1-0.1-0.1c0,0,0-0.1,0-0.1c0-0.1,0-0.2,0-0.3l0-0.1
						l0,0c0-0.2,0.2-0.2,0.4-0.2c0.1,0,0.2,0,0.3,0c0.1,0,0.1,0,0.2-0.1c0-0.1,0-0.1,0-0.1c0,0,0-0.1,0-0.2c0-0.1,0-0.1,0.1-0.1
						c0,0,0,0,0,0l-0.2-0.2l0.3,0c0,0,0,0,0,0c0,0,0-0.1,0-0.1c0,0,0-0.1,0-0.1c0-0.1,0.1-0.2,0.2-0.1c0,0,0.1,0,0.1,0
						c0,0,0-0.1-0.1-0.3l0,0c0,0-0.3-0.5-0.2-0.6c0,0,0-0.3,0.1-0.5c-0.1,0-0.1,0-0.2,0c0,0-0.1,0-0.1,0c-0.1,0.2-0.3,0.2-0.5,0.2
						l0,0c0,0.2-0.3,0.4-0.5,0.4c0,0.3-0.5,0.5-0.8,0.7c-0.1,0-0.2,0.1-0.2,0.1c0,0.1,0.1,0.2,0.1,0.2l0,0v0c0,0.7-0.3,1.1-0.5,1.2
						c0,0.1,0,0.2-0.1,0.3c-0.1,0.1-0.3,0.2-0.5,0.2l0,0c0.2,0,0.2,0.1,0.3,0.2l0,0C19.2,14.6,19.3,14.6,19.5,14.7
						C19.4,14.7,19.5,14.7,19.5,14.7z M27.1,15.6L27.1,15.6L27.1,15.6z M26.7,15.4L26.7,15.4L26.7,15.4z M25.5,14.8c0,0-0.1,0-0.1,0
						c0,0,0,0.1,0,0.1l0.4,0.2l0,0c0,0,0.1-0.1,0.1-0.1L25.5,14.8z M18.4,14.9c0,0.1,0.2,0.1,0.3,0.1c0.1,0,0.2-0.1,0.2-0.1
						c0,0,0-0.1,0-0.1l0,0c0-0.1-0.1-0.1-0.3-0.1C18.4,14.7,18.4,14.9,18.4,14.9L18.4,14.9C18.4,14.9,18.4,14.9,18.4,14.9L18.4,14.9
						z M30.3,14.9L30.3,14.9c-0.1-0.3-0.3-0.4-0.4-0.4C30,14.5,30.2,14.7,30.3,14.9z M29,14.5c0,0,0,0.1,0,0.1l0,0c0,0,0,0.1,0,0.1
						c0,0,0,0,0,0c0,0,0,0,0,0l0,0l0.1-0.2c0.1-0.2,0.2-0.5,0.5-0.7l0,0c0,0,0-0.1-0.1-0.1c0,0-0.1,0-0.2,0c0,0,0,0,0,0l0,0
						c0,0,0,0,0,0c-0.1,0.1-0.2,0.3-0.3,0.6C29.1,14.4,29,14.4,29,14.5z M29.8,13.9c-0.1,0.1-0.4,0.4-0.5,0.8c0,0,0,0,0.1,0
						c0,0,0.1-0.2,0.2-0.2c0,0,0-0.1,0.1-0.2l0,0l0,0c0,0,0-0.1,0.1-0.1l0,0l0,0c0,0,0.1,0,0.1-0.1l0,0l0,0c0,0,0.1,0,0.1,0l0,0
						C30,14.1,29.9,14,29.8,13.9z M28.7,14.3c0,0,0,0.1,0,0.1c0,0.1,0,0.1,0,0.1c0,0,0,0,0,0l0,0c0,0,0-0.1,0.1-0.2c0,0,0-0.1,0-0.1
						c0,0,0-0.1,0-0.1c0,0,0.1-0.3,0.3-0.5c0,0,0,0,0,0l0,0c0,0,0-0.1,0-0.1c0,0-0.1,0-0.1,0c0,0,0,0,0,0c0,0.1,0,0.1-0.1,0.2
						c0,0-0.1,0.1-0.1,0.2c0,0.1-0.1,0.2-0.1,0.3C28.8,14.2,28.8,14.3,28.7,14.3z M28.7,13.4c0,0.1-0.2,0.3-0.3,0.7
						c0,0.1,0,0.2,0,0.2c0,0,0,0,0,0l0,0c0,0,0,0,0-0.1c0-0.1,0-0.1,0-0.2c0,0,0,0,0,0c0,0,0-0.2,0.1-0.3c0.1-0.1,0.1-0.2,0.2-0.3
						c0,0,0,0,0-0.1C28.8,13.4,28.8,13.4,28.7,13.4z M27.2,13.7c0.3,0.2,0.5,0.4,0.5,0.6c0.1,0,0.2-0.1,0.3-0.1l-0.9-0.7
						C27.1,13.5,27.1,13.7,27.2,13.7z M21.2,14.2C21.3,14.2,21.3,14.2,21.2,14.2c0.1,0,0.1,0,0.1-0.1C21.3,14.2,21.3,14.2,21.2,14.2
						C21.3,14.2,21.2,14.2,21.2,14.2C21.2,14.2,21.2,14.2,21.2,14.2z M21.3,14.2L21.3,14.2L21.3,14.2L21.3,14.2z M18.2,12.1
						c0,0,0,0.1,0,0.1c0,0.1,0,0.2-0.1,0.4C18,12.7,18,12.8,18,12.8l0,0c0,0.1-0.1,0.2,0,0.2c0.1,0.2,0,0.4,0,0.4
						c0,0,0.1,0.2,0.2,0.3l0,0c0.2,0.2,0.4,0.2,0.6,0.1c0.2-0.1,0.3-0.1,0.4-0.1l0,0c0,0,0.4-0.4,0.4-1.1c0-0.1-0.1-0.2-0.1-0.4
						c0-0.1,0.1-0.1,0.3-0.2c0.3-0.1,0.7-0.3,0.7-0.5l0-0.1l0.1,0c0.2-0.1,0.4-0.2,0.4-0.3l0,0l0.1-0.2l0.1,0c0,0,0.3,0.1,0.4-0.1
						c0-0.1,0.2-0.1,0.3-0.1c0,0,0.1,0,0.1,0l0,0c0,0,0,0,0.1,0l0.1-0.1c0,0,0-0.1,0-0.1c0,0,0-0.1-0.1-0.1c-0.1,0-0.2,0-0.2,0
						c0,0-0.1,0-0.1,0c-0.1,0-0.2,0.1-0.3,0c-0.1,0.1-0.1,0.1-0.2,0.1c-0.1,0-0.1,0-0.2,0c-0.1,0.1-0.2,0.2-0.3,0.2
						c-0.1,0-0.1,0-0.1,0c0,0,0,0-0.1,0.1c0,0-0.1,0-0.1,0c0,0,0,0-0.1,0c0,0,0,0-0.1,0c0,0,0,0,0,0c0,0.1-0.1,0.1-0.2,0.1
						c0,0,0,0-0.1,0l0,0.1l0,0.1l-0.2,0c0,0,0,0,0,0c0,0-0.1,0-0.1,0c0,0,0,0-0.1,0c0,0,0,0,0,0c0,0,0,0,0,0c0.1,0,0.2,0,0.2,0
						l0.1,0l0.1,0.1c0,0.1,0,0.1,0,0.2l-0.2,0.2c0,0,0,0-0.1,0l0,0.1c-0.2,0-0.4,0.2-0.5,0.3l0,0c0,0-0.1,0-0.2,0c0,0,0,0-0.1,0
						c0,0,0,0,0,0c-0.1,0-0.1,0-0.2,0.1l0,0.1l0,0l0,0.2l-0.1-0.1l0,0L18.2,12.1C18.2,12.2,18.2,12.2,18.2,12.1L18.2,12.1z
						 M26.9,12.8l1.4,1.1c0-0.1,0.1-0.2,0.1-0.3l0,0c0,0-0.2-0.2-0.5-0.2c0,0-0.7-0.2-0.6-0.7c0,0,0,0,0,0c-0.1,0-0.3-0.1-0.5-0.1
						c0,0,0,0,0,0C26.8,12.6,26.9,12.7,26.9,12.8z M26.9,13.6L26.9,13.6c0-0.3-0.1-0.6-0.2-0.8c0,0,0,0,0,0.1l0,0L26.9,13.6z
						 M26.5,13l0.1,0.5c0,0,0,0,0,0C26.6,13.4,26.5,13.2,26.5,13L26.5,13z M27.6,12.5C27.6,12.5,27.6,12.5,27.6,12.5
						c0,0-0.1,0-0.1,0.2c0,0.3,0.5,0.5,0.5,0.5c0.2,0.1,0.4,0.2,0.5,0.2c0,0,0,0,0,0c-0.1-0.1-0.3-0.2-0.5-0.3
						c-0.2,0-0.4-0.2-0.4-0.3C27.5,12.7,27.6,12.6,27.6,12.5C27.6,12.5,27.6,12.5,27.6,12.5z M27.8,12.8
						C27.8,12.8,27.9,12.9,27.8,12.8C27.9,12.9,27.9,12.9,27.8,12.8L27.8,12.8z M26.3,12.7C26.3,12.7,26.4,12.7,26.3,12.7l0.1,0
						l0.1,0l0-0.1l-0.1-0.3c0,0.1,0.1,0.2,0.1,0.2l0,0.1l-0.6,0c0,0-0.1,0-0.1,0c0,0,0,0,0,0l0.1,0C25.9,12.7,26.1,12.7,26.3,12.7
						L26.3,12.7L26.3,12.7z M26.8,12.3C26.8,12.3,26.8,12.3,26.8,12.3c0.2,0.1,0.3,0.1,0.5,0.1L26.8,12.3
						C26.8,12.3,26.8,12.3,26.8,12.3z M25.9,12.3C25.9,12.3,26,12.3,25.9,12.3c0,0,0.1,0,0.2,0.1l0,0L25.9,12.3
						C26,12.3,26,12.3,25.9,12.3z M27.3,11.9C27.3,11.9,27.3,12,27.3,11.9c0.1,0.3,0.1,0.4,0.1,0.4l0,0.1l0,0L27.3,11.9
						C27.3,11.9,27.3,11.9,27.3,11.9z M19.7,12.3C19.7,12.3,19.7,12.3,19.7,12.3C19.7,12.3,19.7,12.3,19.7,12.3z M26.8,12.3
						L26.8,12.3L26.8,12.3z M26.8,11.9C26.8,11.9,26.8,12,26.8,11.9c0.1,0.1,0.2,0.2,0.3,0.3l0,0L26.8,11.9
						C26.8,11.9,26.8,11.9,26.8,11.9z M18.3,11.9C18.3,11.9,18.3,11.9,18.3,11.9c0.1,0,0.2,0,0.2,0c0,0,0.1,0,0.1,0c0,0,0,0,0,0
						c0.1,0,0.2-0.1,0.3-0.2c0.2-0.1,0.4-0.2,0.5-0.3l0,0c0,0-0.1,0-0.1,0c-0.1,0-0.1-0.1-0.1-0.1l0,0l0-0.2c0,0,0,0,0,0l0,0
						c0,0,0.1-0.1,0.2-0.1c0,0,0.1,0,0.1,0c0,0,0.1,0,0.2,0l0-0.2l0.1,0l0,0l0.1,0c0,0,0.1,0,0.1,0c0.1,0,0.1-0.1,0.1-0.1l0-0.1l0,0
						l0-0.1l0.1,0.1c0,0,0.1,0,0.1,0c0,0,0.1-0.1,0.1-0.1l0-0.1l0.1,0l0,0l0.1,0.1c0.1,0,0.1,0,0.2,0c0.1,0,0.1-0.1,0.1-0.1l0-0.1
						l0.1,0.1c0.1,0,0.1,0,0.2,0c0.1,0,0.1-0.1,0.1-0.1l0.1-0.1l0,0l0,0l0.1,0.1c0,0,0,0,0,0c0,0,0.1,0,0.1,0c0,0,0.1,0,0.1,0
						c0,0,0.1,0,0.1,0l0.1-0.1l0.1,0.1c0,0,0,0,0,0c0.1,0,0.1,0,0.2,0c0,0,0,0,0,0c0.1-0.1,0.1-0.1,0.1-0.2c0,0,0.1,0,0.1-0.2
						c0-0.1,0-0.1,0-0.2c-0.1-0.1-0.2-0.1-0.3,0l-0.1,0l0-0.1c0,0,0,0,0,0c0,0-0.2,0-0.3,0.1l-0.1,0.1l-0.1-0.1c0,0,0,0-0.1,0
						c-0.1,0-0.2,0.1-0.3,0.2L21,9.8l-0.1-0.1c0-0.1-0.1-0.1-0.1-0.1l0,0c-0.1,0-0.2,0.1-0.3,0.2l-0.1,0.1l-0.1-0.1c0,0-0.1,0-0.1,0
						c-0.1,0-0.3,0.2-0.3,0.2l-0.1,0.1l-0.1-0.1c0,0-0.2,0.1-0.3,0.2l0,0l0,0c-0.3,0-0.5,0.4-0.5,0.4l0,0l0,0
						c-0.4,0.2-0.5,0.8-0.5,0.8l0,0l0,0C18.4,11.7,18.3,11.8,18.3,11.9L18.3,11.9z M21.7,10.9C21.7,10.9,21.7,10.9,21.7,10.9
						C21.7,10.9,21.7,10.9,21.7,10.9z M19.6,28.6c0,0-0.5-0.3-0.7-0.9c0,0-0.3-0.7-0.6-0.9c0,0-0.2-0.1-0.2-0.2
						c-0.1,0-0.2-0.1-0.3-0.4l0.2-0.1c0.1,0.2,0.2,0.3,0.2,0.3l0.1,0l0,0.1c0,0.1,0.1,0.2,0.2,0.2c0.3,0.2,0.7,1,0.7,1
						c0.2,0.5,0.6,0.8,0.6,0.8L19.6,28.6z"/>
				</g>
				<g>
					<path class="st1" d="M34.2,33.2c-0.1,0-0.2-0.1-0.3-0.1c-0.1,0-0.2-0.1-0.2-0.1c0,0-0.2,0-0.5-0.2c0,0-0.2-0.1-0.3-0.1
						c0,0,0,0,0,0c-0.5,0-0.8-0.1-0.8-0.2l0.2,0c0,0,0.3,0.1,0.6,0.1c0,0,0,0,0,0c0.1,0,0.3,0,0.5,0.1c0.2,0.2,0.3,0.2,0.3,0.2
						c0,0,0.2,0,0.3,0.1c0.1,0.1,0.2,0.1,0.2,0.1l0,0c0,0-0.1-0.1-0.1-0.1c-0.1,0-0.1-0.1-0.1-0.1l0-0.1l0.1-0.1l0.1,0.1
						c0,0,0,0,0.1,0c0.1,0.1,0.2,0.2,0.3,0.2c0,0-0.1-0.1-0.1-0.2c0,0-0.1-0.1-0.1-0.1l0.1-0.1c0,0,0.1,0.1,0.1,0.1
						c0.2,0.2,0.2,0.1,0.3,0.1l0,0c0,0-0.1-0.1-0.1-0.1c0,0-0.1-0.1-0.1-0.1l0.1-0.2c0,0,0.1,0.1,0.1,0.1c0.2,0.1,0.2,0.1,0.2,0.1
						l0,0c0,0-0.1-0.1-0.1-0.1c0,0-0.1-0.1-0.2-0.1l0.1-0.2c0,0,0.1,0.1,0.2,0.1c0.2,0.1,0.2,0,0.2,0c0,0,0,0,0,0
						c0-0.1-0.3-0.2-0.4-0.2c-0.1,0-0.4-0.1-0.5-0.1c-0.6-0.4-1.1-0.6-1.1-0.6l0.1-0.2c0,0,0.5,0.2,1.1,0.6c0.1,0,0.3,0.1,0.4,0.1
						c0,0,0.5,0.1,0.6,0.3c0,0,0,0.1-0.1,0.2c0,0-0.1,0.1-0.2,0.1c0,0,0,0,0,0c0,0,0,0.1,0,0.1c0,0-0.1,0.1-0.1,0.1c0,0-0.1,0-0.1,0
						c0,0,0,0,0,0c0,0,0,0.1-0.1,0.1c0,0-0.1,0-0.1,0c0,0,0,0,0,0c0,0,0,0.1,0,0.1c0,0-0.1,0.1-0.1,0.1c0,0-0.1,0-0.1,0c0,0,0,0,0,0
						C34.4,33.1,34.3,33.1,34.2,33.2C34.2,33.2,34.2,33.2,34.2,33.2z"/>
				</g>
				<g>
					<path class="st1" d="M23.7,30.5c-0.5-0.5-0.9-1.6-0.9-1.7l0.2-0.1c0,0,0.4,1.1,0.9,1.6L23.7,30.5z M25.2,30.3
						c-1.4-1.4-1.5-1.7-1.6-1.8l0.2-0.1c0,0,0.1,0.4,1.5,1.7L25.2,30.3z"/>
				</g>
				<g>
					<path class="st1" d="M14.5,31.8l-0.1-0.1c-0.3-0.4-0.8-0.4-1.3-0.4c-0.7-0.1-1.5-0.1-2-0.9c-0.4-0.7-0.1-1.6,0.2-2.4
						c0.1-0.4,0.3-0.7,0.3-1c0-0.9-0.4-1.3-0.6-1.6l-0.1-0.1l0.1-0.1c0.1-0.1,0.3-0.3,0.4-0.4l0.2-0.2l0.1,0c0.5,0.3,1,0.2,1.6,0
						c0.4-0.1,0.8-0.3,1.3-0.3c0.5,0,0.9,0.1,1.3,0.3c0.6,0.2,1.1,0.4,1.6,0l0.1,0l0.1,0.1c0.1,0.1,0.2,0.2,0.3,0.3
						c0.1,0.1,0.2,0.2,0.3,0.3l0.1,0.1L18,25.3c-0.2,0.1-0.8,1-0.7,1.6c0.1,0.4,0.2,0.7,0.3,1.1c0.3,0.7,0.6,1.5,0.2,2.2
						c-0.4,0.8-1.2,0.8-1.9,0.9c-0.6,0-1.1,0.1-1.4,0.5L14.5,31.8z M11.1,25.3c0.2,0.2,0.7,0.7,0.7,1.7c0,0.3-0.1,0.6-0.3,1.1
						c-0.3,0.8-0.6,1.6-0.2,2.2c0.4,0.7,1.1,0.7,1.8,0.8c0.5,0,1.1,0.1,1.4,0.4c0.3-0.4,0.9-0.4,1.4-0.4c0.7-0.1,1.4-0.1,1.8-0.8
						c0.3-0.6,0.1-1.3-0.2-2.1c-0.1-0.4-0.3-0.8-0.3-1.2c-0.1-0.6,0.4-1.4,0.7-1.7c-0.1-0.1-0.1-0.1-0.2-0.2
						c-0.1-0.1-0.1-0.1-0.2-0.2c-0.6,0.3-1.1,0.2-1.7,0c-0.4-0.1-0.8-0.3-1.2-0.3c-0.4,0-0.8,0.1-1.2,0.3c-0.6,0.2-1.1,0.4-1.7,0
						l-0.1,0.1C11.3,25,11.2,25.2,11.1,25.3z"/>
				</g>
				<g>
					<rect x="11.4" y="27.9" class="st1" width="1.8" height="0.2"/>
				</g>
				<g>
					<rect x="15.7" y="27.9" class="st1" width="1.8" height="0.2"/>
				</g>
				<g>
					<path class="st1" d="M14.5,32.1L14.5,32.1l-0.2,0c-0.2-0.6-1.5-0.6-1.5-0.6c-1.6,0-2.1-0.8-2.2-1.2c-0.3-0.9,0.1-1.9,0.2-2.3
						l0.1,0l-0.1,0c0.3-0.6,0.3-1.1,0.3-1.1c0.1-0.7-0.8-1.6-0.8-1.6l-0.1-0.1l1.1-1.2l0.1,0.1c0.4,0.4,1,0.3,1.5,0.1
						c0.5-0.2,1.3-0.2,1.4-0.2l0,0.1l0-0.1c0,0,0.8,0,1.4,0.2c0.5,0.2,1,0.3,1.5-0.1l0.1-0.1l1.2,1.1l-0.1,0.1c0,0-0.8,0.7-0.8,1.6
						c0,0,0,0.5,0.3,1.1c0.3,0.7,0.4,1.6,0.2,2.2C18,31,17,31.5,16,31.5C15.7,31.5,14.7,31.7,14.5,32.1z M11.1,28.1
						c-0.3,0.7-0.4,1.5-0.2,2.1c0.1,0.5,0.6,1,2,1.1c0.1,0,1.2,0.1,1.6,0.6c0.4-0.5,1.5-0.6,1.6-0.6c0.9,0,1.9-0.5,2-1
						c0.2-0.6,0.1-1.4-0.2-2.1l0.1,0l-0.1,0c-0.3-0.7-0.3-1.2-0.3-1.2c0-0.8,0.6-1.5,0.8-1.7l-0.9-0.9c-0.5,0.4-1.1,0.3-1.6,0.1
						c-0.5-0.2-1.2-0.2-1.3-0.2c-0.1,0-0.8,0-1.3,0.2c-0.5,0.2-1.2,0.4-1.7-0.1l-0.8,0.9c0.2,0.2,0.9,1,0.8,1.7
						C11.4,27,11.4,27.5,11.1,28.1z"/>
				</g>
				<g>
					<path class="st1" d="M12.8,30.2l0.7-1.9l-1.8-1.2l2.1,0l0.6-2l0.7,2l2.1,0l-1.8,1.2l0.7,1.9L14.5,29L12.8,30.2z M14.5,28.7
						l1.3,1l-0.5-1.5l1.3-0.9l-1.6,0l-0.5-1.5L14,27.4l-1.6,0l1.3,0.9l-0.5,1.5L14.5,28.7z"/>
				</g>
				<g>
					<path class="st1" d="M13.3,24.4v-0.1c0-0.1,0-1.8,0.1-2c0-0.1,0.1-0.2,0.1-0.2c0,0,0-0.1,0-0.1c0,0,0-0.1,0-0.1l0,0
						c0,0-0.1-0.1-0.1-0.2c0,0,0-0.1,0-0.1c-0.1-0.1-0.1-0.1-0.1-0.2c0-0.1,0.1-0.2,0.1-0.2c0,0,0-0.1,0-0.2c0-0.1,0-0.1,0.1-0.2
						c0,0,0,0,0,0c0,0-0.1-0.1-0.1-0.2c0-0.1,0-0.2,0.1-0.2c-0.1,0-0.1-0.1-0.2-0.2c0-0.1,0-0.2,0-0.2c-0.1-0.1-0.1-0.2-0.1-0.3
						c0-0.2,0.1-0.3,0.2-0.3c0,0,0-0.1,0-0.1c0,0,0-0.1,0.1-0.2l0.1,0v-0.1c-0.1,0-0.2-0.1-0.3-0.2c-0.1-0.3,0.1-0.6,0.1-0.6
						l0.7-0.9l0.7,0.9c0,0,0.3,0.4,0.2,0.7c-0.1,0.1-0.2,0.2-0.3,0.2v0.1h0.9V19h-0.7c0,0,0,0,0,0.1c0,0,0,0,0,0h0.6v0.2H15
						c0,0,0.1,0.1,0.1,0.1h0.5v0.2h-0.5c0,0,0,0.1,0,0.1h0.6v0.2H15c0,0.1,0,0.1,0,0.2h0.7v0.2h-0.9c0,0,0,0.1,0.1,0.2
						c0,0.1,0,0.2-0.1,0.2c0.1,0,0.1,0.1,0.1,0.2c0,0.1,0,0.1,0,0.2c0.1,0,0.1,0.1,0.1,0.2c0,0.1,0,0.2-0.1,0.2c0,0,0,0.1,0,0.1
						c0,0.1,0,0.1-0.1,0.2c0,0,0,0.1,0,0.1c0,0,0,0.1,0,0.1c0.1,0.1,0.1,0.2,0.1,0.2l0.2,2.1l-0.1,0c-0.6-0.1-0.9,0-0.9,0
						c-0.4,0-0.8,0.1-0.8,0.1L13.3,24.4z M13.7,22.1c0,0-0.1,0-0.2,0.2c0,0.2,0,1.2-0.1,1.9c0.1,0,0.4-0.1,0.7-0.1c0,0,0.3,0,0.8,0
						l-0.2-1.8c0,0,0-0.1-0.1-0.1c0,0-0.1,0-0.1,0H13.7z M14.6,21.9L14.6,21.9c0.1,0,0.1,0,0.1,0c0,0,0,0,0,0c0,0-0.1,0-0.1,0h-0.9
						c0,0-0.1,0-0.1,0c0,0,0,0,0,0c0,0,0.1,0,0.1,0h0.4C14.2,21.9,14.4,21.9,14.6,21.9z M14.1,21.6h0.5c0.1,0,0.1,0,0.1,0
						c0,0,0,0,0,0c0,0-0.1,0-0.1,0h0L14.1,21.6l-0.4-0.1c0,0-0.1,0-0.1,0c0,0,0,0.1,0,0.1c0,0,0,0,0.1,0H14.1z M13.6,21.2
						c0,0-0.1,0-0.1,0.1c0,0.1,0.1,0.1,0.1,0.1l1.1,0c0,0,0.1,0,0.1-0.1c0-0.1-0.1-0.1-0.1-0.1H13.6z M13.7,21h1c0,0,0,0,0-0.1
						c0-0.1-0.1-0.1-0.1-0.1l-0.1,0c0,0,0,0,0,0h-0.6c0,0,0,0,0,0h-0.1C13.7,20.8,13.6,20.8,13.7,21C13.6,20.9,13.6,21,13.7,21z
						 M13.8,20.3c0,0-0.1,0-0.1,0.2c0,0.1,0,0.1,0,0.1c0,0,0.1,0.1,0.2,0.1c0,0,0,0,0,0h0.6c0.1,0,0.2,0,0.2-0.1c0,0,0,0,0-0.1
						c0-0.1-0.2-0.2-0.2-0.2L13.8,20.3z M14.5,20.1L14.5,20.1c0,0,0.1,0,0.1,0v0c0,0,0.1,0,0.1-0.1c0,0,0,0,0-0.1l-0.6,0l-0.6,0
						c0,0,0,0,0,0c0,0.1,0.2,0.1,0.3,0.1H14.5z M13.5,19.9L13.5,19.9L13.5,19.9z M13.6,19.3c0,0-0.2,0-0.2,0.2
						c0,0.2,0.1,0.2,0.2,0.2l0.6,0l0.6,0l0,0h0.1c0,0,0.1-0.1,0.1-0.2c0,0,0,0,0,0c0,0,0-0.1-0.1-0.1c-0.1-0.1-0.1-0.1-0.2-0.1
						L13.6,19.3z M13.7,19l-0.1,0.1c0,0,0,0,0,0.1l0.5,0l0.3,0l0,0h0.3c0,0,0,0,0,0L14.6,19H13.7z M13.8,18.8h0.7v-0.1L13.8,18.8
						C13.8,18.8,13.8,18.8,13.8,18.8L13.8,18.8z M14.5,18.6h0.1c0,0,0,0,0,0c0.1,0,0.2-0.1,0.2-0.1c0.1-0.1-0.1-0.4-0.1-0.5
						l-0.5-0.7L13.6,18c0,0.1-0.2,0.3-0.1,0.5c0,0.1,0.1,0.1,0.2,0.1c0,0,0,0,0,0h0.1c0.1,0,0.1,0,0.1-0.1c0,0,0-0.1,0-0.1
						c0,0-0.1-0.1-0.1-0.1l-0.2,0l0.5-0.8l0.5,0.8l-0.2,0c-0.1,0-0.1,0-0.1,0.1c0,0,0,0.1,0,0.1C14.4,18.5,14.4,18.5,14.5,18.6z
						 M14.1,18.6L14.1,18.6c0,0,0-0.1,0-0.1C14.1,18.5,14.1,18.5,14.1,18.6z M14,18.1c0.1,0,0.1,0.1,0.1,0.1c0,0,0,0.1,0,0.1
						c0,0,0-0.1,0-0.1c0-0.1,0.1-0.1,0.1-0.1l-0.2-0.3L14,18.1z"/>
				</g>
				<g>
					<path class="st1" d="M19.9,24.4C19.9,24.4,19.8,24.4,19.9,24.4c-0.5-0.2-0.7-0.5-0.7-0.5c0,0,0-0.1,0-0.1c0,0,0.1,0,0.1,0
						c0,0,0.2,0.3,0.6,0.4C20,24.2,20,24.3,19.9,24.4C19.9,24.4,19.9,24.4,19.9,24.4z M18.1,23.8C18,23.8,18,23.8,18.1,23.8
						c-0.5-0.6-0.4-1-0.4-1c0-0.1,0.1-0.1,0.1-0.1c0.1,0,0.1,0.1,0.1,0.1c0,0-0.1,0.3,0.3,0.8C18.2,23.7,18.2,23.7,18.1,23.8
						C18.1,23.8,18.1,23.8,18.1,23.8z M16.8,21.6C16.8,21.6,16.8,21.6,16.8,21.6c-0.1-0.1-0.1-0.1-0.1-0.2c0.1-0.2,0.4-0.6,0.7-1.1
						c0.2-0.5,0.1-1.1,0.1-1.1c0-0.1,0-0.1,0.1-0.1c0,0,0,0,0,0c-0.2-0.1-0.3-0.2-0.4-0.2c0,0,0,0,0,0l0,0l0,0c0,0,0,0,0-0.1
						c0,0,0-0.1,0-0.1c0,0,0.1,0,0.1,0l0,0c0,0,0.7,0.6,1.5,0.5c0.4-0.1,0.7-0.3,1-0.8c0,0,0,0,0,0c-0.7-0.5-1.6-0.7-1.6-0.7
						c-0.1,0-0.1-0.1-0.1-0.1c0-0.1,0.1-0.1,0.1-0.1c0,0,0.9,0.3,1.7,0.7c0,0,0,0,0,0.1c0,0,0,0,0,0c0,0,0.1,0.1,0,0.1
						c-0.5,0.9-1.2,1-1.7,0.9c-0.2,0-0.4-0.1-0.6-0.2c0,0,0,0,0,0.1c0,0,0.1,0.7-0.1,1.2C17.3,21,17,21.4,16.8,21.6
						C16.9,21.6,16.8,21.6,16.8,21.6z M19.3,21.3C19.3,21.3,19.2,21.3,19.3,21.3c-0.1,0-0.1-0.1-0.1-0.1c0.1-0.5,0.1-0.8,0.1-0.9
						c-0.1,0-0.2,0-0.2,0c0,0.1,0,0.3-0.1,0.5c-0.1,0.3-0.1,0.4-0.2,0.4c0,0-0.1,0-0.1,0c0,0,0-0.1,0-0.1c0,0,0-0.1,0.1-0.3
						c0.1-0.2,0.1-0.4,0-0.5c0,0-0.1,0-0.1,0c0,0.1,0,0.2,0,0.3c0,0.1-0.1,0.1-0.1,0.1c-0.1,0-0.1-0.1-0.1-0.1c0-0.1,0-0.2,0-0.3
						c-0.1,0-0.2,0-0.2,0c-0.1,0-0.1-0.1-0.1-0.1c0-0.1,0.1-0.1,0.1-0.1c0,0,0.5,0.2,0.9,0c0.1-0.1,0.2-0.2,0.3-0.3
						c-1,0.3-1.7-0.1-1.7-0.2c0,0-0.1-0.1,0-0.1c0,0,0.1-0.1,0.1,0c0,0,0.7,0.5,1.7,0.1l0,0c0,0,0.5-0.3,0.6-0.7
						c0-0.1,0.1-0.1,0.1-0.1c0.1,0,0.1,0.1,0.1,0.1c-0.1,0.6-0.7,0.9-0.7,0.9c0,0,0,0,0,0l0,0c0,0,0,0,0,0.1c0,0.1,0,0.2,0,0.3
						c0.1,0.1,0.3,0.1,0.4,0.1c0,0,0.2,0,0.3-0.4c0-0.2,0-0.4,0.1-0.5c0-0.1,0-0.3,0-0.3l0.2,0c0,0,0,0.1,0,0.3c0,0.3,0,0.7,0.1,0.8
						c0,0,0.1,0,0.1,0c0.2,0,0.3,0,0.3-0.1c0,0,0.1-0.1,0.1-0.2c0-0.2,0-0.6,0-0.6c0-0.1,0-0.1,0.1-0.1c0.1,0,0.1,0,0.1,0.1
						c0,0,0,0.4,0,0.6c0,0.1,0,0.1,0,0.2c0,0,0.1,0,0.1,0l0,0c0,0,0.1,0,0.1-0.1l0-0.1c0,0,0,0,0,0c0,0,0,0,0,0l0-0.4
						c0-0.1,0-0.1,0.1-0.1c0.1,0,0.1,0,0.1,0.1l0,0.5c0,0,0,0.1,0.1,0.1c0,0,0,0,0.1,0c0.1,0,0.1,0,0.1,0.1c0,0.1,0,0.1-0.1,0.1
						c-0.1,0-0.2,0-0.3,0c0,0.1,0,0.2,0,0.4c0,0.1,0,0.1-0.1,0.1c-0.1,0-0.1,0-0.1-0.1c-0.1-0.2-0.1-0.3-0.1-0.4c0,0,0,0-0.1,0
						c-0.1,0-0.2,0-0.2-0.1l0,0c0,0,0,0,0,0c0,0,0,0.2,0.1,0.4c0,0,0,0.1,0,0.1c0,0-0.1,0-0.1-0.1c-0.1-0.2-0.1-0.3-0.1-0.4
						c-0.1,0-0.1,0-0.2,0c0,0-0.1,0-0.1,0c0,0.1,0,0.2,0.1,0.4c0,0,0,0.1-0.1,0.1c0,0-0.1,0-0.1-0.1c-0.1-0.3-0.1-0.5-0.1-0.6
						c0,0,0,0,0-0.1c-0.1,0.1-0.2,0.2-0.2,0.2c0,0.1,0,0.4,0,0.4c0,0.1,0,0.1-0.1,0.1c-0.1,0-0.1,0-0.1-0.1c0-0.1,0-0.3,0-0.4
						c-0.1,0-0.1,0-0.2,0c0,0.1-0.1,0.5-0.1,0.9c0,0.1,0,0.1-0.1,0.1s-0.1,0-0.1-0.1c0-0.3,0.1-0.7,0.1-0.9c-0.1,0-0.1-0.1-0.2-0.1
						c0,0-0.1-0.1-0.1-0.1c-0.1,0.1-0.1,0.1-0.2,0.2C19.4,20.3,19.5,20.7,19.3,21.3C19.3,21.3,19.3,21.3,19.3,21.3z M16.5,20.6
						C16.4,20.6,16.4,20.6,16.5,20.6c-0.1-0.1-0.1-0.1,0-0.9c0-0.1,0.1-0.1,0.1-0.1c0.1,0,0.1,0.1,0.1,0.1c0,0.3-0.1,0.7-0.1,0.7
						C16.6,20.5,16.6,20.5,16.5,20.6C16.5,20.6,16.5,20.6,16.5,20.6z M18.5,19.2c-1,0-1.2-1-1.3-1c0-0.1,0-0.1,0.1-0.1
						c0.1,0,0.1,0,0.1,0.1c0,0,0.3,1,1.3,0.9c0.1,0,0.1,0,0.1,0.1c0,0.1,0,0.1-0.1,0.1C18.7,19.2,18.6,19.2,18.5,19.2z M16.6,18.4
						C16.6,18.4,16.6,18.4,16.6,18.4c-0.1,0-0.2-0.1-0.3-0.5c0-0.3,0-0.5,0.1-0.8c0-0.2,0.1-0.3,0.1-0.5c0.1-0.5,0.3-0.9,0.3-0.9
						c0,0,0.1-0.1,0.1,0c0,0,0.1,0.1,0,0.1c0,0-0.2,0.4-0.3,0.9c0,0.2-0.1,0.3-0.1,0.5c-0.1,0.2-0.1,0.5-0.1,0.7
						c0.1,0.3,0.1,0.4,0.1,0.4c0.1,0,0.1,0.1,0.1,0.1C16.7,18.4,16.7,18.4,16.6,18.4z M20.1,16.7C20.1,16.7,20.1,16.7,20.1,16.7
						c-0.3-0.1-0.8-0.5-0.8-0.5c0,0,0-0.1,0-0.1c0,0,0.1,0,0.1,0c0.1,0.1,0.5,0.4,0.7,0.5C20.2,16.6,20.2,16.6,20.1,16.7
						C20.2,16.7,20.1,16.7,20.1,16.7z M19.8,15.7C19.8,15.7,19.7,15.6,19.8,15.7c-0.2-0.3-0.7-0.4-0.9-0.5c-0.1,0-0.1-0.1-0.1-0.1
						c0-0.1,0.1-0.1,0.1-0.1c0,0,0.5,0.2,0.8,0.4c-0.2-0.2-0.7-0.4-0.7-0.4C19,15,19,14.9,19,14.9c0-0.1,0.1-0.1,0.1-0.1
						c0,0,0.5,0.2,0.8,0.5c0,0,0,0.1,0,0.1c0,0-0.1,0-0.1,0c0,0,0.1,0.1,0.1,0.1C19.9,15.6,19.9,15.6,19.8,15.7
						C19.8,15.7,19.8,15.7,19.8,15.7z M21.7,15.3C21.7,15.3,21.7,15.3,21.7,15.3c-0.3-0.4-0.4-0.9-0.4-1c0-0.1,0-0.1,0.1-0.1
						c0.1,0,0.1,0,0.1,0.1c0,0,0.1,0.5,0.3,0.9C21.9,15.3,21.8,15.3,21.7,15.3C21.8,15.3,21.8,15.3,21.7,15.3z M21,14.8
						C21,14.8,21,14.8,21,14.8c-0.1,0-0.1-0.1-0.1-0.1c0,0,0.1-0.5,0.1-0.9c0-0.1,0-0.1,0.1-0.1c0.1,0,0.1,0,0.1,0.1
						C21.2,14.3,21.1,14.7,21,14.8C21.1,14.8,21,14.8,21,14.8z M18.5,13.8c-0.4,0-0.7-0.3-0.7-0.3c0,0,0-0.1,0-0.1c0,0,0.1,0,0.1,0
						c0,0,0.2,0.3,0.5,0.3c0,0,0,0,0,0c0.2,0,0.5-0.2,0.7-0.5c0,0,0.1-0.1,0.1,0c0,0,0.1,0.1,0,0.1C19.1,13.6,18.8,13.8,18.5,13.8
						C18.5,13.8,18.5,13.8,18.5,13.8z M18.4,13.3c-0.4,0-0.6-0.3-0.6-0.3c0,0,0-0.1,0-0.1c0,0,0.1,0,0.1,0c0,0,0.2,0.2,0.5,0.2
						c0,0,0,0,0,0c0.2,0,0.3-0.1,0.5-0.2c0,0,0.1,0,0.1,0c0,0,0,0.1,0,0.1C18.9,13.2,18.7,13.3,18.4,13.3
						C18.4,13.3,18.4,13.3,18.4,13.3z M22,13.1c0,0-0.1,0-0.2,0c-0.1,0-0.1-0.1-0.1-0.1c0-0.1,0.1-0.1,0.1-0.1c0.1,0,0.1,0,0.1,0
						c0,0,0.1,0,0.1,0.1C22.1,13,22.1,13,22,13.1C22,13.1,22,13.1,22,13.1z M20.1,12.9C20.1,12.9,20.1,12.9,20.1,12.9
						c-0.2,0-0.3-0.1-0.3-0.2c0,0,0,0,0,0c-0.1,0-0.1,0-0.1-0.1c0-0.1,0-0.1,0.1-0.1c0,0,0.1,0,0.1,0c-0.1,0-0.1-0.1-0.1-0.2
						c0,0,0,0,0,0c0,0-0.4,0.1-0.8,0c-0.4-0.1-0.7,0.1-0.7,0.1c0,0-0.1,0-0.1,0s0-0.1,0-0.1c0,0,0.4-0.2,0.8-0.1
						c0.4,0.1,0.7,0,0.7,0c0,0,0.1,0,0.1,0c0,0,0,0,0,0c0,0,0.1,0,0.1,0.1c0,0,0.1,0.1,0.1,0.1c0-0.1,0-0.2,0-0.2l0.2-0.1
						c0,0,0,0.2,0.1,0.2c0,0,0,0.1,0,0.2c0,0-0.1,0.1-0.1,0.1c0,0,0,0-0.1,0c0,0,0,0,0,0l0,0c0,0,0,0,0.1,0c0,0,0,0,0,0
						c0,0,0,0,0-0.1c0-0.1,0-0.1,0.1-0.1c0.1,0,0.1,0,0.1,0.1c0,0,0,0.1,0,0.2C20.2,12.9,20.2,12.9,20.1,12.9z M22,12.8
						c-0.1,0-0.2-0.1-0.2-0.2c0,0,0-0.1,0-0.1c0,0,0.1,0,0.1,0l0,0c0,0,0.1,0.1,0.1,0.1c0,0,0.1,0,0.1,0c0,0,0.1,0,0.1,0
						c0.1,0,0.1,0.1,0.1,0.1c0,0.1-0.1,0.1-0.1,0.1C22.1,12.7,22.1,12.7,22,12.8C22,12.8,22,12.8,22,12.8z M21.8,12.1l-0.5-0.3
						l0.5-0.2c-0.3,0-0.5,0.2-0.5,0.2c0,0-0.1,0-0.1,0c0,0,0-0.1,0-0.1c0,0,0.4-0.2,0.8-0.2c0.1,0,0.1,0.1,0.1,0.1
						c0,0,0,0.1-0.1,0.1l0,0c0,0,0,0,0,0c0,0.1,0,0.1-0.1,0.1l0,0C21.9,11.9,21.8,12,21.8,12.1L21.8,12.1z M18.3,11.8
						C18.3,11.8,18.3,11.8,18.3,11.8c-0.1-0.1-0.1-0.2-0.1-0.2c0,0,0.2-0.1,0.5-0.1c0,0,0,0,0,0c0.1,0,0.2-0.1,0.3-0.2l0,0
						c0.1-0.1,0.3-0.2,0.4-0.1c0,0,0.1,0.1,0,0.1c0,0-0.1,0.1-0.1,0c0,0-0.1,0-0.2,0.1c-0.1,0.1-0.2,0.3-0.4,0.3c0,0,0,0,0,0
						C18.5,11.7,18.4,11.8,18.3,11.8C18.4,11.8,18.3,11.8,18.3,11.8z M20.2,11.7C20.1,11.7,20.1,11.7,20.2,11.7c-0.4,0-0.7,0-0.7,0
						c-0.1,0-0.1,0-0.1-0.1c0-0.1,0-0.1,0.1-0.1c0,0,0.3,0,0.6,0c0.3,0,0.7-0.2,0.7-0.2c0,0,0.1,0,0.1,0c0,0,0,0.1,0,0.1
						C20.9,11.5,20.5,11.7,20.2,11.7z M18.7,11.6C18.7,11.6,18.6,11.5,18.7,11.6c-0.1-0.1-0.1-0.1,0-0.5c0-0.1,0.1-0.1,0.1-0.1
						c0.1,0,0.1,0.1,0.1,0.1c0,0,0,0.1,0,0.1c0,0,0,0,0,0c0,0,0.1-0.1,0.1-0.3c0-0.1,0-0.2,0-0.2c0,0,0,0,0-0.1c0-0.1,0-0.1,0.1-0.1
						c0.1,0,0.1,0,0.1,0.3c0,0.4-0.1,0.5-0.1,0.5c0,0-0.1,0-0.1,0c0,0,0,0,0,0c0,0.1,0,0.1,0,0.1C18.8,11.5,18.8,11.5,18.7,11.6
						C18.7,11.6,18.7,11.6,18.7,11.6z M20.8,11.2c-0.3,0-0.5,0-0.5,0c-0.2,0-0.5,0-0.5,0c0,0,0,0,0,0c-0.1,0-0.1,0-0.1-0.1
						c0-0.1,0-0.1,0.1-0.1c0,0,0.3,0,0.5,0c0.2,0,0.7,0,0.8,0c0,0,0.1,0,0.1,0c0.1,0,0.1,0.1,0.1,0.1C21.2,11.2,21,11.2,20.8,11.2z
						 M19.4,11.2C19.4,11.2,19.3,11.2,19.4,11.2c-0.1-0.1-0.2-0.2-0.1-0.3c0-0.1,0.1-0.2,0.1-0.3c0-0.1,0-0.5,0.2-0.5
						c0.1,0,0.1,0,0.1,0.1c0,0,0,0.1,0,0.1c0,0-0.1,0.2-0.1,0.3c0,0.1,0,0.2,0,0.3c0,0,0,0,0,0c0,0,0.1-0.1,0.2-0.2
						c0,0,0-0.1,0.1-0.1c0,0,0-0.4,0.1-0.5c0,0,0.1,0,0.1,0c0,0,0,0.1,0,0.1c-0.1,0.1-0.1,0.3-0.1,0.4c0,0,0,0,0,0
						c0.2,0,0.3,0.1,0.3,0.1c0,0,0,0.1,0,0.1c0,0-0.1,0-0.1,0c0,0-0.1-0.1-0.2,0l-0.1,0.1c0,0-0.1,0.1-0.1,0c0,0-0.1,0.1-0.1,0.1
						c0,0,0,0,0,0c0,0,0,0.1,0,0.1c0,0-0.1,0-0.1,0c0,0-0.1-0.1-0.1-0.2c0,0,0,0,0,0.1c0,0,0,0,0,0C19.5,11,19.5,11.1,19.4,11.2
						C19.4,11.2,19.4,11.2,19.4,11.2z M19.4,11L19.4,11L19.4,11z M19.6,11C19.6,11,19.6,11,19.6,11C19.6,11,19.6,11,19.6,11z
						 M19.5,10.3L19.5,10.3L19.5,10.3z M21.8,11c-0.1,0-0.2,0-0.4-0.1c-0.2-0.1-0.5-0.1-0.6-0.1c-0.1,0-0.1,0-0.1-0.1
						c0-0.1,0-0.1,0.1-0.1c0,0,0.4,0,0.7,0.2c0.2,0.1,0.3,0.1,0.3,0.1c0.1,0,0.1,0,0.1,0.1C21.9,10.9,21.9,10.9,21.8,11
						C21.8,10.9,21.8,11,21.8,11z M20.5,10.6C20.5,10.6,20.5,10.6,20.5,10.6c-0.1-0.1-0.2-0.1-0.3-0.1l-0.1-0.2c0,0,0.2-0.2,0.2-0.6
						c0-0.1,0.1-0.1,0.1-0.1c0.1,0,0.1,0,0.1,0.1c0,0.2-0.1,0.4-0.1,0.5l0.2-0.1l0,0c0,0,0-0.1,0.1-0.1c0.1-0.2,0.2-0.4,0.2-0.4
						c0-0.1,0-0.1,0.1-0.1c0.1,0,0.1,0,0.1,0.1c0,0,0,0.2-0.2,0.5c0,0,0.1,0,0.1,0c0,0,0,0,0,0c0,0,0,0,0,0c0,0,0,0,0,0
						c0.1-0.1,0.2-0.5,0.2-0.5c0-0.1,0-0.1,0.1-0.1c0.1,0,0.1,0,0.1,0.1c0,0.1,0,0.3-0.1,0.5c0.1,0,0.1,0,0.2,0
						c0.1-0.1,0.2-0.3,0.2-0.4c0-0.1,0-0.1,0.1-0.1c0,0,0,0,0,0c0.1,0,0.1,0,0.1,0.1c0,0.1-0.1,0.3-0.2,0.4c0.2,0,0.3,0.1,0.3,0.3
						c0,0.1,0,0.1-0.1,0.1c-0.1,0-0.1,0-0.1-0.1c0-0.1-0.1-0.1-0.1-0.1c0,0,0,0.1-0.1,0.1c-0.1,0-0.1,0-0.1-0.1c0,0,0,0,0-0.1
						c-0.1,0-0.1,0-0.2,0c0,0,0,0,0.1,0c0,0,0,0.1,0,0.1c0,0-0.1,0-0.1,0c0-0.1-0.1-0.1-0.2-0.1c-0.1,0-0.1,0-0.2,0c0,0,0,0,0,0
						c0,0,0,0.1,0,0.1c0,0-0.1,0-0.1,0c0,0-0.1,0-0.1,0l-0.2,0.1c0,0,0,0,0,0C20.7,10.5,20.6,10.6,20.5,10.6
						C20.6,10.6,20.6,10.6,20.5,10.6z"/>
				</g>
				<g>
					<path class="st1" d="M30.2,30.9c-0.4,0-0.7-0.1-0.7-0.1l0.1-0.2c0,0,1,0.4,2.5-0.6l0.1,0.2C31.3,30.8,30.7,30.9,30.2,30.9z"/>
				</g>
				<g>
					<path class="st1" d="M30.4,28.3c-0.5,0-0.9-0.2-1-0.3l0.1-0.2c0,0,0.8,0.4,1.4,0.1l0.1,0.2C30.8,28.2,30.6,28.3,30.4,28.3z"/>
				</g>
				<g>
					<path class="st1" d="M29.3,29.9c-1,0-1.9-0.3-2-0.3l0.1-0.2c0,0,2.5,0.8,4-0.2l0.1,0.2C30.8,29.8,30,29.9,29.3,29.9z"/>
				</g>
				<g>
					<polygon class="st1" points="12.4,32.1 12.3,32.1 12.3,31.4 12.5,31.4 					"/>
				</g>
				<g>
					<polygon class="st1" points="35.7,33.6 11.5,33.6 11.5,32 18.3,32 18.3,32.2 11.7,32.2 11.7,33.4 35.5,33.4 35.5,32.1 
						34.9,32.1 34.9,31.9 35.7,31.9 					"/>
				</g>
				<g>
					<path class="st1" d="M29.8,42.3l1.9-0.7l-0.2-0.5l-1.3,0.5l-0.2-0.7l1.2-0.4L30.9,40l-1.2,0.4l-0.2-0.6l1.3-0.5l-0.2-0.5
						l-1.9,0.7L29.8,42.3z M25.9,43.1l1.8-0.3l-0.1-0.5l-1.3,0.2L26,40.1l-0.6,0.1L25.9,43.1z M23.6,43.3l0.6,0l0-2.9l-0.6,0
						L23.6,43.3z M19.6,42.9l0.6,0.1l0.2-1.3l1.1,0.1l-0.2,1.3l0.6,0.1l0.4-2.9l-0.6-0.1l-0.2,1.1l-1.1-0.1l0.1-1.1L20,40L19.6,42.9
						z M17.8,40.5c0.2-0.7-0.1-1.2-0.7-1.4c-0.8-0.3-1.5,0.2-1.8,1c-0.3,0.8-0.1,1.6,0.7,1.9c0.6,0.2,1.2,0,1.5-0.7L17,41
						c-0.2,0.3-0.5,0.5-0.8,0.4c-0.5-0.2-0.5-0.7-0.3-1.2c0.2-0.5,0.6-0.9,1-0.7c0.3,0.1,0.4,0.4,0.4,0.7L17.8,40.5z"/>
				</g>
				<g>
					<path class="st1" d="M39.3,34.5L39.3,34.5l-1.1-0.4l0.4-0.5L39.3,34.5z M38.4,32.1L38,32.6l0.4,0.6L37.8,34l-0.6-0.2l-0.4,0.5
						l2.9,1l0.4-0.5L38.4,32.1z M40.2,32.8c0.6,0.2,1.2,0,1.5-0.6c0.4-0.7,0-1.5-0.8-1.9c-0.8-0.4-1.6-0.2-1.9,0.5
						c-0.3,0.6-0.1,1.2,0.6,1.6l0.3-0.5c-0.3-0.2-0.5-0.5-0.3-0.8c0.2-0.5,0.8-0.4,1.2-0.2c0.5,0.2,0.8,0.6,0.6,1.1
						c-0.1,0.3-0.4,0.4-0.7,0.3L40.2,32.8z M39.9,28.9l-0.2,0.5l2.7,1l0.2-0.5L39.9,28.9z M40.5,26.8L40,28.6l0.5,0.1l0.3-1.2
						l2.3,0.6l0.2-0.6L40.5,26.8z M43.3,25.2l-0.1,0.5c0,0.2-0.1,0.4-0.4,0.4c-0.2,0-0.3-0.2-0.3-0.4l0.1-0.6L43.3,25.2z M41,24.3
						l-0.2,1.3c-0.1,0.5,0.1,1,0.7,1c0.4,0,0.7-0.1,0.8-0.4c0.1,0.2,0.3,0.4,0.6,0.4c0.5,0.1,0.8-0.2,0.8-0.7l0.2-1.2L41,24.3z
						 M42.2,25l-0.1,0.6c0,0.2-0.2,0.4-0.5,0.4c-0.3,0-0.4-0.2-0.3-0.5l0.1-0.6L42.2,25z M44,23.7l0-0.6l-1.8,0
						c-0.4,0-0.6-0.1-0.6-0.5c0-0.5,0.3-0.5,0.6-0.6l1.8,0l0-0.6l-1.8,0c-0.8,0-1.2,0.4-1.2,1.1c0,0.7,0.4,1.1,1.2,1.1L44,23.7z
						 M43.2,19.2l0.1,0.4c0,0.3,0,0.5-0.3,0.6c-0.4,0.1-0.5-0.2-0.5-0.4l-0.1-0.4L43.2,19.2z M40.7,19.1l0.1,0.6l1-0.2l0.1,0.6
						c0.1,0.7,0.6,0.8,1.1,0.8c0.5-0.1,0.9-0.4,0.8-1.1l-0.2-1.2L40.7,19.1z M40,16.8l0.6,1.9l0.5-0.2l-0.4-1.4l0.7-0.2l0.4,1.2
						l0.5-0.2l-0.4-1.2l0.6-0.2l0.4,1.3l0.5-0.2l-0.6-1.9L40,16.8z M41.3,13.7l0.3,0.6c0.1,0.2,0.1,0.4-0.2,0.5
						c-0.3,0.1-0.4,0.1-0.6-0.2l-0.3-0.6L41.3,13.7z M38.9,14.3l0.3,0.5l1-0.5l0.3,0.5c0.1,0.3,0.1,0.4-0.2,0.6
						c-0.2,0.1-0.5,0.2-0.6,0.4l0.3,0.5c0.1-0.2,0.4-0.3,0.6-0.4c0.3-0.1,0.5-0.4,0.4-0.6l0,0c0.2,0.2,0.5,0.2,0.8,0
						c0.4-0.2,0.6-0.6,0.4-1.1L41.5,13L38.9,14.3z M39.3,10.9L39.3,10.9l-0.6,0.9l-0.4-0.5L39.3,10.9z M36.8,11.2l0.4,0.5l0.6-0.2
						l0.6,0.8L38,12.8l0.4,0.5l1.7-2.6l-0.4-0.5L36.8,11.2z M35.5,9.8l1.3,1.4l0.4-0.4l-0.9-0.9L38,8.2l-0.4-0.4L35.5,9.8z
						 M32.8,7.8L34.5,9l0.3-0.4l-1.2-0.8L34,7.1l1.1,0.7l0.3-0.4l-1-0.7l0.4-0.5L35.8,7l0.3-0.4l-1.6-1.1L32.8,7.8z M32,4.6l0.4,0.2
						c0.5,0.3,0.5,0.7,0.2,1.2c-0.3,0.6-0.7,0.6-1,0.5l-0.5-0.2L32,4.6z M30.4,6.5l1,0.5c0.7,0.4,1.4,0,1.7-0.8
						c0.4-0.9,0.2-1.5-0.4-1.8l-1-0.5L30.4,6.5z M27.4,5.6l1.8,0.5l0.1-0.5l-1.2-0.3l0.6-2.3l-0.6-0.2L27.4,5.6z M26.2,3.1L26.2,3.1
						l0.2,1.1l-0.7-0.1L26.2,3.1z M24.6,5.1l0.6,0.1l0.3-0.6l1,0.1l0.1,0.7l0.6,0.1l-0.6-3L26,2.3L24.6,5.1z M22.7,2.7l0.6,0
						c0.3,0,0.4,0.1,0.4,0.4c0,0.3-0.1,0.4-0.4,0.4l-0.6,0L22.7,2.7z M22.2,5.1l0.6,0l0-1.1l0.6,0c0.3,0,0.4,0.1,0.4,0.4
						c0,0.2,0,0.5,0.1,0.7l0.6,0c-0.1-0.2-0.1-0.5-0.1-0.7c0-0.3-0.1-0.6-0.4-0.7v0c0.3-0.1,0.4-0.4,0.4-0.7c0-0.4-0.3-0.8-0.8-0.8
						l-1.4,0L22.2,5.1z M19.8,5.5l2-0.3l-0.1-0.5l-1.4,0.2l-0.1-0.7l1.3-0.2l-0.1-0.5l-1.3,0.2L20,3l1.4-0.2l-0.1-0.5l-1.9,0.3
						L19.8,5.5z M17.2,6.2l0.5-0.2l-0.6-1.9l0,0l1.6,1.5l0.6-0.2l-0.9-2.8l-0.5,0.2l0.6,1.9l0,0l-1.7-1.5l-0.5,0.2L17.2,6.2z
						 M15,7.2l1.8-0.9l-0.2-0.5l-1.3,0.6L15,5.9l1.1-0.6l-0.2-0.4l-1.1,0.6l-0.3-0.6l1.3-0.6l-0.2-0.5l-1.8,0.9L15,7.2z M14.2,7.7
						l0.3-0.2l-0.9-1.3l-0.9,0.6L13,7.2l0.5-0.3c0.2,0.4,0.2,0.7-0.2,0.9c-0.4,0.3-0.9,0-1.1-0.4c-0.3-0.4-0.4-0.9,0-1.2
						c0.2-0.2,0.5-0.1,0.7,0.1l0.5-0.3c-0.4-0.5-1.1-0.5-1.5-0.2c-0.7,0.5-0.7,1.3-0.2,2c0.5,0.7,1.3,1,1.9,0.5
						C13.8,8,14,7.8,14,7.4L14.2,7.7z M9.2,8.9L9.2,8.9l1,0.5L9.7,9.9L9.2,8.9z M9.9,11.4l0.4-0.4L10,10.3l0.7-0.7l0.6,0.3l0.4-0.4
						L8.9,8.2L8.5,8.6L9.9,11.4z M9.4,12l0.4-0.5L7.5,9.7l-0.4,0.5L9.4,12z M6.2,12.4l0.3-0.5c0.1-0.2,0.3-0.3,0.6-0.1
						c0.3,0.2,0.3,0.3,0.1,0.6l-0.3,0.5L6.2,12.4z M8,14.2l0.3-0.5l-1-0.6l0.3-0.5c0.2-0.3,0.3-0.3,0.6-0.1c0.2,0.1,0.4,0.3,0.6,0.3
						l0.3-0.5c-0.2,0-0.5-0.2-0.7-0.3c-0.3-0.1-0.6-0.2-0.8,0l0,0c0-0.3-0.1-0.6-0.4-0.7C7,11,6.5,11,6.2,11.4l-0.8,1.2L8,14.2z
						 M5.6,15.8c-0.5-0.2-0.8-0.6-0.6-1.1c0.2-0.5,0.7-0.5,1.2-0.3c0.4,0.2,0.8,0.6,0.6,1.1C6.6,16,6.1,16,5.6,15.8 M5.4,16.3
						c0.8,0.3,1.6,0.2,1.9-0.6c0.3-0.8-0.1-1.5-0.9-1.8c-0.8-0.3-1.6-0.2-1.9,0.6C4.2,15.3,4.6,16,5.4,16.3 M6.2,18.9l0.5-1.8
						L6.2,17l-0.3,1.2l-2.3-0.6l-0.2,0.6L6.2,18.9z M3.8,20.2L3.8,20.2L4.9,20l-0.1,0.7L3.8,20.2z M5.8,21.7l0.1-0.6l-0.6-0.3l0.1-1
						L6,19.8l0.1-0.6l-3,0.6L3,20.4L5.8,21.7z M3.4,23.6l0-0.6c0-0.3,0.1-0.4,0.4-0.4c0.3,0,0.4,0.1,0.4,0.4l0,0.6L3.4,23.6z
						 M5.8,24.1l0-0.6l-1.2,0l0-0.6c0-0.3,0.1-0.4,0.4-0.4c0.2,0,0.5,0,0.7-0.1l0-0.6C5.6,22,5.3,22,5.1,22c-0.3,0-0.6,0.1-0.7,0.4
						h0C4.3,22.1,4,22,3.7,22c-0.4,0-0.8,0.3-0.8,0.8l0,1.4L5.8,24.1z M6.1,25.8L6,25.2l-2.4,0.4l-0.1-0.8L3,24.9l0.3,2.1L3.8,27
						l-0.1-0.8L6.1,25.8z M6.9,29l-0.2-0.5l-1.9,0.6l0,0l1.5-1.6l-0.2-0.6l-2.8,0.9l0.2,0.5l1.9-0.6l0,0L4,29.4l0.2,0.5L6.9,29z
						 M6.7,31.9c-0.5,0.2-1,0.3-1.2-0.2c-0.2-0.5,0.1-0.9,0.6-1.1c0.4-0.2,1-0.3,1.2,0.2C7.5,31.3,7.1,31.6,6.7,31.9 M6.9,32.4
						c0.8-0.4,1.2-1.1,0.8-1.8c-0.4-0.7-1.2-0.9-1.9-0.5C5,30.4,4.6,31.2,5,31.9C5.3,32.6,6.1,32.8,6.9,32.4 M6.8,33.1
						c-0.5,0.4-0.5,1.1-0.2,1.5c0.5,0.7,1.3,0.7,2,0.2c0.7-0.5,1-1.3,0.5-1.9c-0.4-0.5-1-0.6-1.7-0.3l0.3,0.5
						c0.3-0.2,0.7-0.2,0.9,0.1c0.3,0.4,0,0.9-0.4,1.2c-0.4,0.3-0.9,0.4-1.2,0c-0.2-0.2-0.1-0.6,0.1-0.8L6.8,33.1z"/>
				</g>
				<g>
					<path class="st1" d="M29.7,32.4c-0.5,0-1-0.1-1.5-0.2c-0.5-0.1-0.8,0-0.9,0c-0.1,0-0.4,0.1-0.7,0c-0.2,0-0.3-0.1-0.5-0.1
						L25.9,32c-0.3-0.1-0.4,0.1-0.4,0.1l0,0l0,0c0,0-0.5,0.1-0.9,0c-0.2,0-0.3-0.1-0.4-0.1c-0.3-0.1-0.6-0.1-0.8-0.1
						c-0.1,0-0.2,0.1-0.2,0.1C23,32,23,32,22.7,32c-0.3,0-0.5-0.1-0.5-0.3c0,0,0-0.1,0-0.2c0-0.1,0-0.3,0-0.6c-0.1,0-0.1,0-0.1,0
						c-0.5,0.2-0.9,0.3-1.2,0.3c-0.1,0-0.1,0-0.1-0.1c0-0.1,0-0.1,0.1-0.1c0,0,0,0,0.1,0c0.3,0,0.6,0,1-0.2c0,0,0.4-0.2,0.6,0
						c0.1,0,0.1,0.1,0.2,0.2c0,0,0,0.3-0.3,0.5c0,0-0.1,0.1-0.1,0.1c0,0,0,0,0,0.1c0,0,0,0,0,0c0,0.1,0.1,0.2,0.3,0.1
						c0.3,0,0.3,0,0.4-0.1c0,0,0.1,0,0.2-0.1c0.3-0.1,0.6,0,0.9,0.1c0.1,0,0.3,0.1,0.4,0.1c0.2,0,0.7,0,0.8,0
						c0.1-0.1,0.3-0.2,0.6-0.1l0.3,0.1c0.2,0,0.3,0.1,0.5,0.1c0.3,0.1,0.6,0,0.6,0c0.1,0,0.4-0.1,1,0c0.5,0.1,1.2,0.3,1.7,0.2
						c0.2,0,0.5,0,0.8,0c0.2,0,0.4,0,0.6,0c0.4,0,1.3-0.3,1.3-0.3c0,0,0.1,0,0.1,0c0,0,0,0.1,0,0.1c-0.1,0-1,0.3-1.4,0.4
						c-0.2,0-0.4,0-0.6,0c-0.3,0-0.5,0-0.7,0C29.9,32.4,29.8,32.4,29.7,32.4z M22.4,31c0,0.1,0,0.3,0,0.4c0.2-0.1,0.2-0.3,0.2-0.3
						C22.5,31,22.5,31,22.4,31C22.4,31,22.4,31,22.4,31z M19.6,32.3C19.6,32.3,19.6,32.3,19.6,32.3c-0.1-0.1-0.1-0.1-0.1-0.2
						c0.2-0.1,0.2-0.2,0.2-0.2c0,0-0.1-0.1-0.1-0.1c0,0-0.2,0-0.4-0.2c-0.1-0.1-0.2-0.2-0.2-0.4c0-0.2,0.1-0.4,0.2-0.5
						c0.1-0.1,0.2-0.3,0.2-0.3c0-0.1-0.1-0.8,0-1.1c0.1-0.3,0-0.8,0-0.8c0-0.1,0-0.1,0.1-0.1c0,0,0.1,0,0.1,0.1c0,0,0,0.5,0,0.8
						c-0.1,0.3,0,0.9,0,1c0,0.1-0.1,0.4-0.3,0.6c-0.1,0-0.1,0.2-0.1,0.4c0,0.1,0,0.2,0.1,0.3c0,0,0,0,0.1,0
						c-0.1-0.1-0.1-0.2-0.1-0.3c0-0.2,0-0.3,0.2-0.4c0.2-0.1,0.4-0.1,0.7,0.1c0,0,0.1,0.1,0,0.1c0,0-0.1,0.1-0.1,0
						c-0.3-0.1-0.4-0.1-0.5-0.1c0,0-0.1,0.1-0.1,0.2c0,0.1,0,0.2,0.2,0.2c0.4,0.1,0.4,0.4,0.4,0.5c0,0.1-0.1,0.1-0.1,0.1
						C20,32.1,20,32,20,32c0,0,0-0.2-0.2-0.3c0.1,0,0.2,0.1,0.2,0.2C19.9,32,19.9,32.2,19.6,32.3C19.7,32.3,19.6,32.3,19.6,32.3z
						 M18.6,32.2C18.6,32.2,18.5,32.2,18.6,32.2c-0.2-0.2-0.2-0.3,0-0.5c0,0,0,0,0,0c-0.1,0-0.1,0.1-0.1,0.2c0,0.1-0.1,0.1-0.1,0.1
						c-0.1,0-0.1-0.1-0.1-0.1c0-0.2,0.1-0.3,0.2-0.3c0.1,0,0.1-0.1,0.2-0.3c0,0,0-0.1,0-0.2c-0.1-0.1-0.3,0-0.5,0
						c-0.1,0-0.1,0-0.1-0.1c0-0.1,0-0.1,0.1-0.1c0.1,0,0.5-0.1,0.7,0c0.1,0.1,0.1,0.2,0,0.4c0,0,0,0,0,0c0.2-0.3,0.1-0.7-0.1-1.2
						c-0.2-0.5-0.2-0.9-0.2-1.2l0-0.1c0-0.4-0.1-0.9-0.1-0.9c-0.1-0.5-0.2-1.2-0.2-1.3c0-0.1,0-0.1,0.1-0.1c0.1,0,0.1,0,0.1,0.1
						c0,0,0,0.7,0.2,1.2c0,0,0.2,0.6,0.2,1l0,0.1c0,0.3,0,0.7,0.2,1.2c0.2,0.5,0.3,1.1,0,1.5c-0.2,0.2-0.2,0.4-0.2,0.5
						C18.7,32.1,18.7,32.1,18.6,32.2C18.6,32.2,18.6,32.2,18.6,32.2z M32.1,31.9C32,31.9,32,31.8,32.1,31.9c-0.1-0.1-0.1-0.2,0-0.2
						c0.5-0.1,0.9-0.6,0.9-0.6c0,0,0.1,0,0.1,0c0,0,0,0.1,0,0.1C33.1,31.3,32.7,31.7,32.1,31.9C32.1,31.9,32.1,31.9,32.1,31.9z
						 M22.5,31.8C22.5,31.8,22.4,31.8,22.5,31.8c-0.2-0.2-0.1-0.3,0-0.4c0,0,0.4-0.4,0.2-0.7c-0.3-0.4-0.3-0.5-0.3-0.6
						c0-0.1,0-0.3-0.1-0.6c-0.1-0.4-0.1-0.6-0.1-0.6c0-0.1,0-0.1,0.1-0.1c0.1,0,0.1,0,0.1,0.1c0,0,0,0.1,0.1,0.5
						c0.1,0.3,0.1,0.5,0.1,0.7c0,0.1,0,0.2,0.3,0.5c0.3,0.4,0,0.8-0.2,1c0,0-0.1,0.1-0.1,0.1C22.6,31.7,22.6,31.8,22.5,31.8
						C22.5,31.8,22.5,31.8,22.5,31.8z M26.3,30.2C26.3,30.2,26.2,30.2,26.3,30.2c-0.1-0.1-1.6-1.1-2.2-2c0,0,0-0.1,0-0.1
						c0,0,0.1,0,0.1,0c0.6,0.9,2,1.9,2.1,1.9C26.4,30.1,26.4,30.1,26.3,30.2C26.3,30.2,26.3,30.2,26.3,30.2z M27.1,28.8
						C27.1,28.8,27.1,28.8,27.1,28.8c-1-0.4-2-1.4-2.1-1.4c0,0,0-0.1,0-0.1c0,0,0.1,0,0.1,0c0,0,1,1,2,1.4
						C27.2,28.6,27.2,28.7,27.1,28.8C27.2,28.8,27.1,28.8,27.1,28.8z M21.5,28.4c-0.1,0-0.2,0-0.3,0c-0.2,0-0.4-0.1-0.5-0.1
						c-0.3,0-0.5-0.1-1.3-0.3c-0.6-0.2-0.7-0.5-0.7-0.6c0,0,0-0.1,0.1-0.1c0,0,0.1,0,0.1,0.1c0,0,0.1,0.3,0.6,0.4
						c0.7,0.3,0.9,0.3,1.2,0.3c0.1,0,0.3,0,0.5,0.1c0.4,0.1,0.8-0.2,0.9-0.3c0.1-0.2,0.7-0.6,0.8-0.7c0,0,0.6-0.5,0.9-0.9
						c0.4-0.5,0.4-0.8,0.6-1.6c0-0.2,0.1-0.3,0.1-0.5c0.2-1.1-0.1-1.4-0.1-1.4c0,0,0-0.1,0-0.1c0,0,0.1,0,0.1,0c0,0,0.4,0.4,0.1,1.6
						c0,0.2-0.1,0.4-0.1,0.5c-0.1,0.8-0.2,1.1-0.6,1.7c-0.3,0.5-0.9,0.9-1,0.9c-0.3,0.2-0.7,0.5-0.7,0.6
						C22.3,28.1,22,28.4,21.5,28.4z M31,27.9C31,27.9,31,27.8,31,27.9c-0.6-0.6-1-1.3-1.1-1.6c0,0,0,0,0,0c-0.2-0.6-0.4-1-0.4-1
						c-0.3-1.4-1.5-1.5-1.5-1.5c-0.1,0-0.1,0-0.1-0.1c0-0.1,0.1-0.1,0.1-0.1c0,0,1,0.1,1.5,1.1c0-0.2,0.2-0.9,0.6-1.5
						c0,0,0.1-0.1,0.1,0c0,0,0.1,0.1,0,0.1c-0.4,0.7-0.6,1.4-0.6,1.4c0,0.1-0.1,0.1-0.1,0.1c0,0.1,0.1,0.2,0.1,0.4
						c0,0,0,0.1,0.3,0.9c0,0,0,0,0,0c0,0,0.4,1,1,1.6C31.1,27.7,31.1,27.8,31,27.9C31.1,27.8,31.1,27.9,31,27.9z M27.2,27.6
						C27.2,27.6,27.2,27.6,27.2,27.6c-1-0.2-1.8-0.7-1.9-0.7c0,0-0.1-0.1,0-0.1c0,0,0.1-0.1,0.1,0c0,0,0.8,0.6,1.8,0.7
						C27.3,27.4,27.4,27.4,27.2,27.6C27.3,27.5,27.3,27.6,27.2,27.6z M31.2,27.4C31.2,27.4,31.2,27.4,31.2,27.4
						c-0.1,0-0.1-0.1-0.1-0.1l0,0c0,0,0,0-0.1-0.1c0,0-0.1,0-0.1,0c-0.2-0.1-0.3-0.1-0.4-0.5c-0.1-0.5-0.1-1.4,0-2
						c0-0.5,0.1-1,0.1-1c0-0.1,0-0.1,0.1-0.1c0.1,0,0.1,0,0.1,0.1c0,0,0,0.6-0.1,1c-0.1,0.5-0.1,1.5,0,1.9c0.1,0.3,0.1,0.3,0.3,0.4
						c0,0,0,0,0,0c-0.1,0-0.2-0.2-0.2-0.4c0-0.1,0.1-0.3,0.3-0.4l0,0l0.2-0.1c0.1,0,0.1,0,0.1,0.1c0,0.1,0,0.1-0.1,0.1l-0.2,0.1
						C31,26.5,31,26.5,31,26.6c0,0.1,0.1,0.2,0.2,0.2c0,0,0.1,0.1,0,0.1c0,0,0,0-0.1,0c0,0,0,0,0,0C31.4,27.2,31.3,27.3,31.2,27.4
						C31.3,27.4,31.3,27.4,31.2,27.4z M20.6,26.9c-0.3,0-0.8,0-1-0.1c0,0-0.4-0.2-0.7-0.2c-0.1,0-0.8-0.1-1-0.2c0,0,0-0.1,0-0.1
						c0,0,0.1,0,0.1,0c0.1,0.1,0.6,0.2,0.9,0.2c0.3,0.1,0.7,0.2,0.7,0.2c0.3,0.1,1.2,0.1,1.3,0.1c1.2-0.1,1.8-1.2,2.1-1.8
						c0.2-0.5,0.5-0.9,0.7-1.3c0.1-0.1,0.1-0.2,0.2-0.3c0.3-0.4,0.3-0.6,0.3-0.6c0-0.1,0-0.1,0.1-0.1c0.1,0,0.1,0,0.1,0.1
						c0,0.1,0,0.2-0.3,0.7c-0.1,0.1-0.1,0.2-0.2,0.4c-0.2,0.4-0.5,0.7-0.7,1.2c-0.3,0.6-1,1.7-2.3,1.9
						C20.9,26.9,20.8,26.9,20.6,26.9z M23.4,26.5C23.3,26.5,23.3,26.4,23.4,26.5c-0.1-0.1-0.1-0.2,0-0.2c0.2,0,0.3-0.3,0.3-0.3
						c0,0,0.1-0.1,0.1,0c0,0,0.1,0.1,0,0.1C23.9,26.1,23.7,26.5,23.4,26.5z M26.8,26.4C26.8,26.4,26.8,26.4,26.8,26.4
						c-0.8-0.1-1.2-0.3-1.2-0.3c0,0-0.1-0.1,0-0.1c0,0,0.1-0.1,0.1,0c0,0,0.3,0.2,1.1,0.3C26.9,26.2,26.9,26.2,26.8,26.4
						C26.9,26.3,26.8,26.4,26.8,26.4z M20.6,26c-0.1,0-0.2,0-0.4,0c-1-0.1-1.4-0.5-1.4-0.5l0,0l0,0c0-0.2-0.2-0.3-0.2-0.3
						c-0.1,0-0.3-0.1-0.5-0.3c-0.1-0.2-0.2-0.3-0.2-0.3c-0.6-0.4-0.4-1.1-0.4-1.1c0-0.1,0.1-0.1,0.1-0.1c0.1,0,0.1,0.1,0.1,0.1
						c0,0-0.1,0.6,0.4,0.9c0,0,0.2,0.1,0.3,0.4c0.1,0.1,0.3,0.2,0.3,0.2l0,0c0.1,0,0.3,0.2,0.3,0.4c0.1,0.1,0.5,0.3,1.3,0.4
						c1.1,0.1,1.7-0.5,1.7-0.5c0,0,0.5-0.6,0.6-0.8c0.1-0.1,0.1-0.2,0.2-0.4c0.1-0.2,0.2-0.5,0.5-0.9c0.1-0.2,0.2-0.2,0.2-0.3
						c0.1-0.1,0.1-0.2,0.3-0.3c0,0,0.1,0,0.1,0c0,0,0,0.1,0,0.1c-0.2,0.1-0.2,0.2-0.2,0.3c0,0.1-0.1,0.2-0.2,0.3
						c-0.3,0.4-0.4,0.6-0.5,0.8c-0.1,0.1-0.1,0.3-0.2,0.4c-0.1,0.1-0.6,0.8-0.6,0.8C22.1,25.4,21.6,26,20.6,26z M17,24.5
						C17,24.5,17,24.5,17,24.5c-0.3-0.1-0.3-0.4-0.4-0.9c-0.1-0.6,0.2-1.2,0.9-1.9c0.6-0.5,0.6-0.7,0.6-0.7c0-0.1,0-0.1,0.1-0.1
						c0.1,0,0.1,0,0.1,0.1c0,0,0,0.3-0.7,0.9c-0.6,0.6-0.9,1.2-0.8,1.7c0.1,0.6,0.1,0.7,0.2,0.8C17.1,24.4,17.1,24.4,17,24.5
						C17.1,24.5,17,24.5,17,24.5z M25.8,24.3C25.8,24.3,25.7,24.2,25.8,24.3c-0.1-1.2-0.8-1.4-0.8-1.4c-0.1,0-0.1-0.1-0.1-0.1
						c0-0.1,0.1-0.1,0.1-0.1C25,22.7,25.9,23,25.8,24.3C25.9,24.2,25.9,24.3,25.8,24.3C25.8,24.3,25.8,24.3,25.8,24.3z M24.3,21.9
						C24.3,21.9,24.3,21.9,24.3,21.9c-2-0.8-2-2.2-2-2.3c0-0.1,0-0.1,0.1-0.1c0,0,0,0,0,0c0.1,0,0.1,0,0.1,0.1c0,0.1,0,1.4,1.8,2.1
						C24.4,21.8,24.5,21.8,24.3,21.9C24.4,21.9,24.4,21.9,24.3,21.9z M16.1,20.7C16,20.7,16,20.6,16.1,20.7
						c-0.3-0.4-0.2-1.4-0.2-1.6c0-0.1,0.1-0.4,0.1-0.9c0-0.5,0.1-0.9,0.1-0.9c0-0.1,0.1-0.1,0.1-0.1c0.1,0,0.1,0.1,0.1,0.1
						c0,0-0.1,0.4-0.1,0.8c0,0.4,0,0.9-0.1,1c0,0.1-0.1,1,0.1,1.4C16.2,20.6,16.2,20.6,16.1,20.7C16.1,20.7,16.1,20.7,16.1,20.7z
						 M25.6,15.9C25.6,15.9,25.6,15.9,25.6,15.9c-0.1,0-0.1-0.1-0.1-0.1c0,0,0.1-0.4,0.3-0.6c0,0,0.1-0.1,0.1,0c0,0,0.1,0.1,0,0.1
						C25.8,15.4,25.7,15.8,25.6,15.9C25.7,15.8,25.7,15.9,25.6,15.9z"/>
				</g>
			</g>
			<g>
				<g>
					<rect x="4" y="51" transform="matrix(0.7073 -0.707 0.707 0.7073 -35.7017 19.6878)" class="st2" width="3.9" height="3.9"/>
				</g>
				<g>
					
						<rect x="8.9" y="51" transform="matrix(0.7067 -0.7075 0.7075 0.7067 -34.2988 23.161)" class="st3" width="3.9" height="3.9"/>
				</g>
				<g>
					
						<rect x="13.7" y="51" transform="matrix(0.707 -0.7073 0.7073 0.707 -32.8628 26.5903)" class="st4" width="3.9" height="3.9"/>
				</g>
				<g>
					<rect x="38.1" y="51" transform="matrix(0.7072 -0.707 0.707 0.7072 -25.7283 43.782)" class="st5" width="3.9" height="3.9"/>
				</g>
				<g>
					
						<rect x="23.5" y="51" transform="matrix(0.7073 -0.707 0.707 0.7073 -30.0021 33.4512)" class="st6" width="3.9" height="3.9"/>
				</g>
				<g>
					
						<rect x="28.3" y="51" transform="matrix(0.7073 -0.707 0.707 0.7073 -28.5774 36.8917)" class="st7" width="3.9" height="3.9"/>
				</g>
				<g>
					
						<rect x="33.2" y="51" transform="matrix(0.707 -0.7072 0.7072 0.707 -27.1564 40.3523)" class="st8" width="3.9" height="3.9"/>
				</g>
				<g>
					
						<rect x="18.6" y="51" transform="matrix(0.7074 -0.7068 0.7068 0.7074 -31.4225 29.9993)" class="st9" width="3.9" height="3.9"/>
				</g>
			</g>
		</g>
	</g>
</g>
</svg>
