<?xml version="1.0" encoding="utf-8"?>
<!-- Generator: Adobe Illustrator 22.0.0, SVG Export Plug-In . SVG Version: 6.00 Build 0)  -->
<svg version="1.1" id="Capa_1" xmlns="http://www.w3.org/2000/svg" xmlns:xlink="http://www.w3.org/1999/xlink" x="0px" y="0px"
	 viewBox="0 0 1000 185.5" style="enable-background:new 0 0 1000 185.5;" xml:space="preserve">
<style type="text/css">
	.st0{fill:#262626;}
	.st1{fill:#C6DA1A;}
	.st2{fill:#B3BC00;}
</style>
<g>
	<g>
		<path class="st0" d="M28,126.5c1.2-1.7,2.2-3.6,3.4-5.3c1.2-1.7,3-2.2,4.4-1c0.8,0.7,10.8,9,20.9,9c9,0,14.7-5.5,14.7-12.1
			c0-7.8-6.8-12.8-19.7-18.1C38.5,93.2,28,86.3,28,71.2c0-10.2,7.8-24.1,28.6-24.1c13,0,22.8,6.8,24.1,7.7c1,0.7,2.1,2.5,0.8,4.4
			c-1,1.6-2.2,3.4-3.3,5c-1,1.7-2.7,2.5-4.6,1.3c-0.9-0.5-10-6.5-17.6-6.5c-11,0-14.7,6.9-14.7,11.7c0,7.4,5.7,12,16.6,16.4
			c15.1,6.1,28,13.3,28,29.2c0,13.6-12.1,24.6-29.1,24.6c-15.9,0-25.9-8.3-28-10.3C27.7,129.6,26.7,128.7,28,126.5z"/>
		<path class="st0" d="M103.9,50.8c0-1.3,1.2-2.5,2.5-2.5h8.6c1.3,0,2.5,1.2,2.5,2.5v86.3c0,1.3-1.2,2.5-2.5,2.5h-8.6
			c-1.3,0-2.5-1.2-2.5-2.5V50.8z"/>
		<path class="st0" d="M130.5,136.2l40-87.7c0.4-0.8,1.6-1.4,2.2-1.4h1.3c0.7,0,1.8,0.7,2.2,1.4l39.8,87.7c0.8,1.7-0.3,3.4-2.2,3.4
			h-8.2c-1.6,0-2.5-0.8-3-2l-8.1-17.9h-42.6c-2.6,6-5.3,11.9-8,17.9c-0.4,0.9-1.4,2-3,2h-8.2C130.8,139.6,129.7,137.9,130.5,136.2z
			 M189.6,108.6l-16-35.7h-0.7L157,108.6H189.6z"/>
		<path class="st0" d="M229,50.8c0-1.3,1-2.5,2.5-2.5h29.7c16,0,29.2,13,29.2,28.8c0,16.2-13.2,29.3-29.1,29.3h-18.9v30.6
			c0,1.3-1.2,2.5-2.5,2.5h-8.5c-1.4,0-2.5-1.2-2.5-2.5V50.8z M260.5,93.7c9,0,16.6-7.3,16.6-16.7c0-8.9-7.6-15.6-16.6-15.6h-18v32.3
			H260.5z"/>
		<path class="st0" d="M306.5,50.8c0-1.3,1-2.5,2.5-2.5h52.1c1.4,0,2.5,1.2,2.5,2.5v7.3c0,1.3-1,2.5-2.5,2.5h-41.2v26.6h34.8
			c1.3,0,2.5,1.2,2.5,2.5V97c0,1.4-1.2,2.5-2.5,2.5h-34.8v28h41.2c1.4,0,2.5,1.2,2.5,2.5v7.2c0,1.3-1,2.5-2.5,2.5h-52.1
			c-1.4,0-2.5-1.2-2.5-2.5V50.8z"/>
		<path class="st0" d="M383.2,50.8c0-1.3,1-2.5,2.5-2.5h35.5c15.6,0,28.4,12.4,28.4,27.9c0,12-8,21.9-19.3,26.5l17.9,33.1
			c0.9,1.7,0,3.8-2.2,3.8h-10.2c-1,0-1.8-0.7-2.1-1.2l-17.3-34.5h-19.7v33.2c0,1.3-1.2,2.5-2.5,2.5h-8.5c-1.4,0-2.5-1.2-2.5-2.5
			V50.8z M420.1,92.7c8.5,0,15.9-7.2,15.9-16.2c0-8.5-7.4-15.5-15.9-15.5h-23.2v31.7H420.1z"/>
	</g>
	<g>
		<path class="st0" d="M514.1,44.4c0.3-0.4,0.5-0.9,0.8-1.3c0.3-0.4,0.7-0.5,1.1-0.2c0.2,0.2,2.6,2.1,5,2.1c2.1,0,3.5-1.3,3.5-2.9
			c0-1.9-1.6-3-4.7-4.3c-3.2-1.3-5.6-3-5.6-6.6c0-2.4,1.9-5.7,6.8-5.7c3.1,0,5.4,1.6,5.7,1.8c0.3,0.2,0.5,0.6,0.2,1.1
			c-0.2,0.4-0.5,0.8-0.8,1.2c-0.2,0.4-0.6,0.6-1.1,0.3c-0.2-0.1-2.4-1.5-4.2-1.5c-2.6,0-3.5,1.6-3.5,2.8c0,1.8,1.4,2.9,3.9,3.9
			c3.6,1.5,6.7,3.2,6.7,6.9c0,3.2-2.9,5.9-6.9,5.9c-3.8,0-6.2-2-6.7-2.4C514,45.2,513.8,44.9,514.1,44.4z"/>
		<path class="st0" d="M531.5,26.4c0-0.3,0.3-0.6,0.6-0.6h2c0.3,0,0.6,0.3,0.6,0.6V47c0,0.3-0.3,0.6-0.6,0.6h-2
			c-0.3,0-0.6-0.3-0.6-0.6V26.4z"/>
		<path class="st0" d="M538.6,44.4c0.3-0.4,0.5-0.9,0.8-1.3c0.3-0.4,0.7-0.5,1.1-0.2c0.2,0.2,2.6,2.1,5,2.1c2.1,0,3.5-1.3,3.5-2.9
			c0-1.9-1.6-3-4.7-4.3c-3.2-1.3-5.6-3-5.6-6.6c0-2.4,1.9-5.7,6.8-5.7c3.1,0,5.4,1.6,5.7,1.8c0.3,0.2,0.5,0.6,0.2,1.1
			c-0.2,0.4-0.5,0.8-0.8,1.2c-0.2,0.4-0.6,0.6-1.1,0.3c-0.2-0.1-2.4-1.5-4.2-1.5c-2.6,0-3.5,1.6-3.5,2.8c0,1.8,1.4,2.9,3.9,3.9
			c3.6,1.5,6.7,3.2,6.7,6.9c0,3.2-2.9,5.9-6.9,5.9c-3.8,0-6.2-2-6.7-2.4C538.5,45.2,538.3,44.9,538.6,44.4z"/>
		<path class="st0" d="M558.9,28.8h-5.1c-0.3,0-0.6-0.3-0.6-0.6v-1.7c0-0.3,0.2-0.6,0.6-0.6h13.3c0.3,0,0.6,0.3,0.6,0.6v1.7
			c0,0.3-0.2,0.6-0.6,0.6h-5.1V47c0,0.3-0.3,0.6-0.6,0.6h-2c-0.3,0-0.6-0.3-0.6-0.6V28.8z"/>
		<path class="st0" d="M570.4,26.4c0-0.3,0.2-0.6,0.6-0.6h12.4c0.3,0,0.6,0.3,0.6,0.6v1.7c0,0.3-0.2,0.6-0.6,0.6h-9.8v6.3h8.3
			c0.3,0,0.6,0.3,0.6,0.6v1.7c0,0.3-0.3,0.6-0.6,0.6h-8.3v6.7h9.8c0.3,0,0.6,0.3,0.6,0.6V47c0,0.3-0.2,0.6-0.6,0.6H571
			c-0.3,0-0.6-0.3-0.6-0.6V26.4z"/>
		<path class="st0" d="M590.3,26c0.1-0.2,0.3-0.5,0.6-0.5h0.5c0.2,0,0.5,0.2,0.5,0.3l6.5,15.8h0.1l6.4-15.8c0.1-0.2,0.3-0.3,0.5-0.3
			h0.5c0.2,0,0.5,0.2,0.6,0.5l3.8,20.8c0.1,0.4-0.1,0.7-0.6,0.7h-2c-0.3,0-0.5-0.2-0.6-0.4l-2.3-13.9c0,0-0.1,0-0.1,0l-5.6,14.3
			c-0.1,0.2-0.2,0.3-0.5,0.3h-0.6c-0.2,0-0.5-0.2-0.5-0.3L592,33.2c0,0-0.1,0-0.1,0l-2.2,13.9c0,0.2-0.3,0.4-0.6,0.4h-2
			c-0.4,0-0.7-0.3-0.6-0.7L590.3,26z"/>
		<path class="st0" d="M611.2,46.7l9.5-20.9c0.1-0.2,0.4-0.3,0.5-0.3h0.3c0.2,0,0.4,0.2,0.5,0.3l9.5,20.9c0.2,0.4-0.1,0.8-0.5,0.8
			h-2c-0.4,0-0.6-0.2-0.7-0.5l-1.9-4.2h-10.1c-0.6,1.4-1.3,2.8-1.9,4.2c-0.1,0.2-0.3,0.5-0.7,0.5h-2
			C611.3,47.5,611.1,47.1,611.2,46.7z M625.3,40.2l-3.8-8.5h-0.2l-3.8,8.5H625.3z"/>
		<path class="st0" d="M640.1,26.4c0-0.3,0.2-0.6,0.6-0.6h7.1c6,0,10.9,4.9,10.9,10.8c0,6-4.9,10.9-10.9,10.9h-7.1
			c-0.3,0-0.6-0.3-0.6-0.6V26.4z M647.3,44.6c4.6,0,7.9-3.3,7.9-7.9c0-4.6-3.3-7.9-7.9-7.9h-4.1v15.8H647.3z"/>
		<path class="st0" d="M662.4,26.4c0-0.3,0.2-0.6,0.6-0.6h12.4c0.3,0,0.6,0.3,0.6,0.6v1.7c0,0.3-0.2,0.6-0.6,0.6h-9.8v6.3h8.3
			c0.3,0,0.6,0.3,0.6,0.6v1.7c0,0.3-0.3,0.6-0.6,0.6h-8.3v6.7h9.8c0.3,0,0.6,0.3,0.6,0.6V47c0,0.3-0.2,0.6-0.6,0.6H663
			c-0.3,0-0.6-0.3-0.6-0.6V26.4z"/>
		<path class="st0" d="M686,26.4c0-0.3,0.3-0.6,0.6-0.6h2c0.3,0,0.6,0.3,0.6,0.6V47c0,0.3-0.3,0.6-0.6,0.6h-2
			c-0.3,0-0.6-0.3-0.6-0.6V26.4z"/>
		<path class="st0" d="M694.6,26.1c0-0.3,0.3-0.6,0.6-0.6h0.8l13.5,15.6h0V26.4c0-0.3,0.2-0.6,0.6-0.6h2c0.3,0,0.6,0.3,0.6,0.6v20.9
			c0,0.3-0.3,0.6-0.6,0.6h-0.8l-13.5-16h0V47c0,0.3-0.2,0.6-0.6,0.6h-2c-0.3,0-0.6-0.3-0.6-0.6V26.1z"/>
		<path class="st0" d="M717.9,26.4c0-0.3,0.2-0.6,0.6-0.6h12.4c0.3,0,0.6,0.3,0.6,0.6v1.7c0,0.3-0.2,0.6-0.6,0.6h-9.8v7.2h8.3
			c0.3,0,0.6,0.3,0.6,0.6v1.7c0,0.3-0.3,0.6-0.6,0.6h-8.3V47c0,0.3-0.3,0.6-0.6,0.6h-2c-0.3,0-0.6-0.3-0.6-0.6V26.4z"/>
		<path class="st0" d="M744.3,25.5c6.2,0,11.2,5,11.2,11.2s-5,11.1-11.2,11.1c-6.2,0-11.1-4.9-11.1-11.1S738.1,25.5,744.3,25.5z
			 M744.3,44.7c4.4,0,8.1-3.6,8.1-8c0-4.4-3.6-8.1-8.1-8.1c-4.4,0-8,3.7-8,8.1C736.2,41.2,739.9,44.7,744.3,44.7z"/>
		<path class="st0" d="M759.1,26.4c0-0.3,0.2-0.6,0.6-0.6h8.4c3.7,0,6.8,2.9,6.8,6.6c0,2.9-1.9,5.2-4.6,6.3l4.2,7.9
			c0.2,0.4,0,0.9-0.5,0.9h-2.4c-0.2,0-0.4-0.2-0.5-0.3L767,39h-4.7V47c0,0.3-0.3,0.6-0.6,0.6h-2c-0.3,0-0.6-0.3-0.6-0.6V26.4z
			 M767.9,36.4c2,0,3.8-1.7,3.8-3.8c0-2-1.8-3.7-3.8-3.7h-5.5v7.5H767.9z"/>
		<path class="st0" d="M781.4,26c0.1-0.2,0.3-0.5,0.6-0.5h0.5c0.2,0,0.5,0.2,0.5,0.3l6.5,15.8h0.1l6.4-15.8c0.1-0.2,0.3-0.3,0.5-0.3
			h0.5c0.2,0,0.5,0.2,0.6,0.5l3.8,20.8c0.1,0.4-0.1,0.7-0.6,0.7h-2c-0.3,0-0.5-0.2-0.6-0.4L796,33.2c0,0-0.1,0-0.1,0l-5.6,14.3
			c-0.1,0.2-0.2,0.3-0.5,0.3h-0.6c-0.2,0-0.5-0.2-0.5-0.3l-5.6-14.3c0,0-0.1,0-0.1,0l-2.2,13.9c0,0.2-0.3,0.4-0.6,0.4h-2
			c-0.4,0-0.7-0.3-0.6-0.7L781.4,26z"/>
		<path class="st0" d="M802.3,46.7l9.5-20.9c0.1-0.2,0.4-0.3,0.5-0.3h0.3c0.2,0,0.4,0.2,0.5,0.3l9.5,20.9c0.2,0.4-0.1,0.8-0.5,0.8
			h-2c-0.4,0-0.6-0.2-0.7-0.5l-1.9-4.2h-10.1c-0.6,1.4-1.3,2.8-1.9,4.2c-0.1,0.2-0.3,0.5-0.7,0.5h-2
			C802.4,47.5,802.2,47.1,802.3,46.7z M816.4,40.2l-3.8-8.5h-0.2l-3.8,8.5H816.4z"/>
		<path class="st0" d="M834.5,25.5c3.1,0,5.4,1.1,7.5,2.9c0.3,0.2,0.3,0.6,0,0.9l-1.4,1.4c-0.2,0.3-0.5,0.3-0.8,0
			c-1.5-1.3-3.4-2.1-5.4-2.1c-4.4,0-7.8,3.7-7.8,8.1s3.4,8,7.8,8c2.3,0,3.8-0.9,5.3-2c0.3-0.2,0.6-0.2,0.7,0l1.4,1.4
			c0.2,0.2,0.2,0.6,0,0.8c-2.1,2-4.8,3-7.5,3c-6.2,0-11.2-4.9-11.2-11.1S828.3,25.5,834.5,25.5z"/>
		<path class="st0" d="M845.8,26.4c0-0.3,0.3-0.6,0.6-0.6h2c0.3,0,0.6,0.3,0.6,0.6V47c0,0.3-0.3,0.6-0.6,0.6h-2
			c-0.3,0-0.6-0.3-0.6-0.6V26.4z"/>
		<path class="st0" d="M863.9,25.5c6.2,0,11.2,5,11.2,11.2s-5,11.1-11.2,11.1c-6.2,0-11.1-4.9-11.1-11.1S857.7,25.5,863.9,25.5z
			 M863.9,44.7c4.4,0,8.1-3.6,8.1-8c0-4.4-3.6-8.1-8.1-8.1c-4.4,0-8,3.7-8,8.1C855.8,41.2,859.5,44.7,863.9,44.7z M861,23.4
			l-0.4-0.9c-0.1-0.2,0-0.5,0.2-0.6l4.9-2.8c0.2-0.1,0.7-0.2,0.8,0.1l0.7,1.4c0.2,0.3,0.1,0.6-0.2,0.7l-5.2,2.2
			C861.4,23.7,861.2,23.7,861,23.4z"/>
		<path class="st0" d="M878.7,26.1c0-0.3,0.3-0.6,0.6-0.6h0.8l13.5,15.6h0V26.4c0-0.3,0.2-0.6,0.6-0.6h2c0.3,0,0.6,0.3,0.6,0.6v20.9
			c0,0.3-0.3,0.6-0.6,0.6h-0.8l-13.5-16h0V47c0,0.3-0.2,0.6-0.6,0.6h-2c-0.3,0-0.6-0.3-0.6-0.6V26.1z"/>
		<path class="st0" d="M519.8,72.3L512.5,62c-0.2-0.4,0-0.9,0.5-0.9h2.3c0.2,0,0.4,0.2,0.5,0.3l5.6,7.9l5.6-7.9
			c0.1-0.1,0.3-0.3,0.5-0.3h2.3c0.5,0,0.7,0.5,0.5,0.9L523,72.3v9.9c0,0.3-0.3,0.6-0.6,0.6h-2c-0.3,0-0.6-0.3-0.6-0.6V72.3z"/>
		<path class="st0" d="M548.3,60.8c3.1,0,5.4,1.1,7.5,2.9c0.3,0.2,0.3,0.6,0,0.9l-1.4,1.4c-0.2,0.3-0.5,0.3-0.8,0
			c-1.5-1.3-3.4-2.1-5.4-2.1c-4.4,0-7.8,3.7-7.8,8.1s3.4,8,7.8,8c2.3,0,3.8-0.9,5.3-2c0.3-0.2,0.6-0.2,0.7,0l1.4,1.4
			c0.2,0.2,0.2,0.6,0,0.8c-2.1,2-4.8,3-7.5,3c-6.2,0-11.2-4.9-11.2-11.1S542.1,60.8,548.3,60.8z"/>
		<path class="st0" d="M569,60.8c6.2,0,11.2,5,11.2,11.2s-5,11.1-11.2,11.1c-6.2,0-11.1-4.9-11.1-11.1S562.8,60.8,569,60.8z M569,80
			c4.4,0,8.1-3.6,8.1-8c0-4.4-3.6-8.1-8.1-8.1c-4.4,0-8,3.7-8,8.1C561,76.4,564.6,80,569,80z"/>
		<path class="st0" d="M583.9,61.3c0-0.3,0.3-0.6,0.6-0.6h0.8l13.5,15.6h0V61.7c0-0.3,0.2-0.6,0.6-0.6h2c0.3,0,0.6,0.3,0.6,0.6v20.9
			c0,0.3-0.3,0.6-0.6,0.6h-0.8l-13.5-16h0v15.1c0,0.3-0.2,0.6-0.6,0.6h-2c-0.3,0-0.6-0.3-0.6-0.6V61.3z"/>
		<path class="st0" d="M610.2,64h-5.1c-0.3,0-0.6-0.3-0.6-0.6v-1.7c0-0.3,0.2-0.6,0.6-0.6h13.3c0.3,0,0.6,0.3,0.6,0.6v1.7
			c0,0.3-0.2,0.6-0.6,0.6h-5.1v18.2c0,0.3-0.3,0.6-0.6,0.6h-2c-0.3,0-0.6-0.3-0.6-0.6V64z"/>
		<path class="st0" d="M621.7,61.7c0-0.3,0.2-0.6,0.6-0.6h8.4c3.7,0,6.8,2.9,6.8,6.6c0,2.9-1.9,5.2-4.6,6.3l4.2,7.9
			c0.2,0.4,0,0.9-0.5,0.9h-2.4c-0.3,0-0.4-0.2-0.5-0.3l-4.1-8.2h-4.7v7.9c0,0.3-0.3,0.6-0.6,0.6h-2c-0.3,0-0.6-0.3-0.6-0.6V61.7z
			 M630.5,71.6c2,0,3.8-1.7,3.8-3.8c0-2-1.8-3.7-3.8-3.7h-5.5v7.5H630.5z"/>
		<path class="st0" d="M651.1,60.8c6.2,0,11.2,5,11.2,11.2s-5,11.1-11.2,11.1c-6.2,0-11.1-4.9-11.1-11.1S644.9,60.8,651.1,60.8z
			 M651.1,80c4.4,0,8.1-3.6,8.1-8c0-4.4-3.6-8.1-8.1-8.1c-4.4,0-8,3.7-8,8.1C643.1,76.4,646.7,80,651.1,80z"/>
		<path class="st0" d="M666,61.7c0-0.3,0.2-0.6,0.6-0.6h2c0.3,0,0.6,0.3,0.6,0.6v18.2h8.4c0.3,0,0.6,0.3,0.6,0.6v1.7
			c0,0.3-0.2,0.6-0.6,0.6h-11c-0.3,0-0.6-0.3-0.6-0.6V61.7z"/>
		<path class="st0" d="M686.9,61.7c0-0.3,0.2-0.6,0.6-0.6h7.1c6,0,10.9,4.9,10.9,10.8c0,6-4.9,10.9-10.9,10.9h-7.1
			c-0.3,0-0.6-0.3-0.6-0.6V61.7z M694.1,79.8c4.6,0,7.9-3.3,7.9-7.9c0-4.6-3.3-7.9-7.9-7.9H690v15.8H694.1z"/>
		<path class="st0" d="M709.2,61.7c0-0.3,0.2-0.6,0.6-0.6h12.4c0.3,0,0.6,0.3,0.6,0.6v1.7c0,0.3-0.2,0.6-0.6,0.6h-9.8v6.3h8.3
			c0.3,0,0.6,0.3,0.6,0.6v1.7c0,0.3-0.3,0.6-0.6,0.6h-8.3v6.7h9.8c0.3,0,0.6,0.3,0.6,0.6v1.7c0,0.3-0.2,0.6-0.6,0.6h-12.4
			c-0.3,0-0.6-0.3-0.6-0.6V61.7z"/>
		<path class="st0" d="M726.7,61.7c0-0.3,0.2-0.6,0.6-0.6h2c0.3,0,0.6,0.3,0.6,0.6v18.2h8.4c0.3,0,0.6,0.3,0.6,0.6v1.7
			c0,0.3-0.2,0.6-0.6,0.6h-11c-0.3,0-0.6-0.3-0.6-0.6V61.7z"/>
		<path class="st0" d="M747.6,61.7c0-0.3,0.2-0.6,0.6-0.6h7.1c3.8,0,6.9,3.1,6.9,6.9c0,3.8-3.1,7-6.9,7h-4.5v7.3
			c0,0.3-0.3,0.6-0.6,0.6h-2c-0.3,0-0.6-0.3-0.6-0.6V61.7z M755.1,71.9c2.1,0,3.9-1.7,3.9-4c0-2.1-1.8-3.7-3.9-3.7h-4.3v7.7H755.1z"
			/>
		<path class="st0" d="M765.3,61.7c0-0.3,0.2-0.6,0.6-0.6h12.4c0.3,0,0.6,0.3,0.6,0.6v1.7c0,0.3-0.2,0.6-0.6,0.6h-9.8v6.3h8.3
			c0.3,0,0.6,0.3,0.6,0.6v1.7c0,0.3-0.3,0.6-0.6,0.6h-8.3v6.7h9.8c0.3,0,0.6,0.3,0.6,0.6v1.7c0,0.3-0.2,0.6-0.6,0.6h-12.4
			c-0.3,0-0.6-0.3-0.6-0.6V61.7z"/>
		<path class="st0" d="M782.8,61.7c0-0.3,0.2-0.6,0.6-0.6h8.4c3.7,0,6.8,2.9,6.8,6.6c0,2.9-1.9,5.2-4.6,6.3l4.2,7.9
			c0.2,0.4,0,0.9-0.5,0.9h-2.4c-0.3,0-0.4-0.2-0.5-0.3l-4.1-8.2H786v7.9c0,0.3-0.3,0.6-0.6,0.6h-2c-0.3,0-0.6-0.3-0.6-0.6V61.7z
			 M791.6,71.6c2,0,3.8-1.7,3.8-3.8c0-2-1.8-3.7-3.8-3.7h-5.5v7.5H791.6z"/>
		<path class="st0" d="M801.3,79.6c0.3-0.4,0.5-0.9,0.8-1.3c0.3-0.4,0.7-0.5,1.1-0.2c0.2,0.2,2.6,2.1,5,2.1c2.1,0,3.5-1.3,3.5-2.9
			c0-1.9-1.6-3-4.7-4.3c-3.2-1.3-5.6-3-5.6-6.6c0-2.4,1.9-5.7,6.8-5.7c3.1,0,5.4,1.6,5.7,1.8c0.3,0.2,0.5,0.6,0.2,1.1
			c-0.2,0.4-0.5,0.8-0.8,1.2c-0.2,0.4-0.6,0.6-1.1,0.3c-0.2-0.1-2.4-1.5-4.2-1.5c-2.6,0-3.5,1.6-3.5,2.8c0,1.8,1.4,2.9,3.9,3.9
			c3.6,1.5,6.7,3.2,6.7,6.9c0,3.2-2.9,5.9-6.9,5.9c-3.8,0-6.2-2-6.7-2.4C801.3,80.4,801,80.2,801.3,79.6z"/>
		<path class="st0" d="M828.2,60.8c6.2,0,11.2,5,11.2,11.2s-5,11.1-11.2,11.1c-6.2,0-11.1-4.9-11.1-11.1S822,60.8,828.2,60.8z
			 M828.2,80c4.4,0,8.1-3.6,8.1-8c0-4.4-3.6-8.1-8.1-8.1c-4.4,0-8,3.7-8,8.1C820.2,76.4,823.8,80,828.2,80z"/>
		<path class="st0" d="M843.1,61.3c0-0.3,0.3-0.6,0.6-0.6h0.8l13.5,15.6h0V61.7c0-0.3,0.2-0.6,0.6-0.6h2c0.3,0,0.6,0.3,0.6,0.6v20.9
			c0,0.3-0.3,0.6-0.6,0.6h-0.8l-13.5-16h0v15.1c0,0.3-0.2,0.6-0.6,0.6h-2c-0.3,0-0.6-0.3-0.6-0.6V61.3z"/>
		<path class="st0" d="M863.5,82l9.5-20.9c0.1-0.2,0.4-0.3,0.5-0.3h0.3c0.2,0,0.4,0.2,0.5,0.3l9.5,20.9c0.2,0.4-0.1,0.8-0.5,0.8h-2
			c-0.4,0-0.6-0.2-0.7-0.5l-1.9-4.2h-10.1c-0.6,1.4-1.3,2.8-1.9,4.2c-0.1,0.2-0.3,0.5-0.7,0.5h-2C863.6,82.8,863.3,82.4,863.5,82z
			 M877.5,75.4l-3.8-8.5h-0.2l-3.8,8.5H877.5z"/>
		<path class="st0" d="M886.2,61.7c0-0.3,0.2-0.6,0.6-0.6h2c0.3,0,0.6,0.3,0.6,0.6v18.2h8.4c0.3,0,0.6,0.3,0.6,0.6v1.7
			c0,0.3-0.2,0.6-0.6,0.6h-11c-0.3,0-0.6-0.3-0.6-0.6V61.7z"/>
		<path class="st0" d="M907.4,61.5c0-0.2,0.2-0.4,0.4-0.4h6.6c6,0,10.9,4.9,10.9,10.8c0,6-4.9,10.9-10.9,10.9h-6.6
			c-0.2,0-0.4-0.2-0.4-0.4V61.5z M914.1,81.4c5.4,0,9.6-4.1,9.6-9.5c0-5.4-4.2-9.5-9.6-9.5h-5.2v19H914.1z"/>
		<path class="st0" d="M929.5,61.5c0-0.2,0.2-0.4,0.4-0.4h12.4c0.2,0,0.4,0.2,0.4,0.4V62c0,0.2-0.2,0.4-0.4,0.4H931V71h9.8
			c0.2,0,0.4,0.2,0.4,0.4v0.5c0,0.2-0.2,0.4-0.4,0.4H931v9.2h11.3c0.2,0,0.4,0.2,0.4,0.4v0.5c0,0.2-0.2,0.4-0.4,0.4h-12.4
			c-0.2,0-0.4-0.2-0.4-0.4V61.5z"/>
		<path class="st0" d="M953.4,61.5c0-0.2,0.2-0.4,0.4-0.4h0.7c0.2,0,0.4,0.2,0.4,0.4v20h9.9c0.4,0,0.4,0.2,0.4,0.4v0.6
			c0,0.2-0.2,0.3-0.4,0.3h-10.9c-0.2,0-0.4-0.2-0.4-0.4V61.5z"/>
		<path class="st0" d="M965.7,82.4l9.5-21.6c0.1-0.1,0.2-0.2,0.4-0.2h0.1c0.2,0,0.3,0,0.4,0.2l9.5,21.6c0.1,0.2,0.1,0.4-0.3,0.4
			h-0.8c-0.2,0-0.4-0.2-0.4-0.3l-2.5-5.7h-11.8l-2.5,5.7c-0.1,0.1-0.2,0.3-0.4,0.3h-0.9C965.7,82.8,965.6,82.6,965.7,82.4z
			 M981,75.6l-5.3-12.5h-0.1l-5.4,12.5H981z"/>
		<path class="st0" d="M512.7,117.6l9.5-21.6c0.1-0.1,0.2-0.2,0.4-0.2h0.1c0.2,0,0.3,0,0.4,0.2l9.5,21.6c0.1,0.2,0.1,0.4-0.3,0.4
			h-0.8c-0.2,0-0.4-0.2-0.4-0.3l-2.5-5.7h-11.8l-2.5,5.7c-0.1,0.1-0.2,0.3-0.4,0.3h-0.9C512.7,118,512.6,117.9,512.7,117.6z
			 M528,110.8l-5.3-12.5h-0.1l-5.4,12.5H528z"/>
		<path class="st0" d="M535.3,96.7c0-0.2,0.2-0.4,0.4-0.4h6.6c6,0,10.9,4.9,10.9,10.8c0,6-4.9,10.9-10.9,10.9h-6.6
			c-0.2,0-0.4-0.2-0.4-0.4V96.7z M542,116.7c5.4,0,9.6-4.1,9.6-9.5c0-5.4-4.2-9.5-9.6-9.5h-5.2v19H542z"/>
		<path class="st0" d="M560.2,96.2c0-0.1,0.2-0.2,0.3-0.2h0.3c0.2,0,0.2,0.1,0.3,0.2l6.4,19c0,0,0,0,0.1,0l6.4-19
			c0.1-0.2,0.2-0.2,0.3-0.2h0.3c0.1,0,0.2,0.1,0.3,0.2l4.4,21.4c0.1,0.3-0.1,0.4-0.3,0.4h-0.7c-0.2,0-0.3-0.2-0.4-0.3l-3.5-18.2
			c0,0-0.1,0-0.1,0L568,118c-0.1,0.2-0.2,0.2-0.4,0.2h-0.1c-0.2,0-0.3,0-0.4-0.2l-6.3-18.6c0,0,0,0-0.1,0l-3.5,18.2
			c0,0.2-0.2,0.3-0.4,0.3h-0.7c-0.3,0-0.4-0.1-0.3-0.4L560.2,96.2z"/>
		<path class="st0" d="M583.4,96.7c0-0.2,0.2-0.4,0.4-0.4h0.7c0.2,0,0.4,0.2,0.4,0.4v20.9c0,0.2-0.2,0.4-0.4,0.4h-0.7
			c-0.2,0-0.4-0.2-0.4-0.4V96.7z"/>
		<path class="st0" d="M590.8,96.4c0-0.2,0.2-0.4,0.5-0.4h0.5l14.9,19.4c0,0,0,0,0,0V96.7c0-0.2,0.2-0.4,0.4-0.4h0.6
			c0.2,0,0.4,0.2,0.4,0.4v21.2c0,0.3-0.2,0.4-0.5,0.4h-0.4c0,0-0.3-0.1-15-19.6h0v18.9c0,0.2-0.2,0.4-0.4,0.4h-0.6
			c-0.2,0-0.4-0.2-0.4-0.4V96.4z"/>
		<path class="st0" d="M613.9,96.7c0-0.2,0.2-0.4,0.4-0.4h0.7c0.2,0,0.4,0.2,0.4,0.4v20.9c0,0.2-0.2,0.4-0.4,0.4h-0.6
			c-0.2,0-0.4-0.2-0.4-0.4V96.7z"/>
		<path class="st0" d="M620,115.1l0.3-0.4c0.2-0.2,0.4-0.3,0.7-0.1c0.3,0.3,2.6,2.4,5.7,2.4c2.8,0,5.2-1.9,5.2-4.2
			c0-2.8-2.3-4-6-5.3c-3.6-1.3-6-2.5-6-6.1c0-2.3,1.9-5.5,6.7-5.5c3.1,0,5.3,1.6,5.3,1.6c0.1,0.1,0.3,0.3,0.1,0.7
			c-0.1,0.1-0.2,0.3-0.2,0.4c-0.2,0.2-0.4,0.3-0.7,0.2c-0.1-0.1-2.2-1.5-4.6-1.5c-3.8,0-5.2,2.4-5.2,4.1c0,2.6,2,3.8,5.1,4.8
			c4.2,1.5,6.9,2.9,6.9,6.5c0,3.1-3.2,5.5-6.8,5.5c-3.7,0-6.2-2.2-6.6-2.5C619.9,115.6,619.7,115.4,620,115.1z"/>
		<path class="st0" d="M640.7,97.6h-5.9c-0.3,0-0.4-0.2-0.4-0.5v-0.5c0-0.3,0.2-0.4,0.4-0.4h13.3c0.2,0,0.4,0.2,0.4,0.4v0.5
			c0,0.2-0.2,0.4-0.4,0.4h-6v20c0,0.2-0.2,0.4-0.5,0.4h-0.6c-0.2,0-0.4-0.2-0.4-0.4V97.6z"/>
		<path class="st0" d="M651.3,96.7c0-0.2,0.2-0.4,0.4-0.4h7.7c3.8,0,6.9,2.9,6.9,6.6c0,3.1-2.2,5.6-5.1,6.5l4.5,8
			c0.2,0.2,0.1,0.6-0.2,0.6h-1c-0.2,0-0.3-0.1-0.4-0.3l-4.5-8.1c-0.4,0-0.7,0-1.1,0h-5.7v8c0,0.2-0.2,0.4-0.5,0.4h-0.6
			c-0.2,0-0.4-0.2-0.4-0.4V96.7z M659.4,108.3c3,0,5.5-2.3,5.5-5.4c0-2.9-2.5-5.2-5.5-5.2h-6.5v10.6H659.4z"/>
		<path class="st0" d="M667.7,117.6l9.5-21.6c0.1-0.1,0.2-0.2,0.4-0.2h0.1c0.2,0,0.3,0,0.4,0.2l9.5,21.6c0.1,0.2,0.1,0.4-0.3,0.4
			h-0.8c-0.2,0-0.4-0.2-0.4-0.3l-2.5-5.7h-11.8l-2.5,5.7c-0.1,0.1-0.2,0.3-0.4,0.3h-0.9C667.7,118,667.6,117.9,667.7,117.6z
			 M683,110.8l-5.3-12.5h-0.1l-5.4,12.5H683z"/>
		<path class="st0" d="M699.8,96c3.2,0,5.5,1.1,7.5,2.9c0.2,0.2,0.2,0.4,0,0.6l-0.5,0.5c-0.2,0.2-0.3,0.2-0.5,0
			c-1.8-1.6-4-2.5-6.5-2.5c-5.4,0-9.7,4.4-9.7,9.8c0,5.3,4.2,9.7,9.7,9.7c2.7,0,4.7-1.1,6.5-2.6c0.2-0.2,0.4-0.2,0.5-0.1l0.5,0.5
			c0.2,0.1,0.2,0.4,0,0.5c-2.1,2-4.8,3-7.6,3c-6.2,0-11.2-4.9-11.2-11.1C688.6,101,693.6,96,699.8,96z"/>
		<path class="st0" d="M711.7,96.7c0-0.2,0.2-0.4,0.4-0.4h0.7c0.2,0,0.4,0.2,0.4,0.4v20.9c0,0.2-0.2,0.4-0.4,0.4h-0.7
			c-0.2,0-0.4-0.2-0.4-0.4V96.7z"/>
		<path class="st0" d="M728.7,96c6.2,0,11.2,5,11.2,11.2c0,6.2-5,11.1-11.2,11.1c-6.2,0-11.2-4.9-11.2-11.1
			C717.5,101,722.5,96,728.7,96z M728.7,116.9c5.4,0,9.8-4.3,9.8-9.8c0-5.4-4.4-9.8-9.8-9.8c-5.4,0-9.8,4.4-9.8,9.8
			C718.9,112.6,723.2,116.9,728.7,116.9z M726.1,93.6l-0.2-0.3c-0.1-0.2,0-0.3,0.2-0.4l5.1-2.8c0.1-0.1,0.4-0.1,0.5,0.1l0.3,0.6
			c0.1,0.2,0.1,0.4-0.1,0.5l-5.3,2.4C726.3,93.9,726.2,93.8,726.1,93.6z"/>
		<path class="st0" d="M744.2,96.4c0-0.2,0.2-0.4,0.5-0.4h0.5l14.9,19.4c0,0,0,0,0,0V96.7c0-0.2,0.2-0.4,0.4-0.4h0.6
			c0.2,0,0.4,0.2,0.4,0.4v21.2c0,0.3-0.2,0.4-0.5,0.4h-0.4c0,0-0.3-0.1-15-19.6h0v18.9c0,0.2-0.2,0.4-0.4,0.4h-0.6
			c-0.2,0-0.4-0.2-0.4-0.4V96.4z"/>
		<path class="st0" d="M773.4,96.7c0-0.2,0.2-0.4,0.4-0.4h6.6c6,0,10.9,4.9,10.9,10.8c0,6-4.9,10.9-10.9,10.9h-6.6
			c-0.2,0-0.4-0.2-0.4-0.4V96.7z M780.1,116.7c5.4,0,9.6-4.1,9.6-9.5c0-5.4-4.2-9.5-9.6-9.5h-5.2v19H780.1z"/>
		<path class="st0" d="M795.5,96.7c0-0.2,0.2-0.4,0.4-0.4h12.4c0.2,0,0.4,0.2,0.4,0.4v0.5c0,0.2-0.2,0.4-0.4,0.4H797v8.6h9.8
			c0.2,0,0.4,0.2,0.4,0.4v0.5c0,0.2-0.2,0.4-0.4,0.4H797v9.2h11.3c0.2,0,0.4,0.2,0.4,0.4v0.5c0,0.2-0.2,0.4-0.4,0.4h-12.4
			c-0.2,0-0.4-0.2-0.4-0.4V96.7z"/>
		<path class="st0" d="M813.3,96.7c0-0.2,0.2-0.4,0.4-0.4h0.7c0.2,0,0.4,0.2,0.4,0.4v20h9.9c0.4,0,0.4,0.2,0.4,0.4v0.6
			c0,0.2-0.2,0.3-0.4,0.3h-10.9c-0.2,0-0.4-0.2-0.4-0.4V96.7z"/>
		<path class="st0" d="M833.8,96.7c0-0.2,0.2-0.4,0.4-0.4h12.4c0.2,0,0.4,0.2,0.4,0.4v0.5c0,0.2-0.2,0.4-0.4,0.4h-11.3v8.6h9.8
			c0.2,0,0.4,0.2,0.4,0.4v0.5c0,0.2-0.2,0.4-0.4,0.4h-9.8v9.2h11.3c0.2,0,0.4,0.2,0.4,0.4v0.5c0,0.2-0.2,0.4-0.4,0.4h-12.4
			c-0.2,0-0.4-0.2-0.4-0.4V96.7z"/>
		<path class="st0" d="M850.3,115.1l0.3-0.4c0.2-0.2,0.4-0.3,0.7-0.1c0.3,0.3,2.6,2.4,5.7,2.4c2.8,0,5.2-1.9,5.2-4.2
			c0-2.8-2.3-4-6-5.3c-3.6-1.3-6-2.5-6-6.1c0-2.3,1.9-5.5,6.7-5.5c3.1,0,5.3,1.6,5.3,1.6c0.1,0.1,0.3,0.3,0.1,0.7
			c-0.1,0.1-0.2,0.3-0.2,0.4c-0.2,0.2-0.4,0.3-0.7,0.2c-0.1-0.1-2.2-1.5-4.6-1.5c-3.8,0-5.2,2.4-5.2,4.1c0,2.6,2,3.8,5.1,4.8
			c4.2,1.5,6.9,2.9,6.9,6.5c0,3.1-3.2,5.5-6.8,5.5c-3.7,0-6.2-2.2-6.6-2.5C850.2,115.6,850.1,115.4,850.3,115.1z"/>
		<path class="st0" d="M871,97.6h-5.9c-0.3,0-0.4-0.2-0.4-0.5v-0.5c0-0.3,0.2-0.4,0.4-0.4h13.3c0.2,0,0.4,0.2,0.4,0.4v0.5
			c0,0.2-0.2,0.4-0.4,0.4h-6v20c0,0.2-0.2,0.4-0.5,0.4h-0.6c-0.2,0-0.4-0.2-0.4-0.4V97.6z"/>
		<path class="st0" d="M877.3,117.6l9.5-21.6c0.1-0.1,0.2-0.2,0.4-0.2h0.1c0.2,0,0.3,0,0.4,0.2l9.5,21.6c0.1,0.2,0.1,0.4-0.3,0.4
			h-0.8c-0.2,0-0.4-0.2-0.4-0.3l-2.5-5.7h-11.8l-2.5,5.7c-0.1,0.1-0.2,0.3-0.4,0.3h-0.9C877.3,118,877.2,117.9,877.3,117.6z
			 M892.6,110.8l-5.3-12.5h-0.1l-5.4,12.5H892.6z"/>
		<path class="st0" d="M900,96.7c0-0.2,0.2-0.4,0.4-0.4h6.6c6,0,10.9,4.9,10.9,10.8c0,6-4.9,10.9-10.9,10.9h-6.6
			c-0.2,0-0.4-0.2-0.4-0.4V96.7z M906.6,116.7c5.4,0,9.6-4.1,9.6-9.5c0-5.4-4.2-9.5-9.6-9.5h-5.2v19H906.6z"/>
		<path class="st0" d="M931.7,96c6.2,0,11.2,5,11.2,11.2c0,6.2-5,11.1-11.2,11.1c-6.2,0-11.2-4.9-11.2-11.1
			C920.6,101,925.5,96,931.7,96z M931.7,116.9c5.4,0,9.8-4.3,9.8-9.8c0-5.4-4.4-9.8-9.8-9.8c-5.4,0-9.8,4.4-9.8,9.8
			C921.9,112.6,926.3,116.9,931.7,116.9z"/>
	</g>
	<circle class="st1" cx="479" cy="132.3" r="12.8"/>
	<g>
		<path class="st2" d="M528,137.3c3.6,0,5.6,1.1,6.5,1.9l-1.4,1.8c-1.1-0.9-2.7-1.5-5.4-1.5c-4.8,0-7.8,3.4-7.8,11.1
			c0,7.4,2.8,11.2,8,11.2c2.7,0,4.2-0.6,5.1-1.4l1.2,1.6c-1.1,1.1-3.3,1.9-6.7,1.9c-6.8,0-9.9-5.1-9.9-13
			C517.8,142.2,521.4,137.3,528,137.3z"/>
		<path class="st2" d="M538.1,153.6c0-6.1,2.2-10.3,8.1-10.3c5.8,0,7.8,4.1,7.8,10.1c0,6.1-2.2,10.3-8.1,10.3
			C540.2,163.7,538.1,159.6,538.1,153.6z M546.2,161.7c4.1,0,5.6-2.7,5.6-8.1c0-5.6-1.8-8.3-5.9-8.3c-4.1,0-5.6,2.6-5.6,8.1
			C540.3,159,542.1,161.7,546.2,161.7z"/>
		<path class="st2" d="M573.7,163.4h-2.1v-13.1c0-3.3-1.7-5.1-4.7-5.1c-2.7,0-4.8,1.8-5.5,3.8v14.3h-2.1v-19.7h1.6l0.5,2.2h0.1
			c0.4-0.5,2.3-2.5,5.7-2.5c4,0,6.4,2.2,6.5,6.5V163.4z"/>
		<path class="st2" d="M580.6,158.4v-13h-3v-1.4l3-0.4l0.6-5.2h1.5v5.2h5.6v1.8h-5.6v12.7c0,2.5,1.2,3.4,3.1,3.4
			c1.8,0,2.7-0.4,3.1-0.7l0.6,1.8c-0.8,0.4-2,0.8-4.1,0.8C582.3,163.6,580.6,161.8,580.6,158.4z"/>
		<path class="st2" d="M603,145.8c-0.7-0.2-1.5-0.3-2.2-0.3c-2,0-4,0.8-4.9,2.8v15.1h-2.1v-19.7h1.6l0.5,2h0.1
			c0.9-1.3,2.7-2.3,4.9-2.3c1,0,1.6,0.1,2.1,0.2V145.8z"/>
		<path class="st2" d="M618.1,149.2v9.2c0,1.9,0.6,3.3,2.1,3.3h0.5v1.6c-0.1,0-0.4,0.1-0.6,0.1c-2,0-3.2-1.1-3.6-2.5h-0.1
			c-1,1.1-2.6,2.7-6.1,2.7c-3.6,0-5.7-2.6-5.7-5.2c0-4.3,4.4-6.5,11.5-6.4v-2.3c0-3.5-1.6-4.5-4.5-4.5c-2.9,0-4.2,1.5-4.8,2.5
			l-1.6-1.3c0.7-0.9,2.5-3.1,6.5-3.1C615.6,143.4,618.1,145.3,618.1,149.2z M616.1,154c-5.1-0.1-9.4,1.1-9.4,4.4
			c0,1.9,1.4,3.5,3.9,3.5c2.5,0,4.5-1.5,5.5-3V154z"/>
		<path class="st2" d="M627.9,135.6v23.6c0,1.8,0.6,2.6,2.2,2.6c0.8,0,1.5-0.3,1.9-0.5v1.9c-0.7,0.3-1.8,0.4-2.5,0.4
			c-2.6,0-3.7-1.5-3.7-3.9v-24.1H627.9z"/>
		<path class="st2" d="M634.8,153.6c0-6.1,2.2-10.3,8.1-10.3c5.8,0,7.8,4.1,7.8,10.1c0,6.1-2.2,10.3-8.1,10.3
			C636.8,163.7,634.8,159.6,634.8,153.6z M642.9,161.7c4.1,0,5.6-2.7,5.6-8.1c0-5.6-1.8-8.3-5.9-8.3c-4.1,0-5.6,2.6-5.6,8.1
			C637,159,638.7,161.7,642.9,161.7z"/>
		<path class="st2" d="M665.2,145.8c-0.7-0.2-1.5-0.3-2.2-0.3c-2,0-4,0.8-4.9,2.8v15.1H656v-19.7h1.6l0.5,2h0.1
			c0.9-1.3,2.7-2.3,4.9-2.3c1,0,1.6,0.1,2.1,0.2V145.8z"/>
		<path class="st2" d="M670.7,135.9c1,0,1.8,0.8,1.8,1.8c0,1-0.8,1.8-1.8,1.8c-1,0-1.8-0.8-1.8-1.8
			C668.9,136.7,669.7,135.9,670.7,135.9z M669.8,143.6h2.1v19.7h-2.1V143.6z"/>
		<path class="st2" d="M691.6,149.2v9.2c0,1.9,0.6,3.3,2.1,3.3h0.5v1.6c-0.1,0-0.4,0.1-0.6,0.1c-2,0-3.1-1.1-3.6-2.5h-0.1
			c-1,1.1-2.6,2.7-6.1,2.7c-3.6,0-5.7-2.6-5.7-5.2c0-4.3,4.4-6.5,11.5-6.4v-2.3c0-3.5-1.6-4.5-4.5-4.5c-2.9,0-4.2,1.5-4.8,2.5
			l-1.6-1.3c0.7-0.9,2.5-3.1,6.5-3.1S691.6,145.3,691.6,149.2z M689.6,154c-5.1-0.1-9.4,1.1-9.4,4.4c0,1.9,1.4,3.5,3.9,3.5
			c2.5,0,4.5-1.5,5.5-3V154z"/>
		<path class="st2" d="M699.6,159.5c1.1,0,1.9,0.8,1.9,1.9c0,1-0.8,1.9-1.9,1.9c-1,0-1.9-0.8-1.9-1.9
			C697.7,160.3,698.6,159.5,699.6,159.5z"/>
		<path class="st2" d="M713.7,143.3c3.2,0,4.8,1.3,5.3,1.8l-1.4,1.7c-1-0.9-2.2-1.6-4.1-1.6c-3.4,0-5.8,2.3-5.8,8.2
			c0,6,2.3,8.2,5.8,8.2c1.9,0,3.1-0.5,4-1.5l1.3,1.6c-0.7,0.7-2.3,1.8-5.5,1.8c-4.7,0-7.8-2.7-7.8-9.9
			C705.5,146.5,709,143.3,713.7,143.3z"/>
		<path class="st2" d="M725.9,135.6v23.6c0,1.8,0.6,2.6,2.2,2.6c0.8,0,1.5-0.3,1.9-0.5v1.9c-0.7,0.3-1.8,0.4-2.5,0.4
			c-2.6,0-3.7-1.5-3.7-3.9v-24.1H725.9z"/>
	</g>
</g>
</svg>
